G04 #@! TF.GenerationSoftware,KiCad,Pcbnew,5.1.9*
G04 #@! TF.CreationDate,2020-12-27T07:37:23+01:00*
G04 #@! TF.ProjectId,atx040-main-pcb,61747830-3430-42d6-9d61-696e2d706362,rev?*
G04 #@! TF.SameCoordinates,Original*
G04 #@! TF.FileFunction,Copper,L4,Bot*
G04 #@! TF.FilePolarity,Positive*
%FSLAX46Y46*%
G04 Gerber Fmt 4.6, Leading zero omitted, Abs format (unit mm)*
G04 Created by KiCad (PCBNEW 5.1.9) date 2020-12-27 07:37:23*
%MOMM*%
%LPD*%
G01*
G04 APERTURE LIST*
G04 #@! TA.AperFunction,ComponentPad*
%ADD10O,1.700000X1.700000*%
G04 #@! TD*
G04 #@! TA.AperFunction,ComponentPad*
%ADD11R,1.700000X1.700000*%
G04 #@! TD*
G04 #@! TA.AperFunction,ComponentPad*
%ADD12O,1.730000X2.030000*%
G04 #@! TD*
G04 #@! TA.AperFunction,ComponentPad*
%ADD13R,1.730000X2.030000*%
G04 #@! TD*
G04 #@! TA.AperFunction,ComponentPad*
%ADD14C,2.700000*%
G04 #@! TD*
G04 #@! TA.AperFunction,ComponentPad*
%ADD15C,2.500000*%
G04 #@! TD*
G04 #@! TA.AperFunction,ComponentPad*
%ADD16C,1.524000*%
G04 #@! TD*
G04 #@! TA.AperFunction,ComponentPad*
%ADD17O,1.600000X1.600000*%
G04 #@! TD*
G04 #@! TA.AperFunction,ComponentPad*
%ADD18R,1.600000X1.600000*%
G04 #@! TD*
G04 #@! TA.AperFunction,ComponentPad*
%ADD19C,4.000000*%
G04 #@! TD*
G04 #@! TA.AperFunction,ComponentPad*
%ADD20C,1.600000*%
G04 #@! TD*
G04 #@! TA.AperFunction,ComponentPad*
%ADD21O,3.300000X2.700000*%
G04 #@! TD*
G04 #@! TA.AperFunction,ComponentPad*
%ADD22C,0.800000*%
G04 #@! TD*
G04 #@! TA.AperFunction,ComponentPad*
%ADD23C,7.400000*%
G04 #@! TD*
G04 #@! TA.AperFunction,ViaPad*
%ADD24C,0.450000*%
G04 #@! TD*
G04 #@! TA.AperFunction,Conductor*
%ADD25C,0.254000*%
G04 #@! TD*
G04 #@! TA.AperFunction,Conductor*
%ADD26C,0.400000*%
G04 #@! TD*
G04 #@! TA.AperFunction,Conductor*
%ADD27C,0.127000*%
G04 #@! TD*
G04 #@! TA.AperFunction,Conductor*
%ADD28C,0.146800*%
G04 #@! TD*
G04 APERTURE END LIST*
D10*
X241300000Y-123190000D03*
X238760000Y-123190000D03*
X241300000Y-120650000D03*
X238760000Y-120650000D03*
X241300000Y-118110000D03*
X238760000Y-118110000D03*
X241300000Y-115570000D03*
X238760000Y-115570000D03*
X241300000Y-113030000D03*
D11*
X238760000Y-113030000D03*
D10*
X241300000Y-196850000D03*
D11*
X241300000Y-194310000D03*
D10*
X233680000Y-196850000D03*
D11*
X233680000Y-194310000D03*
D10*
X248920000Y-196850000D03*
D11*
X248920000Y-194310000D03*
D10*
X226060000Y-196850000D03*
D11*
X226060000Y-194310000D03*
G04 #@! TA.AperFunction,SMDPad,CuDef*
G36*
G01*
X175510000Y-144455000D02*
X175010000Y-144455000D01*
G75*
G02*
X174785000Y-144230000I0J225000D01*
G01*
X174785000Y-143780000D01*
G75*
G02*
X175010000Y-143555000I225000J0D01*
G01*
X175510000Y-143555000D01*
G75*
G02*
X175735000Y-143780000I0J-225000D01*
G01*
X175735000Y-144230000D01*
G75*
G02*
X175510000Y-144455000I-225000J0D01*
G01*
G37*
G04 #@! TD.AperFunction*
G04 #@! TA.AperFunction,SMDPad,CuDef*
G36*
G01*
X175510000Y-146005000D02*
X175010000Y-146005000D01*
G75*
G02*
X174785000Y-145780000I0J225000D01*
G01*
X174785000Y-145330000D01*
G75*
G02*
X175010000Y-145105000I225000J0D01*
G01*
X175510000Y-145105000D01*
G75*
G02*
X175735000Y-145330000I0J-225000D01*
G01*
X175735000Y-145780000D01*
G75*
G02*
X175510000Y-146005000I-225000J0D01*
G01*
G37*
G04 #@! TD.AperFunction*
G04 #@! TA.AperFunction,SMDPad,CuDef*
G36*
G01*
X158365000Y-155110000D02*
X157865000Y-155110000D01*
G75*
G02*
X157640000Y-154885000I0J225000D01*
G01*
X157640000Y-154435000D01*
G75*
G02*
X157865000Y-154210000I225000J0D01*
G01*
X158365000Y-154210000D01*
G75*
G02*
X158590000Y-154435000I0J-225000D01*
G01*
X158590000Y-154885000D01*
G75*
G02*
X158365000Y-155110000I-225000J0D01*
G01*
G37*
G04 #@! TD.AperFunction*
G04 #@! TA.AperFunction,SMDPad,CuDef*
G36*
G01*
X158365000Y-156660000D02*
X157865000Y-156660000D01*
G75*
G02*
X157640000Y-156435000I0J225000D01*
G01*
X157640000Y-155985000D01*
G75*
G02*
X157865000Y-155760000I225000J0D01*
G01*
X158365000Y-155760000D01*
G75*
G02*
X158590000Y-155985000I0J-225000D01*
G01*
X158590000Y-156435000D01*
G75*
G02*
X158365000Y-156660000I-225000J0D01*
G01*
G37*
G04 #@! TD.AperFunction*
G04 #@! TA.AperFunction,SMDPad,CuDef*
G36*
G01*
X36445000Y-174935000D02*
X35945000Y-174935000D01*
G75*
G02*
X35720000Y-174710000I0J225000D01*
G01*
X35720000Y-174260000D01*
G75*
G02*
X35945000Y-174035000I225000J0D01*
G01*
X36445000Y-174035000D01*
G75*
G02*
X36670000Y-174260000I0J-225000D01*
G01*
X36670000Y-174710000D01*
G75*
G02*
X36445000Y-174935000I-225000J0D01*
G01*
G37*
G04 #@! TD.AperFunction*
G04 #@! TA.AperFunction,SMDPad,CuDef*
G36*
G01*
X36445000Y-176485000D02*
X35945000Y-176485000D01*
G75*
G02*
X35720000Y-176260000I0J225000D01*
G01*
X35720000Y-175810000D01*
G75*
G02*
X35945000Y-175585000I225000J0D01*
G01*
X36445000Y-175585000D01*
G75*
G02*
X36670000Y-175810000I0J-225000D01*
G01*
X36670000Y-176260000D01*
G75*
G02*
X36445000Y-176485000I-225000J0D01*
G01*
G37*
G04 #@! TD.AperFunction*
D10*
X182880000Y-132080000D03*
X180340000Y-132080000D03*
X182880000Y-129540000D03*
X180340000Y-129540000D03*
X182880000Y-127000000D03*
X180340000Y-127000000D03*
X182880000Y-124460000D03*
X180340000Y-124460000D03*
X182880000Y-121920000D03*
D11*
X180340000Y-121920000D03*
D12*
X254000000Y-72390000D03*
X251460000Y-72390000D03*
D13*
X248920000Y-72390000D03*
D12*
X254000000Y-63500000D03*
X251460000Y-63500000D03*
D13*
X248920000Y-63500000D03*
D12*
X254000000Y-54610000D03*
X251460000Y-54610000D03*
D13*
X248920000Y-54610000D03*
D14*
X35000000Y-66750000D03*
D15*
X35000000Y-59950000D03*
X35000000Y-73550000D03*
X38000000Y-73550000D03*
X38000000Y-59950000D03*
D16*
X39200000Y-71250000D03*
X39200000Y-69450000D03*
X39200000Y-62250000D03*
X39200000Y-64050000D03*
X39200000Y-67650000D03*
X39200000Y-65850000D03*
D10*
X46990000Y-80010000D03*
X44450000Y-80010000D03*
X41910000Y-80010000D03*
X39370000Y-80010000D03*
D11*
X36830000Y-80010000D03*
D10*
X46990000Y-101600000D03*
X44450000Y-101600000D03*
X41910000Y-101600000D03*
X39370000Y-101600000D03*
D11*
X36830000Y-101600000D03*
D10*
X41910000Y-109220000D03*
X44450000Y-109220000D03*
X46990000Y-109220000D03*
X49530000Y-109220000D03*
X52070000Y-109220000D03*
X54610000Y-109220000D03*
X57150000Y-109220000D03*
X59690000Y-109220000D03*
D11*
X62230000Y-109220000D03*
D10*
X46990000Y-129540000D03*
X49530000Y-129540000D03*
X52070000Y-129540000D03*
X54610000Y-129540000D03*
X57150000Y-129540000D03*
D11*
X59690000Y-129540000D03*
G04 #@! TA.AperFunction,SMDPad,CuDef*
G36*
G01*
X128935000Y-134010000D02*
X128565000Y-134010000D01*
G75*
G02*
X128430000Y-133875000I0J135000D01*
G01*
X128430000Y-133605000D01*
G75*
G02*
X128565000Y-133470000I135000J0D01*
G01*
X128935000Y-133470000D01*
G75*
G02*
X129070000Y-133605000I0J-135000D01*
G01*
X129070000Y-133875000D01*
G75*
G02*
X128935000Y-134010000I-135000J0D01*
G01*
G37*
G04 #@! TD.AperFunction*
G04 #@! TA.AperFunction,SMDPad,CuDef*
G36*
G01*
X128935000Y-135030000D02*
X128565000Y-135030000D01*
G75*
G02*
X128430000Y-134895000I0J135000D01*
G01*
X128430000Y-134625000D01*
G75*
G02*
X128565000Y-134490000I135000J0D01*
G01*
X128935000Y-134490000D01*
G75*
G02*
X129070000Y-134625000I0J-135000D01*
G01*
X129070000Y-134895000D01*
G75*
G02*
X128935000Y-135030000I-135000J0D01*
G01*
G37*
G04 #@! TD.AperFunction*
G04 #@! TA.AperFunction,SMDPad,CuDef*
G36*
G01*
X227805000Y-68384000D02*
X226855000Y-68384000D01*
G75*
G02*
X226605000Y-68134000I0J250000D01*
G01*
X226605000Y-67634000D01*
G75*
G02*
X226855000Y-67384000I250000J0D01*
G01*
X227805000Y-67384000D01*
G75*
G02*
X228055000Y-67634000I0J-250000D01*
G01*
X228055000Y-68134000D01*
G75*
G02*
X227805000Y-68384000I-250000J0D01*
G01*
G37*
G04 #@! TD.AperFunction*
G04 #@! TA.AperFunction,SMDPad,CuDef*
G36*
G01*
X227805000Y-70284000D02*
X226855000Y-70284000D01*
G75*
G02*
X226605000Y-70034000I0J250000D01*
G01*
X226605000Y-69534000D01*
G75*
G02*
X226855000Y-69284000I250000J0D01*
G01*
X227805000Y-69284000D01*
G75*
G02*
X228055000Y-69534000I0J-250000D01*
G01*
X228055000Y-70034000D01*
G75*
G02*
X227805000Y-70284000I-250000J0D01*
G01*
G37*
G04 #@! TD.AperFunction*
G04 #@! TA.AperFunction,SMDPad,CuDef*
G36*
G01*
X177488000Y-70325000D02*
X177488000Y-69375000D01*
G75*
G02*
X177738000Y-69125000I250000J0D01*
G01*
X178238000Y-69125000D01*
G75*
G02*
X178488000Y-69375000I0J-250000D01*
G01*
X178488000Y-70325000D01*
G75*
G02*
X178238000Y-70575000I-250000J0D01*
G01*
X177738000Y-70575000D01*
G75*
G02*
X177488000Y-70325000I0J250000D01*
G01*
G37*
G04 #@! TD.AperFunction*
G04 #@! TA.AperFunction,SMDPad,CuDef*
G36*
G01*
X175588000Y-70325000D02*
X175588000Y-69375000D01*
G75*
G02*
X175838000Y-69125000I250000J0D01*
G01*
X176338000Y-69125000D01*
G75*
G02*
X176588000Y-69375000I0J-250000D01*
G01*
X176588000Y-70325000D01*
G75*
G02*
X176338000Y-70575000I-250000J0D01*
G01*
X175838000Y-70575000D01*
G75*
G02*
X175588000Y-70325000I0J250000D01*
G01*
G37*
G04 #@! TD.AperFunction*
G04 #@! TA.AperFunction,SMDPad,CuDef*
G36*
G01*
X201341983Y-76376776D02*
X202261224Y-77296017D01*
G75*
G02*
X202261224Y-77649569I-176776J-176776D01*
G01*
X201801603Y-78109190D01*
G75*
G02*
X201448051Y-78109190I-176776J176776D01*
G01*
X200528810Y-77189949D01*
G75*
G02*
X200528810Y-76836397I176776J176776D01*
G01*
X200988431Y-76376776D01*
G75*
G02*
X201341983Y-76376776I176776J-176776D01*
G01*
G37*
G04 #@! TD.AperFunction*
G04 #@! TA.AperFunction,SMDPad,CuDef*
G36*
G01*
X203427949Y-74290810D02*
X204347190Y-75210051D01*
G75*
G02*
X204347190Y-75563603I-176776J-176776D01*
G01*
X203887569Y-76023224D01*
G75*
G02*
X203534017Y-76023224I-176776J176776D01*
G01*
X202614776Y-75103983D01*
G75*
G02*
X202614776Y-74750431I176776J176776D01*
G01*
X203074397Y-74290810D01*
G75*
G02*
X203427949Y-74290810I176776J-176776D01*
G01*
G37*
G04 #@! TD.AperFunction*
G04 #@! TA.AperFunction,SMDPad,CuDef*
G36*
G01*
X177796000Y-93655000D02*
X177296000Y-93655000D01*
G75*
G02*
X177071000Y-93430000I0J225000D01*
G01*
X177071000Y-92980000D01*
G75*
G02*
X177296000Y-92755000I225000J0D01*
G01*
X177796000Y-92755000D01*
G75*
G02*
X178021000Y-92980000I0J-225000D01*
G01*
X178021000Y-93430000D01*
G75*
G02*
X177796000Y-93655000I-225000J0D01*
G01*
G37*
G04 #@! TD.AperFunction*
G04 #@! TA.AperFunction,SMDPad,CuDef*
G36*
G01*
X177796000Y-95205000D02*
X177296000Y-95205000D01*
G75*
G02*
X177071000Y-94980000I0J225000D01*
G01*
X177071000Y-94530000D01*
G75*
G02*
X177296000Y-94305000I225000J0D01*
G01*
X177796000Y-94305000D01*
G75*
G02*
X178021000Y-94530000I0J-225000D01*
G01*
X178021000Y-94980000D01*
G75*
G02*
X177796000Y-95205000I-225000J0D01*
G01*
G37*
G04 #@! TD.AperFunction*
G04 #@! TA.AperFunction,SMDPad,CuDef*
G36*
G01*
X203525000Y-90420000D02*
X203525000Y-89920000D01*
G75*
G02*
X203750000Y-89695000I225000J0D01*
G01*
X204200000Y-89695000D01*
G75*
G02*
X204425000Y-89920000I0J-225000D01*
G01*
X204425000Y-90420000D01*
G75*
G02*
X204200000Y-90645000I-225000J0D01*
G01*
X203750000Y-90645000D01*
G75*
G02*
X203525000Y-90420000I0J225000D01*
G01*
G37*
G04 #@! TD.AperFunction*
G04 #@! TA.AperFunction,SMDPad,CuDef*
G36*
G01*
X201975000Y-90420000D02*
X201975000Y-89920000D01*
G75*
G02*
X202200000Y-89695000I225000J0D01*
G01*
X202650000Y-89695000D01*
G75*
G02*
X202875000Y-89920000I0J-225000D01*
G01*
X202875000Y-90420000D01*
G75*
G02*
X202650000Y-90645000I-225000J0D01*
G01*
X202200000Y-90645000D01*
G75*
G02*
X201975000Y-90420000I0J225000D01*
G01*
G37*
G04 #@! TD.AperFunction*
G04 #@! TA.AperFunction,SMDPad,CuDef*
G36*
G01*
X189734000Y-78161000D02*
X189234000Y-78161000D01*
G75*
G02*
X189009000Y-77936000I0J225000D01*
G01*
X189009000Y-77486000D01*
G75*
G02*
X189234000Y-77261000I225000J0D01*
G01*
X189734000Y-77261000D01*
G75*
G02*
X189959000Y-77486000I0J-225000D01*
G01*
X189959000Y-77936000D01*
G75*
G02*
X189734000Y-78161000I-225000J0D01*
G01*
G37*
G04 #@! TD.AperFunction*
G04 #@! TA.AperFunction,SMDPad,CuDef*
G36*
G01*
X189734000Y-79711000D02*
X189234000Y-79711000D01*
G75*
G02*
X189009000Y-79486000I0J225000D01*
G01*
X189009000Y-79036000D01*
G75*
G02*
X189234000Y-78811000I225000J0D01*
G01*
X189734000Y-78811000D01*
G75*
G02*
X189959000Y-79036000I0J-225000D01*
G01*
X189959000Y-79486000D01*
G75*
G02*
X189734000Y-79711000I-225000J0D01*
G01*
G37*
G04 #@! TD.AperFunction*
G04 #@! TA.AperFunction,SMDPad,CuDef*
G36*
G01*
X188539000Y-51304000D02*
X188539000Y-50804000D01*
G75*
G02*
X188764000Y-50579000I225000J0D01*
G01*
X189214000Y-50579000D01*
G75*
G02*
X189439000Y-50804000I0J-225000D01*
G01*
X189439000Y-51304000D01*
G75*
G02*
X189214000Y-51529000I-225000J0D01*
G01*
X188764000Y-51529000D01*
G75*
G02*
X188539000Y-51304000I0J225000D01*
G01*
G37*
G04 #@! TD.AperFunction*
G04 #@! TA.AperFunction,SMDPad,CuDef*
G36*
G01*
X186989000Y-51304000D02*
X186989000Y-50804000D01*
G75*
G02*
X187214000Y-50579000I225000J0D01*
G01*
X187664000Y-50579000D01*
G75*
G02*
X187889000Y-50804000I0J-225000D01*
G01*
X187889000Y-51304000D01*
G75*
G02*
X187664000Y-51529000I-225000J0D01*
G01*
X187214000Y-51529000D01*
G75*
G02*
X186989000Y-51304000I0J225000D01*
G01*
G37*
G04 #@! TD.AperFunction*
G04 #@! TA.AperFunction,SMDPad,CuDef*
G36*
G01*
X211145000Y-52320000D02*
X211145000Y-51820000D01*
G75*
G02*
X211370000Y-51595000I225000J0D01*
G01*
X211820000Y-51595000D01*
G75*
G02*
X212045000Y-51820000I0J-225000D01*
G01*
X212045000Y-52320000D01*
G75*
G02*
X211820000Y-52545000I-225000J0D01*
G01*
X211370000Y-52545000D01*
G75*
G02*
X211145000Y-52320000I0J225000D01*
G01*
G37*
G04 #@! TD.AperFunction*
G04 #@! TA.AperFunction,SMDPad,CuDef*
G36*
G01*
X209595000Y-52320000D02*
X209595000Y-51820000D01*
G75*
G02*
X209820000Y-51595000I225000J0D01*
G01*
X210270000Y-51595000D01*
G75*
G02*
X210495000Y-51820000I0J-225000D01*
G01*
X210495000Y-52320000D01*
G75*
G02*
X210270000Y-52545000I-225000J0D01*
G01*
X209820000Y-52545000D01*
G75*
G02*
X209595000Y-52320000I0J225000D01*
G01*
G37*
G04 #@! TD.AperFunction*
G04 #@! TA.AperFunction,SMDPad,CuDef*
G36*
G01*
X216912000Y-77145000D02*
X216412000Y-77145000D01*
G75*
G02*
X216187000Y-76920000I0J225000D01*
G01*
X216187000Y-76470000D01*
G75*
G02*
X216412000Y-76245000I225000J0D01*
G01*
X216912000Y-76245000D01*
G75*
G02*
X217137000Y-76470000I0J-225000D01*
G01*
X217137000Y-76920000D01*
G75*
G02*
X216912000Y-77145000I-225000J0D01*
G01*
G37*
G04 #@! TD.AperFunction*
G04 #@! TA.AperFunction,SMDPad,CuDef*
G36*
G01*
X216912000Y-78695000D02*
X216412000Y-78695000D01*
G75*
G02*
X216187000Y-78470000I0J225000D01*
G01*
X216187000Y-78020000D01*
G75*
G02*
X216412000Y-77795000I225000J0D01*
G01*
X216912000Y-77795000D01*
G75*
G02*
X217137000Y-78020000I0J-225000D01*
G01*
X217137000Y-78470000D01*
G75*
G02*
X216912000Y-78695000I-225000J0D01*
G01*
G37*
G04 #@! TD.AperFunction*
G04 #@! TA.AperFunction,SMDPad,CuDef*
G36*
G01*
X152575000Y-54500000D02*
X152575000Y-54000000D01*
G75*
G02*
X152800000Y-53775000I225000J0D01*
G01*
X153250000Y-53775000D01*
G75*
G02*
X153475000Y-54000000I0J-225000D01*
G01*
X153475000Y-54500000D01*
G75*
G02*
X153250000Y-54725000I-225000J0D01*
G01*
X152800000Y-54725000D01*
G75*
G02*
X152575000Y-54500000I0J225000D01*
G01*
G37*
G04 #@! TD.AperFunction*
G04 #@! TA.AperFunction,SMDPad,CuDef*
G36*
G01*
X151025000Y-54500000D02*
X151025000Y-54000000D01*
G75*
G02*
X151250000Y-53775000I225000J0D01*
G01*
X151700000Y-53775000D01*
G75*
G02*
X151925000Y-54000000I0J-225000D01*
G01*
X151925000Y-54500000D01*
G75*
G02*
X151700000Y-54725000I-225000J0D01*
G01*
X151250000Y-54725000D01*
G75*
G02*
X151025000Y-54500000I0J225000D01*
G01*
G37*
G04 #@! TD.AperFunction*
G04 #@! TA.AperFunction,SMDPad,CuDef*
G36*
G01*
X152575000Y-60250000D02*
X152575000Y-59750000D01*
G75*
G02*
X152800000Y-59525000I225000J0D01*
G01*
X153250000Y-59525000D01*
G75*
G02*
X153475000Y-59750000I0J-225000D01*
G01*
X153475000Y-60250000D01*
G75*
G02*
X153250000Y-60475000I-225000J0D01*
G01*
X152800000Y-60475000D01*
G75*
G02*
X152575000Y-60250000I0J225000D01*
G01*
G37*
G04 #@! TD.AperFunction*
G04 #@! TA.AperFunction,SMDPad,CuDef*
G36*
G01*
X151025000Y-60250000D02*
X151025000Y-59750000D01*
G75*
G02*
X151250000Y-59525000I225000J0D01*
G01*
X151700000Y-59525000D01*
G75*
G02*
X151925000Y-59750000I0J-225000D01*
G01*
X151925000Y-60250000D01*
G75*
G02*
X151700000Y-60475000I-225000J0D01*
G01*
X151250000Y-60475000D01*
G75*
G02*
X151025000Y-60250000I0J225000D01*
G01*
G37*
G04 #@! TD.AperFunction*
G04 #@! TA.AperFunction,SMDPad,CuDef*
G36*
G01*
X152575000Y-73750000D02*
X152575000Y-73250000D01*
G75*
G02*
X152800000Y-73025000I225000J0D01*
G01*
X153250000Y-73025000D01*
G75*
G02*
X153475000Y-73250000I0J-225000D01*
G01*
X153475000Y-73750000D01*
G75*
G02*
X153250000Y-73975000I-225000J0D01*
G01*
X152800000Y-73975000D01*
G75*
G02*
X152575000Y-73750000I0J225000D01*
G01*
G37*
G04 #@! TD.AperFunction*
G04 #@! TA.AperFunction,SMDPad,CuDef*
G36*
G01*
X151025000Y-73750000D02*
X151025000Y-73250000D01*
G75*
G02*
X151250000Y-73025000I225000J0D01*
G01*
X151700000Y-73025000D01*
G75*
G02*
X151925000Y-73250000I0J-225000D01*
G01*
X151925000Y-73750000D01*
G75*
G02*
X151700000Y-73975000I-225000J0D01*
G01*
X151250000Y-73975000D01*
G75*
G02*
X151025000Y-73750000I0J225000D01*
G01*
G37*
G04 #@! TD.AperFunction*
G04 #@! TA.AperFunction,SMDPad,CuDef*
G36*
G01*
X152575000Y-79250000D02*
X152575000Y-78750000D01*
G75*
G02*
X152800000Y-78525000I225000J0D01*
G01*
X153250000Y-78525000D01*
G75*
G02*
X153475000Y-78750000I0J-225000D01*
G01*
X153475000Y-79250000D01*
G75*
G02*
X153250000Y-79475000I-225000J0D01*
G01*
X152800000Y-79475000D01*
G75*
G02*
X152575000Y-79250000I0J225000D01*
G01*
G37*
G04 #@! TD.AperFunction*
G04 #@! TA.AperFunction,SMDPad,CuDef*
G36*
G01*
X151025000Y-79250000D02*
X151025000Y-78750000D01*
G75*
G02*
X151250000Y-78525000I225000J0D01*
G01*
X151700000Y-78525000D01*
G75*
G02*
X151925000Y-78750000I0J-225000D01*
G01*
X151925000Y-79250000D01*
G75*
G02*
X151700000Y-79475000I-225000J0D01*
G01*
X151250000Y-79475000D01*
G75*
G02*
X151025000Y-79250000I0J225000D01*
G01*
G37*
G04 #@! TD.AperFunction*
G04 #@! TA.AperFunction,SMDPad,CuDef*
G36*
G01*
X152575000Y-98250000D02*
X152575000Y-97750000D01*
G75*
G02*
X152800000Y-97525000I225000J0D01*
G01*
X153250000Y-97525000D01*
G75*
G02*
X153475000Y-97750000I0J-225000D01*
G01*
X153475000Y-98250000D01*
G75*
G02*
X153250000Y-98475000I-225000J0D01*
G01*
X152800000Y-98475000D01*
G75*
G02*
X152575000Y-98250000I0J225000D01*
G01*
G37*
G04 #@! TD.AperFunction*
G04 #@! TA.AperFunction,SMDPad,CuDef*
G36*
G01*
X151025000Y-98250000D02*
X151025000Y-97750000D01*
G75*
G02*
X151250000Y-97525000I225000J0D01*
G01*
X151700000Y-97525000D01*
G75*
G02*
X151925000Y-97750000I0J-225000D01*
G01*
X151925000Y-98250000D01*
G75*
G02*
X151700000Y-98475000I-225000J0D01*
G01*
X151250000Y-98475000D01*
G75*
G02*
X151025000Y-98250000I0J225000D01*
G01*
G37*
G04 #@! TD.AperFunction*
G04 #@! TA.AperFunction,SMDPad,CuDef*
G36*
G01*
X152575000Y-92750000D02*
X152575000Y-92250000D01*
G75*
G02*
X152800000Y-92025000I225000J0D01*
G01*
X153250000Y-92025000D01*
G75*
G02*
X153475000Y-92250000I0J-225000D01*
G01*
X153475000Y-92750000D01*
G75*
G02*
X153250000Y-92975000I-225000J0D01*
G01*
X152800000Y-92975000D01*
G75*
G02*
X152575000Y-92750000I0J225000D01*
G01*
G37*
G04 #@! TD.AperFunction*
G04 #@! TA.AperFunction,SMDPad,CuDef*
G36*
G01*
X151025000Y-92750000D02*
X151025000Y-92250000D01*
G75*
G02*
X151250000Y-92025000I225000J0D01*
G01*
X151700000Y-92025000D01*
G75*
G02*
X151925000Y-92250000I0J-225000D01*
G01*
X151925000Y-92750000D01*
G75*
G02*
X151700000Y-92975000I-225000J0D01*
G01*
X151250000Y-92975000D01*
G75*
G02*
X151025000Y-92750000I0J225000D01*
G01*
G37*
G04 #@! TD.AperFunction*
G04 #@! TA.AperFunction,SMDPad,CuDef*
G36*
G01*
X69084000Y-147503000D02*
X68584000Y-147503000D01*
G75*
G02*
X68359000Y-147278000I0J225000D01*
G01*
X68359000Y-146828000D01*
G75*
G02*
X68584000Y-146603000I225000J0D01*
G01*
X69084000Y-146603000D01*
G75*
G02*
X69309000Y-146828000I0J-225000D01*
G01*
X69309000Y-147278000D01*
G75*
G02*
X69084000Y-147503000I-225000J0D01*
G01*
G37*
G04 #@! TD.AperFunction*
G04 #@! TA.AperFunction,SMDPad,CuDef*
G36*
G01*
X69084000Y-149053000D02*
X68584000Y-149053000D01*
G75*
G02*
X68359000Y-148828000I0J225000D01*
G01*
X68359000Y-148378000D01*
G75*
G02*
X68584000Y-148153000I225000J0D01*
G01*
X69084000Y-148153000D01*
G75*
G02*
X69309000Y-148378000I0J-225000D01*
G01*
X69309000Y-148828000D01*
G75*
G02*
X69084000Y-149053000I-225000J0D01*
G01*
G37*
G04 #@! TD.AperFunction*
G04 #@! TA.AperFunction,SMDPad,CuDef*
G36*
G01*
X69084000Y-153853000D02*
X68584000Y-153853000D01*
G75*
G02*
X68359000Y-153628000I0J225000D01*
G01*
X68359000Y-153178000D01*
G75*
G02*
X68584000Y-152953000I225000J0D01*
G01*
X69084000Y-152953000D01*
G75*
G02*
X69309000Y-153178000I0J-225000D01*
G01*
X69309000Y-153628000D01*
G75*
G02*
X69084000Y-153853000I-225000J0D01*
G01*
G37*
G04 #@! TD.AperFunction*
G04 #@! TA.AperFunction,SMDPad,CuDef*
G36*
G01*
X69084000Y-155403000D02*
X68584000Y-155403000D01*
G75*
G02*
X68359000Y-155178000I0J225000D01*
G01*
X68359000Y-154728000D01*
G75*
G02*
X68584000Y-154503000I225000J0D01*
G01*
X69084000Y-154503000D01*
G75*
G02*
X69309000Y-154728000I0J-225000D01*
G01*
X69309000Y-155178000D01*
G75*
G02*
X69084000Y-155403000I-225000J0D01*
G01*
G37*
G04 #@! TD.AperFunction*
G04 #@! TA.AperFunction,SMDPad,CuDef*
G36*
G01*
X74983033Y-145694587D02*
X75336587Y-145341033D01*
G75*
G02*
X75654785Y-145341033I159099J-159099D01*
G01*
X75972983Y-145659231D01*
G75*
G02*
X75972983Y-145977429I-159099J-159099D01*
G01*
X75619429Y-146330983D01*
G75*
G02*
X75301231Y-146330983I-159099J159099D01*
G01*
X74983033Y-146012785D01*
G75*
G02*
X74983033Y-145694587I159099J159099D01*
G01*
G37*
G04 #@! TD.AperFunction*
G04 #@! TA.AperFunction,SMDPad,CuDef*
G36*
G01*
X73887017Y-144598571D02*
X74240571Y-144245017D01*
G75*
G02*
X74558769Y-144245017I159099J-159099D01*
G01*
X74876967Y-144563215D01*
G75*
G02*
X74876967Y-144881413I-159099J-159099D01*
G01*
X74523413Y-145234967D01*
G75*
G02*
X74205215Y-145234967I-159099J159099D01*
G01*
X73887017Y-144916769D01*
G75*
G02*
X73887017Y-144598571I159099J159099D01*
G01*
G37*
G04 #@! TD.AperFunction*
D17*
X254000000Y-100330000D03*
X246380000Y-123190000D03*
X254000000Y-102870000D03*
X246380000Y-120650000D03*
X254000000Y-105410000D03*
X246380000Y-118110000D03*
X254000000Y-107950000D03*
X246380000Y-115570000D03*
X254000000Y-110490000D03*
X246380000Y-113030000D03*
X254000000Y-113030000D03*
X246380000Y-110490000D03*
X254000000Y-115570000D03*
X246380000Y-107950000D03*
X254000000Y-118110000D03*
X246380000Y-105410000D03*
X254000000Y-120650000D03*
X246380000Y-102870000D03*
X254000000Y-123190000D03*
D18*
X246380000Y-100330000D03*
G04 #@! TA.AperFunction,SMDPad,CuDef*
G36*
G01*
X145800000Y-130580000D02*
X145800000Y-130920000D01*
G75*
G02*
X145660000Y-131060000I-140000J0D01*
G01*
X145380000Y-131060000D01*
G75*
G02*
X145240000Y-130920000I0J140000D01*
G01*
X145240000Y-130580000D01*
G75*
G02*
X145380000Y-130440000I140000J0D01*
G01*
X145660000Y-130440000D01*
G75*
G02*
X145800000Y-130580000I0J-140000D01*
G01*
G37*
G04 #@! TD.AperFunction*
G04 #@! TA.AperFunction,SMDPad,CuDef*
G36*
G01*
X146760000Y-130580000D02*
X146760000Y-130920000D01*
G75*
G02*
X146620000Y-131060000I-140000J0D01*
G01*
X146340000Y-131060000D01*
G75*
G02*
X146200000Y-130920000I0J140000D01*
G01*
X146200000Y-130580000D01*
G75*
G02*
X146340000Y-130440000I140000J0D01*
G01*
X146620000Y-130440000D01*
G75*
G02*
X146760000Y-130580000I0J-140000D01*
G01*
G37*
G04 #@! TD.AperFunction*
G04 #@! TA.AperFunction,SMDPad,CuDef*
G36*
G01*
X136450000Y-144420000D02*
X136450000Y-144080000D01*
G75*
G02*
X136590000Y-143940000I140000J0D01*
G01*
X136870000Y-143940000D01*
G75*
G02*
X137010000Y-144080000I0J-140000D01*
G01*
X137010000Y-144420000D01*
G75*
G02*
X136870000Y-144560000I-140000J0D01*
G01*
X136590000Y-144560000D01*
G75*
G02*
X136450000Y-144420000I0J140000D01*
G01*
G37*
G04 #@! TD.AperFunction*
G04 #@! TA.AperFunction,SMDPad,CuDef*
G36*
G01*
X135490000Y-144420000D02*
X135490000Y-144080000D01*
G75*
G02*
X135630000Y-143940000I140000J0D01*
G01*
X135910000Y-143940000D01*
G75*
G02*
X136050000Y-144080000I0J-140000D01*
G01*
X136050000Y-144420000D01*
G75*
G02*
X135910000Y-144560000I-140000J0D01*
G01*
X135630000Y-144560000D01*
G75*
G02*
X135490000Y-144420000I0J140000D01*
G01*
G37*
G04 #@! TD.AperFunction*
D19*
X37320000Y-161855000D03*
X37320000Y-136855000D03*
D20*
X35410000Y-144510000D03*
X35410000Y-146800000D03*
X35410000Y-149090000D03*
X35410000Y-151380000D03*
X35410000Y-153670000D03*
X37390000Y-145655000D03*
X37390000Y-147945000D03*
X37390000Y-150235000D03*
X37390000Y-152525000D03*
X37390000Y-154815000D03*
X39370000Y-144510000D03*
X39370000Y-146800000D03*
X39370000Y-149090000D03*
X39370000Y-151380000D03*
D18*
X39370000Y-153670000D03*
D10*
X79375000Y-124460000D03*
X79375000Y-121920000D03*
D11*
X79375000Y-119380000D03*
G04 #@! TA.AperFunction,SMDPad,CuDef*
G36*
G01*
X122700000Y-126920000D02*
X122700000Y-126580000D01*
G75*
G02*
X122840000Y-126440000I140000J0D01*
G01*
X123120000Y-126440000D01*
G75*
G02*
X123260000Y-126580000I0J-140000D01*
G01*
X123260000Y-126920000D01*
G75*
G02*
X123120000Y-127060000I-140000J0D01*
G01*
X122840000Y-127060000D01*
G75*
G02*
X122700000Y-126920000I0J140000D01*
G01*
G37*
G04 #@! TD.AperFunction*
G04 #@! TA.AperFunction,SMDPad,CuDef*
G36*
G01*
X121740000Y-126920000D02*
X121740000Y-126580000D01*
G75*
G02*
X121880000Y-126440000I140000J0D01*
G01*
X122160000Y-126440000D01*
G75*
G02*
X122300000Y-126580000I0J-140000D01*
G01*
X122300000Y-126920000D01*
G75*
G02*
X122160000Y-127060000I-140000J0D01*
G01*
X121880000Y-127060000D01*
G75*
G02*
X121740000Y-126920000I0J140000D01*
G01*
G37*
G04 #@! TD.AperFunction*
G04 #@! TA.AperFunction,SMDPad,CuDef*
G36*
G01*
X121700000Y-123420000D02*
X121700000Y-123080000D01*
G75*
G02*
X121840000Y-122940000I140000J0D01*
G01*
X122120000Y-122940000D01*
G75*
G02*
X122260000Y-123080000I0J-140000D01*
G01*
X122260000Y-123420000D01*
G75*
G02*
X122120000Y-123560000I-140000J0D01*
G01*
X121840000Y-123560000D01*
G75*
G02*
X121700000Y-123420000I0J140000D01*
G01*
G37*
G04 #@! TD.AperFunction*
G04 #@! TA.AperFunction,SMDPad,CuDef*
G36*
G01*
X120740000Y-123420000D02*
X120740000Y-123080000D01*
G75*
G02*
X120880000Y-122940000I140000J0D01*
G01*
X121160000Y-122940000D01*
G75*
G02*
X121300000Y-123080000I0J-140000D01*
G01*
X121300000Y-123420000D01*
G75*
G02*
X121160000Y-123560000I-140000J0D01*
G01*
X120880000Y-123560000D01*
G75*
G02*
X120740000Y-123420000I0J140000D01*
G01*
G37*
G04 #@! TD.AperFunction*
G04 #@! TA.AperFunction,SMDPad,CuDef*
G36*
G01*
X119700000Y-118420000D02*
X119700000Y-118080000D01*
G75*
G02*
X119840000Y-117940000I140000J0D01*
G01*
X120120000Y-117940000D01*
G75*
G02*
X120260000Y-118080000I0J-140000D01*
G01*
X120260000Y-118420000D01*
G75*
G02*
X120120000Y-118560000I-140000J0D01*
G01*
X119840000Y-118560000D01*
G75*
G02*
X119700000Y-118420000I0J140000D01*
G01*
G37*
G04 #@! TD.AperFunction*
G04 #@! TA.AperFunction,SMDPad,CuDef*
G36*
G01*
X118740000Y-118420000D02*
X118740000Y-118080000D01*
G75*
G02*
X118880000Y-117940000I140000J0D01*
G01*
X119160000Y-117940000D01*
G75*
G02*
X119300000Y-118080000I0J-140000D01*
G01*
X119300000Y-118420000D01*
G75*
G02*
X119160000Y-118560000I-140000J0D01*
G01*
X118880000Y-118560000D01*
G75*
G02*
X118740000Y-118420000I0J140000D01*
G01*
G37*
G04 #@! TD.AperFunction*
G04 #@! TA.AperFunction,SMDPad,CuDef*
G36*
G01*
X130700000Y-119420000D02*
X130700000Y-119080000D01*
G75*
G02*
X130840000Y-118940000I140000J0D01*
G01*
X131120000Y-118940000D01*
G75*
G02*
X131260000Y-119080000I0J-140000D01*
G01*
X131260000Y-119420000D01*
G75*
G02*
X131120000Y-119560000I-140000J0D01*
G01*
X130840000Y-119560000D01*
G75*
G02*
X130700000Y-119420000I0J140000D01*
G01*
G37*
G04 #@! TD.AperFunction*
G04 #@! TA.AperFunction,SMDPad,CuDef*
G36*
G01*
X129740000Y-119420000D02*
X129740000Y-119080000D01*
G75*
G02*
X129880000Y-118940000I140000J0D01*
G01*
X130160000Y-118940000D01*
G75*
G02*
X130300000Y-119080000I0J-140000D01*
G01*
X130300000Y-119420000D01*
G75*
G02*
X130160000Y-119560000I-140000J0D01*
G01*
X129880000Y-119560000D01*
G75*
G02*
X129740000Y-119420000I0J140000D01*
G01*
G37*
G04 #@! TD.AperFunction*
G04 #@! TA.AperFunction,SMDPad,CuDef*
G36*
G01*
X126920000Y-120300000D02*
X126580000Y-120300000D01*
G75*
G02*
X126440000Y-120160000I0J140000D01*
G01*
X126440000Y-119880000D01*
G75*
G02*
X126580000Y-119740000I140000J0D01*
G01*
X126920000Y-119740000D01*
G75*
G02*
X127060000Y-119880000I0J-140000D01*
G01*
X127060000Y-120160000D01*
G75*
G02*
X126920000Y-120300000I-140000J0D01*
G01*
G37*
G04 #@! TD.AperFunction*
G04 #@! TA.AperFunction,SMDPad,CuDef*
G36*
G01*
X126920000Y-121260000D02*
X126580000Y-121260000D01*
G75*
G02*
X126440000Y-121120000I0J140000D01*
G01*
X126440000Y-120840000D01*
G75*
G02*
X126580000Y-120700000I140000J0D01*
G01*
X126920000Y-120700000D01*
G75*
G02*
X127060000Y-120840000I0J-140000D01*
G01*
X127060000Y-121120000D01*
G75*
G02*
X126920000Y-121260000I-140000J0D01*
G01*
G37*
G04 #@! TD.AperFunction*
G04 #@! TA.AperFunction,SMDPad,CuDef*
G36*
G01*
X130920000Y-129300000D02*
X130580000Y-129300000D01*
G75*
G02*
X130440000Y-129160000I0J140000D01*
G01*
X130440000Y-128880000D01*
G75*
G02*
X130580000Y-128740000I140000J0D01*
G01*
X130920000Y-128740000D01*
G75*
G02*
X131060000Y-128880000I0J-140000D01*
G01*
X131060000Y-129160000D01*
G75*
G02*
X130920000Y-129300000I-140000J0D01*
G01*
G37*
G04 #@! TD.AperFunction*
G04 #@! TA.AperFunction,SMDPad,CuDef*
G36*
G01*
X130920000Y-130260000D02*
X130580000Y-130260000D01*
G75*
G02*
X130440000Y-130120000I0J140000D01*
G01*
X130440000Y-129840000D01*
G75*
G02*
X130580000Y-129700000I140000J0D01*
G01*
X130920000Y-129700000D01*
G75*
G02*
X131060000Y-129840000I0J-140000D01*
G01*
X131060000Y-130120000D01*
G75*
G02*
X130920000Y-130260000I-140000J0D01*
G01*
G37*
G04 #@! TD.AperFunction*
G04 #@! TA.AperFunction,SMDPad,CuDef*
G36*
G01*
X120920000Y-129300000D02*
X120580000Y-129300000D01*
G75*
G02*
X120440000Y-129160000I0J140000D01*
G01*
X120440000Y-128880000D01*
G75*
G02*
X120580000Y-128740000I140000J0D01*
G01*
X120920000Y-128740000D01*
G75*
G02*
X121060000Y-128880000I0J-140000D01*
G01*
X121060000Y-129160000D01*
G75*
G02*
X120920000Y-129300000I-140000J0D01*
G01*
G37*
G04 #@! TD.AperFunction*
G04 #@! TA.AperFunction,SMDPad,CuDef*
G36*
G01*
X120920000Y-130260000D02*
X120580000Y-130260000D01*
G75*
G02*
X120440000Y-130120000I0J140000D01*
G01*
X120440000Y-129840000D01*
G75*
G02*
X120580000Y-129700000I140000J0D01*
G01*
X120920000Y-129700000D01*
G75*
G02*
X121060000Y-129840000I0J-140000D01*
G01*
X121060000Y-130120000D01*
G75*
G02*
X120920000Y-130260000I-140000J0D01*
G01*
G37*
G04 #@! TD.AperFunction*
G04 #@! TA.AperFunction,SMDPad,CuDef*
G36*
G01*
X130700000Y-125420000D02*
X130700000Y-125080000D01*
G75*
G02*
X130840000Y-124940000I140000J0D01*
G01*
X131120000Y-124940000D01*
G75*
G02*
X131260000Y-125080000I0J-140000D01*
G01*
X131260000Y-125420000D01*
G75*
G02*
X131120000Y-125560000I-140000J0D01*
G01*
X130840000Y-125560000D01*
G75*
G02*
X130700000Y-125420000I0J140000D01*
G01*
G37*
G04 #@! TD.AperFunction*
G04 #@! TA.AperFunction,SMDPad,CuDef*
G36*
G01*
X129740000Y-125420000D02*
X129740000Y-125080000D01*
G75*
G02*
X129880000Y-124940000I140000J0D01*
G01*
X130160000Y-124940000D01*
G75*
G02*
X130300000Y-125080000I0J-140000D01*
G01*
X130300000Y-125420000D01*
G75*
G02*
X130160000Y-125560000I-140000J0D01*
G01*
X129880000Y-125560000D01*
G75*
G02*
X129740000Y-125420000I0J140000D01*
G01*
G37*
G04 #@! TD.AperFunction*
G04 #@! TA.AperFunction,SMDPad,CuDef*
G36*
G01*
X128904073Y-124267678D02*
X128232322Y-123595927D01*
G75*
G02*
X128232322Y-123242373I176777J176777D01*
G01*
X128585875Y-122888820D01*
G75*
G02*
X128939429Y-122888820I176777J-176777D01*
G01*
X129611180Y-123560571D01*
G75*
G02*
X129611180Y-123914125I-176777J-176777D01*
G01*
X129257627Y-124267678D01*
G75*
G02*
X128904073Y-124267678I-176777J176777D01*
G01*
G37*
G04 #@! TD.AperFunction*
G04 #@! TA.AperFunction,SMDPad,CuDef*
G36*
G01*
X127560571Y-125611180D02*
X126888820Y-124939429D01*
G75*
G02*
X126888820Y-124585875I176777J176777D01*
G01*
X127242373Y-124232322D01*
G75*
G02*
X127595927Y-124232322I176777J-176777D01*
G01*
X128267678Y-124904073D01*
G75*
G02*
X128267678Y-125257627I-176777J-176777D01*
G01*
X127914125Y-125611180D01*
G75*
G02*
X127560571Y-125611180I-176777J176777D01*
G01*
G37*
G04 #@! TD.AperFunction*
G04 #@! TA.AperFunction,SMDPad,CuDef*
G36*
G01*
X125700000Y-122420000D02*
X125700000Y-122080000D01*
G75*
G02*
X125840000Y-121940000I140000J0D01*
G01*
X126120000Y-121940000D01*
G75*
G02*
X126260000Y-122080000I0J-140000D01*
G01*
X126260000Y-122420000D01*
G75*
G02*
X126120000Y-122560000I-140000J0D01*
G01*
X125840000Y-122560000D01*
G75*
G02*
X125700000Y-122420000I0J140000D01*
G01*
G37*
G04 #@! TD.AperFunction*
G04 #@! TA.AperFunction,SMDPad,CuDef*
G36*
G01*
X124740000Y-122420000D02*
X124740000Y-122080000D01*
G75*
G02*
X124880000Y-121940000I140000J0D01*
G01*
X125160000Y-121940000D01*
G75*
G02*
X125300000Y-122080000I0J-140000D01*
G01*
X125300000Y-122420000D01*
G75*
G02*
X125160000Y-122560000I-140000J0D01*
G01*
X124880000Y-122560000D01*
G75*
G02*
X124740000Y-122420000I0J140000D01*
G01*
G37*
G04 #@! TD.AperFunction*
D10*
X136398000Y-108712000D03*
X136398000Y-106172000D03*
X136398000Y-103632000D03*
X136398000Y-101092000D03*
X136398000Y-98552000D03*
D11*
X136398000Y-96012000D03*
G04 #@! TA.AperFunction,SMDPad,CuDef*
G36*
G01*
X113240000Y-131170000D02*
X113240000Y-131720000D01*
G75*
G02*
X113040000Y-131920000I-200000J0D01*
G01*
X112640000Y-131920000D01*
G75*
G02*
X112440000Y-131720000I0J200000D01*
G01*
X112440000Y-131170000D01*
G75*
G02*
X112640000Y-130970000I200000J0D01*
G01*
X113040000Y-130970000D01*
G75*
G02*
X113240000Y-131170000I0J-200000D01*
G01*
G37*
G04 #@! TD.AperFunction*
G04 #@! TA.AperFunction,SMDPad,CuDef*
G36*
G01*
X114890000Y-131170000D02*
X114890000Y-131720000D01*
G75*
G02*
X114690000Y-131920000I-200000J0D01*
G01*
X114290000Y-131920000D01*
G75*
G02*
X114090000Y-131720000I0J200000D01*
G01*
X114090000Y-131170000D01*
G75*
G02*
X114290000Y-130970000I200000J0D01*
G01*
X114690000Y-130970000D01*
G75*
G02*
X114890000Y-131170000I0J-200000D01*
G01*
G37*
G04 #@! TD.AperFunction*
G04 #@! TA.AperFunction,SMDPad,CuDef*
G36*
G01*
X110065000Y-132440000D02*
X110065000Y-132990000D01*
G75*
G02*
X109865000Y-133190000I-200000J0D01*
G01*
X109465000Y-133190000D01*
G75*
G02*
X109265000Y-132990000I0J200000D01*
G01*
X109265000Y-132440000D01*
G75*
G02*
X109465000Y-132240000I200000J0D01*
G01*
X109865000Y-132240000D01*
G75*
G02*
X110065000Y-132440000I0J-200000D01*
G01*
G37*
G04 #@! TD.AperFunction*
G04 #@! TA.AperFunction,SMDPad,CuDef*
G36*
G01*
X111715000Y-132440000D02*
X111715000Y-132990000D01*
G75*
G02*
X111515000Y-133190000I-200000J0D01*
G01*
X111115000Y-133190000D01*
G75*
G02*
X110915000Y-132990000I0J200000D01*
G01*
X110915000Y-132440000D01*
G75*
G02*
X111115000Y-132240000I200000J0D01*
G01*
X111515000Y-132240000D01*
G75*
G02*
X111715000Y-132440000I0J-200000D01*
G01*
G37*
G04 #@! TD.AperFunction*
G04 #@! TA.AperFunction,SMDPad,CuDef*
G36*
G01*
X131975000Y-133425000D02*
X132525000Y-133425000D01*
G75*
G02*
X132725000Y-133625000I0J-200000D01*
G01*
X132725000Y-134025000D01*
G75*
G02*
X132525000Y-134225000I-200000J0D01*
G01*
X131975000Y-134225000D01*
G75*
G02*
X131775000Y-134025000I0J200000D01*
G01*
X131775000Y-133625000D01*
G75*
G02*
X131975000Y-133425000I200000J0D01*
G01*
G37*
G04 #@! TD.AperFunction*
G04 #@! TA.AperFunction,SMDPad,CuDef*
G36*
G01*
X131975000Y-131775000D02*
X132525000Y-131775000D01*
G75*
G02*
X132725000Y-131975000I0J-200000D01*
G01*
X132725000Y-132375000D01*
G75*
G02*
X132525000Y-132575000I-200000J0D01*
G01*
X131975000Y-132575000D01*
G75*
G02*
X131775000Y-132375000I0J200000D01*
G01*
X131775000Y-131975000D01*
G75*
G02*
X131975000Y-131775000I200000J0D01*
G01*
G37*
G04 #@! TD.AperFunction*
D21*
X269660000Y-99360000D03*
X269660000Y-103560000D03*
X269660000Y-107760000D03*
X269660000Y-111960000D03*
X269660000Y-116160000D03*
X269660000Y-120360000D03*
X269660000Y-124560000D03*
X269660000Y-128760000D03*
X269660000Y-132960000D03*
X269660000Y-137160000D03*
X264160000Y-99360000D03*
X264160000Y-103560000D03*
X264160000Y-107760000D03*
X264160000Y-111960000D03*
X264160000Y-116160000D03*
X264160000Y-120360000D03*
X264160000Y-124560000D03*
X264160000Y-128760000D03*
X264160000Y-132960000D03*
G04 #@! TA.AperFunction,ComponentPad*
G36*
G01*
X265559999Y-138510000D02*
X262760001Y-138510000D01*
G75*
G02*
X262510000Y-138259999I0J250001D01*
G01*
X262510000Y-136060001D01*
G75*
G02*
X262760001Y-135810000I250001J0D01*
G01*
X265559999Y-135810000D01*
G75*
G02*
X265810000Y-136060001I0J-250001D01*
G01*
X265810000Y-138259999D01*
G75*
G02*
X265559999Y-138510000I-250001J0D01*
G01*
G37*
G04 #@! TD.AperFunction*
D22*
X271202221Y-193617779D03*
X269240000Y-192805000D03*
X267277779Y-193617779D03*
X266465000Y-195580000D03*
X267277779Y-197542221D03*
X269240000Y-198355000D03*
X271202221Y-197542221D03*
X272015000Y-195580000D03*
D23*
X269240000Y-195580000D03*
D22*
X271202221Y-36137779D03*
X269240000Y-35325000D03*
X267277779Y-36137779D03*
X266465000Y-38100000D03*
X267277779Y-40062221D03*
X269240000Y-40875000D03*
X271202221Y-40062221D03*
X272015000Y-38100000D03*
D23*
X269240000Y-38100000D03*
D22*
X198812221Y-193617779D03*
X196850000Y-192805000D03*
X194887779Y-193617779D03*
X194075000Y-195580000D03*
X194887779Y-197542221D03*
X196850000Y-198355000D03*
X198812221Y-197542221D03*
X199625000Y-195580000D03*
D23*
X196850000Y-195580000D03*
D22*
X198812221Y-36137779D03*
X196850000Y-35325000D03*
X194887779Y-36137779D03*
X194075000Y-38100000D03*
X194887779Y-40062221D03*
X196850000Y-40875000D03*
X198812221Y-40062221D03*
X199625000Y-38100000D03*
D23*
X196850000Y-38100000D03*
D22*
X43872221Y-193617779D03*
X41910000Y-192805000D03*
X39947779Y-193617779D03*
X39135000Y-195580000D03*
X39947779Y-197542221D03*
X41910000Y-198355000D03*
X43872221Y-197542221D03*
X44685000Y-195580000D03*
D23*
X41910000Y-195580000D03*
D22*
X66732221Y-36137779D03*
X64770000Y-35325000D03*
X62807779Y-36137779D03*
X61995000Y-38100000D03*
X62807779Y-40062221D03*
X64770000Y-40875000D03*
X66732221Y-40062221D03*
X67545000Y-38100000D03*
D23*
X64770000Y-38100000D03*
D16*
X217170000Y-59690000D03*
X222250000Y-69850000D03*
X224790000Y-69850000D03*
X224790000Y-77470000D03*
X219710000Y-74930000D03*
X219710000Y-82550000D03*
X181610000Y-97790000D03*
X181610000Y-95250000D03*
X181610000Y-92710000D03*
X181610000Y-90170000D03*
X181610000Y-87630000D03*
X181610000Y-85090000D03*
X181610000Y-82550000D03*
X181610000Y-80010000D03*
X181610000Y-77470000D03*
X181610000Y-74930000D03*
X181610000Y-72390000D03*
X181610000Y-69850000D03*
X181610000Y-67310000D03*
X181610000Y-64770000D03*
X181610000Y-62230000D03*
X181610000Y-59690000D03*
X181610000Y-57150000D03*
X181610000Y-54610000D03*
X184150000Y-97790000D03*
X186690000Y-97790000D03*
X189230000Y-97790000D03*
X191770000Y-97790000D03*
X194310000Y-97790000D03*
X196850000Y-97790000D03*
X199390000Y-97790000D03*
X201930000Y-97790000D03*
X204470000Y-97790000D03*
X184150000Y-95250000D03*
X184150000Y-92710000D03*
X184150000Y-90170000D03*
X184150000Y-87630000D03*
X184150000Y-85090000D03*
X184150000Y-82550000D03*
X184150000Y-80010000D03*
X184150000Y-77470000D03*
X184150000Y-74930000D03*
X184150000Y-72390000D03*
X184150000Y-69850000D03*
X184150000Y-67310000D03*
X184150000Y-64770000D03*
X184150000Y-62230000D03*
X184150000Y-59690000D03*
X184150000Y-57150000D03*
X184150000Y-54610000D03*
X186690000Y-95250000D03*
X186690000Y-92710000D03*
X186690000Y-90170000D03*
X186690000Y-87630000D03*
X186690000Y-85090000D03*
X186690000Y-82550000D03*
X186690000Y-80010000D03*
X186690000Y-77470000D03*
X186690000Y-74930000D03*
X186690000Y-72390000D03*
X186690000Y-69850000D03*
X186690000Y-67310000D03*
X186690000Y-64770000D03*
X186690000Y-62230000D03*
X186690000Y-59690000D03*
X186690000Y-57150000D03*
X186690000Y-54610000D03*
X189230000Y-95250000D03*
X189230000Y-92710000D03*
X189230000Y-59690000D03*
X189230000Y-57150000D03*
X189230000Y-54610000D03*
X191770000Y-95250000D03*
X191770000Y-92710000D03*
X191770000Y-59690000D03*
X191770000Y-57150000D03*
X191770000Y-54610000D03*
X194310000Y-95250000D03*
X194310000Y-92710000D03*
X194310000Y-59690000D03*
X194310000Y-57150000D03*
X194310000Y-54610000D03*
X196850000Y-95250000D03*
X196850000Y-92710000D03*
X196850000Y-59690000D03*
X196850000Y-57150000D03*
X196850000Y-54610000D03*
X199390000Y-95250000D03*
X199390000Y-92710000D03*
X199390000Y-59690000D03*
X199390000Y-57150000D03*
X199390000Y-54610000D03*
X201930000Y-95250000D03*
X201930000Y-92710000D03*
X201930000Y-59690000D03*
X201930000Y-57150000D03*
X201930000Y-54610000D03*
X204470000Y-95250000D03*
X204470000Y-92710000D03*
X204470000Y-59690000D03*
X204470000Y-57150000D03*
X204470000Y-54610000D03*
X207010000Y-97790000D03*
X209550000Y-97790000D03*
X212090000Y-97790000D03*
X214630000Y-97790000D03*
X217170000Y-97790000D03*
X219710000Y-97790000D03*
X222250000Y-97790000D03*
X207010000Y-95250000D03*
X207010000Y-92710000D03*
X207010000Y-59690000D03*
X207010000Y-57150000D03*
X207010000Y-54610000D03*
X209550000Y-95250000D03*
X209550000Y-92710000D03*
X209550000Y-59690000D03*
X209550000Y-57150000D03*
X209550000Y-54610000D03*
X212090000Y-95250000D03*
X212090000Y-92710000D03*
X212090000Y-59690000D03*
X212090000Y-57150000D03*
X212090000Y-54610000D03*
X214630000Y-95250000D03*
X214630000Y-92710000D03*
X214630000Y-59690000D03*
X214630000Y-57150000D03*
X214630000Y-54610000D03*
X217170000Y-95250000D03*
X217170000Y-92710000D03*
X217170000Y-57150000D03*
X217170000Y-54610000D03*
X219710000Y-95250000D03*
X219710000Y-92710000D03*
X219710000Y-90170000D03*
X219710000Y-87630000D03*
X219710000Y-85090000D03*
X219710000Y-80010000D03*
X219710000Y-77470000D03*
X219710000Y-72390000D03*
X219710000Y-69850000D03*
X219710000Y-67310000D03*
X219710000Y-64770000D03*
X219710000Y-62230000D03*
X219710000Y-59690000D03*
X219710000Y-57150000D03*
X219710000Y-54610000D03*
X222250000Y-95250000D03*
X222250000Y-92710000D03*
X222250000Y-90170000D03*
X222250000Y-87630000D03*
X222250000Y-85090000D03*
X222250000Y-82550000D03*
X222250000Y-80010000D03*
X222250000Y-77470000D03*
X222250000Y-74930000D03*
X222250000Y-72390000D03*
X222250000Y-67310000D03*
X222250000Y-64770000D03*
X222250000Y-62230000D03*
X222250000Y-59690000D03*
X222250000Y-57150000D03*
X222250000Y-54610000D03*
X224790000Y-95250000D03*
X224790000Y-92710000D03*
X224790000Y-90170000D03*
X224790000Y-87630000D03*
X224790000Y-85090000D03*
X224790000Y-82550000D03*
X224790000Y-80010000D03*
X224790000Y-74930000D03*
X224790000Y-72390000D03*
X224790000Y-67310000D03*
X224790000Y-64770000D03*
X224790000Y-62230000D03*
X224790000Y-59690000D03*
X224790000Y-57150000D03*
X224790000Y-54610000D03*
D24*
X233172000Y-57150000D03*
X216662000Y-79248000D03*
X209042000Y-52070000D03*
X189484000Y-80264000D03*
X201422000Y-90170000D03*
X177546000Y-95758000D03*
X186436000Y-51054000D03*
X227330000Y-70866000D03*
X175006000Y-69850000D03*
X204470000Y-74168000D03*
X180340000Y-107950000D03*
X144750000Y-119250000D03*
X142500000Y-119250000D03*
X140250000Y-119250000D03*
X140250000Y-128000000D03*
X142500000Y-128000000D03*
X131000000Y-122000000D03*
X131000000Y-126000000D03*
X130000000Y-129000000D03*
X132000000Y-131000000D03*
X127000000Y-130000000D03*
X125000000Y-126000000D03*
X124000000Y-125000000D03*
X123000000Y-126000000D03*
X124000000Y-127000000D03*
X119000000Y-126000000D03*
X120000000Y-129000000D03*
X122000000Y-130000000D03*
X118000000Y-131000000D03*
X121000000Y-124000000D03*
X123000000Y-124000000D03*
X124000000Y-122000000D03*
X126000000Y-123000000D03*
X119000000Y-122000000D03*
X120000000Y-119000000D03*
X118000000Y-117000000D03*
X123000000Y-118000000D03*
X126000000Y-121000000D03*
X128000000Y-118000000D03*
X130000000Y-120000000D03*
X132000000Y-117000000D03*
X144750000Y-128000000D03*
X160250000Y-127250000D03*
X160250000Y-125250000D03*
X161750000Y-126250000D03*
X165500000Y-126000000D03*
X113750000Y-114500000D03*
X113750000Y-133500000D03*
X136250000Y-133500000D03*
X136250000Y-114500000D03*
X155500000Y-112500000D03*
X155500000Y-115000000D03*
X155500000Y-117500000D03*
X155500000Y-133500000D03*
X155500000Y-131000000D03*
X128000000Y-123000000D03*
X157480000Y-77470000D03*
X157480000Y-74930000D03*
X157480000Y-71882000D03*
X157480000Y-80518000D03*
X157480000Y-52832000D03*
X157480000Y-61468000D03*
X157480000Y-58420000D03*
X157480000Y-55880000D03*
X157480000Y-93980000D03*
X157480000Y-89535000D03*
X157480000Y-91059000D03*
X157480000Y-96520000D03*
X150114000Y-99568000D03*
X150114000Y-96520000D03*
X150114000Y-93980000D03*
X150114000Y-91059000D03*
X150114000Y-80518000D03*
X150114000Y-77470000D03*
X150114000Y-74930000D03*
X150114000Y-71882000D03*
X150114000Y-61468000D03*
X150114000Y-58420000D03*
X150114000Y-55880000D03*
X150114000Y-52832000D03*
X110500000Y-117000000D03*
X100000000Y-117000000D03*
X89500000Y-117000000D03*
X91000000Y-117000000D03*
X96000000Y-117000000D03*
X93500000Y-131000000D03*
X98500000Y-131000000D03*
X157480000Y-99568000D03*
X157480000Y-101092000D03*
X150114000Y-101092000D03*
X69850000Y-152400000D03*
X68580000Y-152400000D03*
X73025000Y-152400000D03*
X73025000Y-151130000D03*
X72390000Y-147320000D03*
X71120000Y-147320000D03*
X76200000Y-146685000D03*
X64770000Y-146685000D03*
X67945000Y-147320000D03*
X64770000Y-147955000D03*
X64770000Y-149860000D03*
X64770000Y-151130000D03*
X58420000Y-153162000D03*
X56642000Y-154178000D03*
X58420000Y-146050000D03*
X131000000Y-141000000D03*
X126750000Y-148000000D03*
X137500000Y-144250000D03*
X96012000Y-134874000D03*
X89408000Y-134874000D03*
X110490000Y-134874000D03*
X231394000Y-109982000D03*
X153000000Y-91500000D03*
X153000000Y-99000000D03*
X153000000Y-80000000D03*
X153000000Y-72500000D03*
X153000000Y-61000000D03*
X153000000Y-53250000D03*
X259588000Y-100330000D03*
X234950000Y-106426000D03*
X228346000Y-112522000D03*
X216662000Y-75692000D03*
X212598000Y-52070000D03*
X189484000Y-76708000D03*
X204978000Y-90170000D03*
X177546000Y-92202000D03*
X189992000Y-51054000D03*
X227330000Y-66802000D03*
X179070000Y-69850000D03*
X200406000Y-78232000D03*
X70500000Y-157000000D03*
X34750000Y-174000000D03*
X34000000Y-169750000D03*
X33500000Y-183250000D03*
X45500000Y-178750000D03*
X45500000Y-172750000D03*
X144750000Y-130750000D03*
X161925000Y-161290000D03*
X161925000Y-152400000D03*
X170815000Y-145415000D03*
X175895000Y-142875000D03*
X181610000Y-197485000D03*
X158115000Y-153670000D03*
X124000000Y-118000000D03*
X131500000Y-85500000D03*
X124000000Y-119000000D03*
X131500000Y-84500000D03*
X121000000Y-119000000D03*
X131500000Y-80500000D03*
X123000000Y-119000000D03*
X131500000Y-83500000D03*
X122000000Y-119000000D03*
X131500000Y-82500000D03*
X122000000Y-120000000D03*
X131500000Y-81500000D03*
X125000000Y-120000000D03*
X131500000Y-94000000D03*
X127000000Y-119000000D03*
X131500000Y-96000000D03*
X126000000Y-119000000D03*
X131500000Y-95000000D03*
X128000000Y-119000000D03*
X131500000Y-98000000D03*
X128000000Y-120000000D03*
X131500000Y-97000000D03*
X129000000Y-122000000D03*
X128000000Y-122000000D03*
X130000000Y-126000000D03*
X132000000Y-125000000D03*
X131000000Y-128000000D03*
X130000000Y-130000000D03*
X127000000Y-128000000D03*
X122000000Y-126000000D03*
X125000000Y-127000000D03*
X121000000Y-126000000D03*
X119000000Y-128000000D03*
X120000000Y-130000000D03*
X124000000Y-130000000D03*
X124000000Y-129000000D03*
X119000000Y-124000000D03*
X122000000Y-124000000D03*
X120000000Y-122000000D03*
X119000000Y-119000000D03*
X121000000Y-120000000D03*
X121000000Y-118000000D03*
X123000000Y-120000000D03*
X124000000Y-121000000D03*
X126000000Y-120000000D03*
X126000000Y-118000000D03*
X131000000Y-120000000D03*
X130000000Y-118000000D03*
X127000000Y-122000000D03*
X160250000Y-122750000D03*
X160250000Y-120750000D03*
X161750000Y-121750000D03*
X165500000Y-122000000D03*
X112500000Y-113250000D03*
X112500000Y-134750000D03*
X137500000Y-134750000D03*
X137500000Y-113250000D03*
X150500000Y-117500000D03*
X150500000Y-115000000D03*
X150500000Y-112500000D03*
X150500000Y-131000000D03*
X150500000Y-133500000D03*
X127000000Y-124000000D03*
X154686000Y-78994000D03*
X154686000Y-73406000D03*
X150114000Y-78994000D03*
X150114000Y-73406000D03*
X154686000Y-54356000D03*
X150114000Y-54356000D03*
X154686000Y-59944000D03*
X150114000Y-59944000D03*
X150114000Y-92456000D03*
X154686000Y-92456000D03*
X154686000Y-98044000D03*
X150114000Y-98044000D03*
X150114000Y-89535000D03*
X93500000Y-117000000D03*
X98500000Y-117000000D03*
X110500000Y-131000000D03*
X89500000Y-131000000D03*
X91000000Y-131000000D03*
X96000000Y-131000000D03*
X100000000Y-131000000D03*
X127500000Y-132500000D03*
X111760000Y-131445000D03*
X108585000Y-132715000D03*
X63500000Y-156845000D03*
X67945000Y-155575000D03*
X60325000Y-156845000D03*
X76835000Y-147320000D03*
X73660000Y-144145000D03*
X67945000Y-148590000D03*
X67945000Y-149860000D03*
X128000000Y-138000000D03*
X135000000Y-144250000D03*
X125730000Y-147828000D03*
X132588000Y-149606000D03*
X231902000Y-112014000D03*
X151500000Y-91500000D03*
X151500000Y-99000000D03*
X151545500Y-80000000D03*
X151545500Y-72500000D03*
X151545500Y-61000000D03*
X151545500Y-53250000D03*
X135500000Y-149500000D03*
X34750000Y-176250000D03*
X46500000Y-67000000D03*
X46500000Y-61250000D03*
X147250000Y-130750000D03*
X132250000Y-134750000D03*
X149225000Y-149860000D03*
X158115000Y-157480000D03*
X174625000Y-146685000D03*
X149225000Y-153035000D03*
X140250000Y-123000000D03*
X140250000Y-124000000D03*
X142500000Y-124000000D03*
X142500000Y-123000000D03*
X144750000Y-123000000D03*
X125000000Y-123000000D03*
X124000000Y-123000000D03*
X124000000Y-124000000D03*
X125000000Y-124000000D03*
X126000000Y-124000000D03*
X125000000Y-125000000D03*
X126000000Y-125000000D03*
X127000000Y-126000000D03*
X144750000Y-124000000D03*
X150250000Y-121750000D03*
X150250000Y-122500000D03*
X150250000Y-123250000D03*
X150250000Y-124000000D03*
X150250000Y-124750000D03*
X150250000Y-125500000D03*
X150250000Y-126250000D03*
X157500000Y-126250000D03*
X157500000Y-125500000D03*
X157500000Y-124750000D03*
X157500000Y-124000000D03*
X157500000Y-123250000D03*
X157500000Y-122500000D03*
X157500000Y-121750000D03*
X119500000Y-132500000D03*
X125730000Y-144145000D03*
X118110000Y-132715000D03*
X119000000Y-130000000D03*
X129000000Y-130000000D03*
X130000000Y-121000000D03*
X131000000Y-118000000D03*
X129000000Y-119000000D03*
X189865000Y-64770000D03*
X190500000Y-64135008D03*
X191135000Y-63500000D03*
X165100000Y-82550000D03*
X175260000Y-96520000D03*
X175260000Y-91440000D03*
X166116000Y-82550000D03*
X165608000Y-83820000D03*
X175260000Y-93980000D03*
X167132000Y-82550000D03*
X166624000Y-83820000D03*
X125000000Y-119000000D03*
X131500000Y-87500000D03*
X124000000Y-120000000D03*
X131500000Y-86500000D03*
X120000000Y-124000000D03*
X93500000Y-123000000D03*
X120000000Y-123000000D03*
X94500000Y-122500000D03*
X122000000Y-122000000D03*
X95500000Y-122000000D03*
X121000000Y-122000000D03*
X96500000Y-121500000D03*
X120000000Y-121000000D03*
X97500000Y-121000000D03*
X121000000Y-121000000D03*
X98500000Y-120500000D03*
X119000000Y-120000000D03*
X99500000Y-120000000D03*
X120000000Y-120000000D03*
X100500000Y-119500000D03*
X121000000Y-128000000D03*
X100000000Y-128500000D03*
X120000000Y-128000000D03*
X98999980Y-128000000D03*
X120000000Y-127000000D03*
X98000000Y-127500000D03*
X121000000Y-127000000D03*
X97000000Y-127000000D03*
X120000000Y-126000000D03*
X96000000Y-126500000D03*
X120000000Y-125000000D03*
X95000000Y-126000000D03*
X121000000Y-125000000D03*
X94000000Y-125500000D03*
X118000000Y-124000000D03*
X93000000Y-125000000D03*
X168656000Y-97282000D03*
X167640000Y-97028000D03*
X164846000Y-96012000D03*
X162560000Y-95504000D03*
X126000000Y-128000000D03*
X125750000Y-142750000D03*
X126000000Y-129000000D03*
X124500000Y-143250000D03*
X122000000Y-129000000D03*
X122250000Y-141000000D03*
X123000000Y-129000000D03*
X123500000Y-140500000D03*
X123000000Y-128000000D03*
X123000000Y-141750000D03*
X124000000Y-128000000D03*
X124250000Y-141250000D03*
X125000000Y-130000000D03*
X123750000Y-142500000D03*
X125000000Y-129000000D03*
X125000000Y-142000000D03*
X122000000Y-128000000D03*
X122750000Y-139750000D03*
X230378000Y-106680000D03*
X230886000Y-105156000D03*
X129000000Y-129000000D03*
X89750000Y-138000000D03*
X121250000Y-150500000D03*
X128000000Y-128000000D03*
X89750000Y-137000000D03*
X127000000Y-127000000D03*
X89750000Y-136000000D03*
X120250000Y-151000006D03*
X121250000Y-151500000D03*
X120250000Y-152000000D03*
X121250000Y-152500000D03*
X120250000Y-153000000D03*
X130000000Y-122000000D03*
X129000000Y-121000000D03*
X130000000Y-127000000D03*
X158115000Y-147955000D03*
X129000000Y-127000000D03*
X156210136Y-147320000D03*
X250825000Y-104775000D03*
D25*
X216662000Y-78245000D02*
X216662000Y-79248000D01*
X210045000Y-52070000D02*
X209042000Y-52070000D01*
X189484000Y-79261000D02*
X189484000Y-80264000D01*
X202425000Y-90170000D02*
X201422000Y-90170000D01*
X177546000Y-94755000D02*
X177546000Y-95758000D01*
X187439000Y-51054000D02*
X186436000Y-51054000D01*
X227330000Y-69784000D02*
X227330000Y-70866000D01*
X176088000Y-69850000D02*
X175006000Y-69850000D01*
X203480983Y-75157017D02*
X204470000Y-74168000D01*
D26*
X180340000Y-121920000D02*
X180340000Y-107950000D01*
D25*
X131000000Y-125270000D02*
X130980000Y-125250000D01*
X131000000Y-126000000D02*
X131000000Y-125270000D01*
X130730000Y-129000000D02*
X130750000Y-129020000D01*
X130000000Y-129000000D02*
X130730000Y-129000000D01*
X123000000Y-126730000D02*
X122980000Y-126750000D01*
X123000000Y-126000000D02*
X123000000Y-126730000D01*
X120730000Y-129000000D02*
X120750000Y-129020000D01*
X120000000Y-129000000D02*
X120730000Y-129000000D01*
X121000000Y-123270000D02*
X121020000Y-123250000D01*
X121000000Y-124000000D02*
X121000000Y-123270000D01*
X126000000Y-122270000D02*
X125980000Y-122250000D01*
X126000000Y-123000000D02*
X126000000Y-122270000D01*
X120000000Y-118270000D02*
X119980000Y-118250000D01*
X120000000Y-119000000D02*
X120000000Y-118270000D01*
X126730000Y-121000000D02*
X126750000Y-120980000D01*
X126000000Y-121000000D02*
X126730000Y-121000000D01*
X130000000Y-119270000D02*
X130020000Y-119250000D01*
X130000000Y-120000000D02*
X130000000Y-119270000D01*
X128578249Y-123578249D02*
X128000000Y-123000000D01*
X128921751Y-123578249D02*
X128578249Y-123578249D01*
X136730000Y-144250000D02*
X137500000Y-144250000D01*
X75478008Y-145963008D02*
X76200000Y-146685000D01*
X75478008Y-145836008D02*
X75478008Y-145963008D01*
X68834000Y-152654000D02*
X68580000Y-152400000D01*
X68834000Y-153403000D02*
X68834000Y-152654000D01*
X68212000Y-147053000D02*
X67945000Y-147320000D01*
X68834000Y-147053000D02*
X68212000Y-147053000D01*
X153025000Y-91525000D02*
X153000000Y-91500000D01*
X153025000Y-92500000D02*
X153025000Y-91525000D01*
X153025000Y-98975000D02*
X153000000Y-99000000D01*
X153025000Y-98000000D02*
X153025000Y-98975000D01*
X153025000Y-79975000D02*
X153000000Y-80000000D01*
X153025000Y-79000000D02*
X153025000Y-79975000D01*
X153025000Y-72525000D02*
X153000000Y-72500000D01*
X153025000Y-73500000D02*
X153025000Y-72525000D01*
X153025000Y-60975000D02*
X153000000Y-61000000D01*
X153025000Y-60000000D02*
X153025000Y-60975000D01*
X153025000Y-53275000D02*
X153000000Y-53250000D01*
X153025000Y-54250000D02*
X153025000Y-53275000D01*
X216662000Y-76695000D02*
X216662000Y-75692000D01*
X211595000Y-52070000D02*
X212598000Y-52070000D01*
X189484000Y-77711000D02*
X189484000Y-76708000D01*
X203975000Y-90170000D02*
X204978000Y-90170000D01*
X177546000Y-93205000D02*
X177546000Y-92202000D01*
X188989000Y-51054000D02*
X189992000Y-51054000D01*
X227330000Y-67884000D02*
X227330000Y-66802000D01*
X177988000Y-69850000D02*
X179070000Y-69850000D01*
X201395017Y-77242983D02*
X200406000Y-78232000D01*
X145520000Y-130750000D02*
X144750000Y-130750000D01*
X35235000Y-174485000D02*
X34750000Y-174000000D01*
X36195000Y-174485000D02*
X35235000Y-174485000D01*
X175260000Y-143510000D02*
X175895000Y-142875000D01*
X175260000Y-144005000D02*
X175260000Y-143510000D01*
X158115000Y-154660000D02*
X158115000Y-153670000D01*
D27*
X124000000Y-118000000D02*
X124000000Y-115000000D01*
X124000000Y-93000000D02*
X131500000Y-85500000D01*
X124000000Y-115000000D02*
X124000000Y-93000000D01*
X124000000Y-119000000D02*
X123500000Y-118500000D01*
X123500000Y-118500000D02*
X123500000Y-115000000D01*
X123500000Y-92500000D02*
X131500000Y-84500000D01*
X123500000Y-115000000D02*
X123500000Y-92500000D01*
X121000000Y-119000000D02*
X120500000Y-118500000D01*
X120500000Y-118500000D02*
X120500000Y-115000000D01*
X120500000Y-91500000D02*
X131500000Y-80500000D01*
X120500000Y-115000000D02*
X120500000Y-91500000D01*
X123000000Y-119000000D02*
X122500000Y-118500000D01*
X122500000Y-118500000D02*
X122500000Y-115000000D01*
X122500000Y-92500000D02*
X131500000Y-83500000D01*
X122500000Y-115000000D02*
X122500000Y-92500000D01*
X122000000Y-119000000D02*
X122000000Y-115000000D01*
X122000000Y-92000000D02*
X131500000Y-82500000D01*
X122000000Y-115000000D02*
X122000000Y-92000000D01*
X122000000Y-120000000D02*
X121500000Y-119500000D01*
X121500000Y-119500000D02*
X121500000Y-115000000D01*
X121500000Y-91500000D02*
X131500000Y-81500000D01*
X121500000Y-115000000D02*
X121500000Y-91500000D01*
X125000000Y-120000000D02*
X125500000Y-119500000D01*
X125500000Y-119500000D02*
X125500000Y-115000000D01*
X125500000Y-100000000D02*
X131500000Y-94000000D01*
X125500000Y-115000000D02*
X125500000Y-100000000D01*
X127000000Y-119000000D02*
X127000000Y-115000000D01*
X127000000Y-100500000D02*
X131500000Y-96000000D01*
X127000000Y-115000000D02*
X127000000Y-100500000D01*
X126000000Y-119000000D02*
X126500000Y-118500000D01*
X126500000Y-118500000D02*
X126500000Y-115000000D01*
X126500000Y-100000000D02*
X131500000Y-95000000D01*
X126500000Y-115000000D02*
X126500000Y-100000000D01*
X128000000Y-119000000D02*
X128500000Y-118500000D01*
X128500000Y-118500000D02*
X128500000Y-115000000D01*
X128500000Y-101000000D02*
X131500000Y-98000000D01*
X128500000Y-115000000D02*
X128500000Y-101000000D01*
X128000000Y-120000000D02*
X127500000Y-119500000D01*
X127500000Y-119500000D02*
X127500000Y-115000000D01*
X127500000Y-101000000D02*
X131500000Y-97000000D01*
X127500000Y-115000000D02*
X127500000Y-101000000D01*
D25*
X130000000Y-125270000D02*
X130020000Y-125250000D01*
X130000000Y-126000000D02*
X130000000Y-125270000D01*
X130730000Y-130000000D02*
X130750000Y-129980000D01*
X130000000Y-130000000D02*
X130730000Y-130000000D01*
X122000000Y-126730000D02*
X122020000Y-126750000D01*
X122000000Y-126000000D02*
X122000000Y-126730000D01*
X120730000Y-130000000D02*
X120750000Y-129980000D01*
X120000000Y-130000000D02*
X120730000Y-130000000D01*
X122000000Y-123270000D02*
X121980000Y-123250000D01*
X122000000Y-124000000D02*
X122000000Y-123270000D01*
X119000000Y-118270000D02*
X119020000Y-118250000D01*
X119000000Y-119000000D02*
X119000000Y-118270000D01*
X126730000Y-120000000D02*
X126750000Y-120020000D01*
X126000000Y-120000000D02*
X126730000Y-120000000D01*
X131000000Y-119270000D02*
X130980000Y-119250000D01*
X131000000Y-120000000D02*
X131000000Y-119270000D01*
X127578249Y-124578249D02*
X127000000Y-124000000D01*
X127578249Y-124921751D02*
X127578249Y-124578249D01*
D27*
X112840000Y-131445000D02*
X111760000Y-131445000D01*
X109665000Y-132715000D02*
X108585000Y-132715000D01*
D25*
X135770000Y-144250000D02*
X135000000Y-144250000D01*
X74254992Y-144739992D02*
X73660000Y-144145000D01*
X74381992Y-144739992D02*
X74254992Y-144739992D01*
X68567000Y-154953000D02*
X67945000Y-155575000D01*
X68834000Y-154953000D02*
X68567000Y-154953000D01*
X67958000Y-148603000D02*
X67945000Y-148590000D01*
X68834000Y-148603000D02*
X67958000Y-148603000D01*
X151475000Y-91525000D02*
X151500000Y-91500000D01*
X151475000Y-92500000D02*
X151475000Y-91525000D01*
X151475000Y-98975000D02*
X151500000Y-99000000D01*
X151475000Y-98000000D02*
X151475000Y-98975000D01*
X151475000Y-79929500D02*
X151545500Y-80000000D01*
X151475000Y-79000000D02*
X151475000Y-79929500D01*
X151475000Y-72570500D02*
X151545500Y-72500000D01*
X151475000Y-73500000D02*
X151475000Y-72570500D01*
X151475000Y-60929500D02*
X151545500Y-61000000D01*
X151475000Y-60000000D02*
X151475000Y-60929500D01*
X151475000Y-53320500D02*
X151545500Y-53250000D01*
X151475000Y-54250000D02*
X151475000Y-53320500D01*
X146480000Y-130750000D02*
X147250000Y-130750000D01*
X132250000Y-133825000D02*
X132250000Y-134750000D01*
X34965000Y-176035000D02*
X34750000Y-176250000D01*
X36195000Y-176035000D02*
X34965000Y-176035000D01*
X175260000Y-146050000D02*
X174625000Y-146685000D01*
X175260000Y-145555000D02*
X175260000Y-146050000D01*
X158115000Y-157480000D02*
X158115000Y-156210000D01*
D27*
X241300000Y-113030000D02*
X241300000Y-110490000D01*
X241300000Y-110490000D02*
X245110000Y-106680000D01*
X245110000Y-106680000D02*
X247650000Y-106680000D01*
X247650000Y-106680000D02*
X250190000Y-104140000D01*
X250190000Y-104140000D02*
X254000000Y-100330000D01*
D25*
X125000000Y-122270000D02*
X125020000Y-122250000D01*
X125000000Y-123000000D02*
X125000000Y-122270000D01*
D27*
X119500000Y-132500000D02*
X119500000Y-140455000D01*
X123190000Y-144145000D02*
X125730000Y-144145000D01*
X119500000Y-140455000D02*
X123190000Y-144145000D01*
X118110000Y-132715000D02*
X111315000Y-132715000D01*
X119000000Y-130000000D02*
X117650000Y-130000000D01*
X116205000Y-131445000D02*
X114490000Y-131445000D01*
X117650000Y-130000000D02*
X116205000Y-131445000D01*
X130175000Y-132175000D02*
X132250000Y-132175000D01*
X129000000Y-131000000D02*
X130175000Y-132175000D01*
X129000000Y-130000000D02*
X129000000Y-131000000D01*
X130500000Y-112070000D02*
X136398000Y-106172000D01*
X130500000Y-120500000D02*
X130500000Y-112070000D01*
X130000000Y-121000000D02*
X130500000Y-120500000D01*
X131000000Y-114110000D02*
X136398000Y-108712000D01*
X131000000Y-118000000D02*
X131000000Y-114110000D01*
X129000000Y-111030000D02*
X136398000Y-103632000D01*
X129000000Y-119000000D02*
X129000000Y-111030000D01*
X188595000Y-63500000D02*
X189865000Y-64770000D01*
X181610000Y-62230000D02*
X182880000Y-63500000D01*
X182880000Y-63500000D02*
X188595000Y-63500000D01*
X182880000Y-60960000D02*
X187324992Y-60960000D01*
X181610000Y-59690000D02*
X182880000Y-60960000D01*
X187324992Y-60960000D02*
X190500000Y-64135008D01*
X187960000Y-60325000D02*
X191135000Y-63500000D01*
X187960000Y-59055000D02*
X187960000Y-60325000D01*
X187198000Y-58293000D02*
X187960000Y-59055000D01*
X182753000Y-58293000D02*
X187198000Y-58293000D01*
X181610000Y-57150000D02*
X182753000Y-58293000D01*
X181610000Y-54610000D02*
X183896000Y-52324000D01*
X199644000Y-52324000D02*
X201930000Y-54610000D01*
X183896000Y-52324000D02*
X199644000Y-52324000D01*
X184150000Y-54610000D02*
X185928000Y-52832000D01*
X197612000Y-52832000D02*
X199390000Y-54610000D01*
X185928000Y-52832000D02*
X197612000Y-52832000D01*
X186690000Y-54610000D02*
X187960000Y-53340000D01*
X195580000Y-53340000D02*
X196850000Y-54610000D01*
X187960000Y-53340000D02*
X195580000Y-53340000D01*
X212090000Y-59690000D02*
X205994000Y-65786000D01*
X205994000Y-65786000D02*
X179070000Y-65786000D01*
X179070000Y-65786000D02*
X168656000Y-65786000D01*
X165100000Y-69342000D02*
X165100000Y-82550000D01*
X168656000Y-65786000D02*
X165100000Y-69342000D01*
X214630000Y-95250000D02*
X213360000Y-96520000D01*
X213360000Y-96520000D02*
X175260000Y-96520000D01*
X214630000Y-92710000D02*
X213360000Y-91440000D01*
X213360000Y-91440000D02*
X175260000Y-91440000D01*
X214630000Y-59690000D02*
X205994000Y-68326000D01*
X205994000Y-68326000D02*
X179070000Y-68326000D01*
X179070000Y-68326000D02*
X167640000Y-68326000D01*
X167640000Y-68326000D02*
X166116000Y-69850000D01*
X166116000Y-69850000D02*
X166116000Y-82550000D01*
X165608000Y-69596000D02*
X165608000Y-83820000D01*
X207518000Y-66040000D02*
X169164000Y-66040000D01*
X213360000Y-58420000D02*
X213360000Y-60198000D01*
X169164000Y-66040000D02*
X165608000Y-69596000D01*
X213360000Y-60198000D02*
X207518000Y-66040000D01*
X214630000Y-57150000D02*
X213360000Y-58420000D01*
X219710000Y-92710000D02*
X218440000Y-93980000D01*
X218440000Y-93980000D02*
X175260000Y-93980000D01*
X219710000Y-62230000D02*
X211074000Y-70866000D01*
X211074000Y-70866000D02*
X179070000Y-70866000D01*
X179070000Y-70866000D02*
X169926000Y-70866000D01*
X167132000Y-73660000D02*
X167132000Y-82550000D01*
X169926000Y-70866000D02*
X167132000Y-73660000D01*
X219710000Y-59690000D02*
X210820000Y-68580000D01*
X210820000Y-68580000D02*
X179070000Y-68580000D01*
X179070000Y-68580000D02*
X168148000Y-68580000D01*
X168148000Y-68580000D02*
X166624000Y-70104000D01*
X166624000Y-70104000D02*
X166624000Y-83820000D01*
X125000000Y-119000000D02*
X125000000Y-115000000D01*
X125000000Y-94000000D02*
X131500000Y-87500000D01*
X125000000Y-115000000D02*
X125000000Y-94000000D01*
X124000000Y-120000000D02*
X124500000Y-119500000D01*
X124500000Y-119500000D02*
X124500000Y-115000000D01*
X124500000Y-93500000D02*
X131500000Y-86500000D01*
X124500000Y-115000000D02*
X124500000Y-93500000D01*
X94000000Y-123500000D02*
X93500000Y-123000000D01*
X119500000Y-123500000D02*
X94000000Y-123500000D01*
X120000000Y-124000000D02*
X119500000Y-123500000D01*
X120000000Y-123000000D02*
X95000000Y-123000000D01*
X95000000Y-123000000D02*
X94500000Y-122500000D01*
X122000000Y-122000000D02*
X121500000Y-122500000D01*
X121500000Y-122500000D02*
X96000000Y-122500000D01*
X96000000Y-122500000D02*
X95500000Y-122000000D01*
X121000000Y-122000000D02*
X120500000Y-121500000D01*
X120500000Y-121500000D02*
X116000000Y-121500000D01*
X116000000Y-121500000D02*
X96500000Y-121500000D01*
X120000000Y-121000000D02*
X116000000Y-121000000D01*
X116000000Y-121000000D02*
X97500000Y-121000000D01*
X121000000Y-121000000D02*
X120500000Y-120500000D01*
X120500000Y-120500000D02*
X116000000Y-120500000D01*
X116000000Y-120500000D02*
X98500000Y-120500000D01*
X119000000Y-120000000D02*
X116000000Y-120000000D01*
X116000000Y-120000000D02*
X99500000Y-120000000D01*
X120000000Y-120000000D02*
X119500000Y-119500000D01*
X119500000Y-119500000D02*
X116000000Y-119500000D01*
X116000000Y-119500000D02*
X100500000Y-119500000D01*
X121000000Y-128000000D02*
X120500000Y-128500000D01*
X120500000Y-128500000D02*
X116000000Y-128500000D01*
X116000000Y-128500000D02*
X100000000Y-128500000D01*
X118000000Y-128000000D02*
X98999980Y-128000000D01*
X118500000Y-127500000D02*
X118000000Y-128000000D01*
X119500000Y-127500000D02*
X118500000Y-127500000D01*
X120000000Y-128000000D02*
X119500000Y-127500000D01*
X120000000Y-127000000D02*
X98500000Y-127000000D01*
X98500000Y-127000000D02*
X98000000Y-127500000D01*
X97500000Y-126500000D02*
X97000000Y-127000000D01*
X120500000Y-126500000D02*
X97500000Y-126500000D01*
X121000000Y-127000000D02*
X120500000Y-126500000D01*
X120000000Y-126000000D02*
X119500000Y-125500000D01*
X119500000Y-125500000D02*
X97000000Y-125500000D01*
X97000000Y-125500000D02*
X96000000Y-126500000D01*
X96000000Y-125000000D02*
X95000000Y-126000000D01*
X120000000Y-125000000D02*
X96000000Y-125000000D01*
X121000000Y-125000000D02*
X120500000Y-124500000D01*
X120500000Y-124500000D02*
X95000000Y-124500000D01*
X95000000Y-124500000D02*
X94000000Y-125500000D01*
X94000000Y-124000000D02*
X93000000Y-125000000D01*
X118000000Y-124000000D02*
X94000000Y-124000000D01*
X224790000Y-92710000D02*
X223520000Y-91440000D01*
X223520000Y-91440000D02*
X223520000Y-89662000D01*
X223520000Y-89662000D02*
X222758000Y-88900000D01*
X222758000Y-88900000D02*
X177038000Y-88900000D01*
X177038000Y-88900000D02*
X168656000Y-97282000D01*
X224790000Y-87630000D02*
X223520000Y-86360000D01*
X178308000Y-86360000D02*
X167640000Y-97028000D01*
X223520000Y-86360000D02*
X178308000Y-86360000D01*
X224790000Y-85090000D02*
X223520000Y-83820000D01*
X177038000Y-83820000D02*
X164846000Y-96012000D01*
X223520000Y-83820000D02*
X177038000Y-83820000D01*
X216259224Y-66040000D02*
X211179224Y-71120000D01*
X224790000Y-64770000D02*
X223520000Y-66040000D01*
X167640000Y-83820000D02*
X167640000Y-90424000D01*
X223520000Y-66040000D02*
X218440000Y-66040000D01*
X218440000Y-66040000D02*
X216259224Y-66040000D01*
X211179224Y-71120000D02*
X179070000Y-71120000D01*
X167640000Y-73914000D02*
X167640000Y-83820000D01*
X179070000Y-71120000D02*
X170434000Y-71120000D01*
X170434000Y-71120000D02*
X167640000Y-73914000D01*
X167640000Y-90424000D02*
X162560000Y-95504000D01*
X126000000Y-128000000D02*
X126500000Y-128500000D01*
X126500000Y-128500000D02*
X126500000Y-137500000D01*
X127500000Y-141000000D02*
X125750000Y-142750000D01*
X126500000Y-137500000D02*
X127500000Y-138500000D01*
X127500000Y-138500000D02*
X127500000Y-141000000D01*
X126000000Y-129000000D02*
X126000000Y-133000000D01*
X126000000Y-133000000D02*
X126000000Y-137500000D01*
X126000000Y-137500000D02*
X127000000Y-138500000D01*
X127000000Y-138500000D02*
X127000000Y-140750000D01*
X127000000Y-140750000D02*
X124500000Y-143250000D01*
X122000000Y-129000000D02*
X122500000Y-129500000D01*
X122500000Y-129500000D02*
X122500000Y-133000000D01*
X122500000Y-133000000D02*
X122500000Y-137000000D01*
X122500000Y-137000000D02*
X124000000Y-138500000D01*
X124000000Y-138500000D02*
X124000000Y-139250000D01*
X124000000Y-139250000D02*
X122250000Y-141000000D01*
X123000000Y-129000000D02*
X123000000Y-133000000D01*
X123000000Y-137000000D02*
X124500000Y-138500000D01*
X123000000Y-133000000D02*
X123000000Y-137000000D01*
X124500000Y-138500000D02*
X124500000Y-139500000D01*
X124500000Y-139500000D02*
X123500000Y-140500000D01*
X123000000Y-128000000D02*
X123500000Y-128500000D01*
X123500000Y-128500000D02*
X123500000Y-133000000D01*
X123500000Y-133000000D02*
X123500000Y-137000000D01*
X123500000Y-137000000D02*
X125000000Y-138500000D01*
X125000000Y-138500000D02*
X125000000Y-139750000D01*
X125000000Y-139750000D02*
X123000000Y-141750000D01*
X124000000Y-128000000D02*
X124500000Y-128500000D01*
X124500000Y-128500000D02*
X124500000Y-133000000D01*
X124500000Y-137500000D02*
X125500000Y-138500000D01*
X124500000Y-133000000D02*
X124500000Y-137500000D01*
X125500000Y-138500000D02*
X125500000Y-140000000D01*
X125500000Y-140000000D02*
X124250000Y-141250000D01*
X125000000Y-130000000D02*
X125000000Y-133000000D01*
X125000000Y-133000000D02*
X125000000Y-137500000D01*
X125000000Y-137500000D02*
X126000000Y-138500000D01*
X126000000Y-138500000D02*
X126000000Y-140250000D01*
X126000000Y-140250000D02*
X123750000Y-142500000D01*
X125000000Y-129000000D02*
X125500000Y-129500000D01*
X125500000Y-129500000D02*
X125500000Y-133000000D01*
X125500000Y-133000000D02*
X125500000Y-137500000D01*
X125500000Y-137500000D02*
X126500000Y-138500000D01*
X126500000Y-138500000D02*
X126500000Y-140500000D01*
X126500000Y-140500000D02*
X125000000Y-142000000D01*
X122000000Y-128000000D02*
X121500000Y-128500000D01*
X121500000Y-128500000D02*
X121500000Y-133000000D01*
X121500000Y-133000000D02*
X121500000Y-136500000D01*
X121500000Y-136500000D02*
X123500000Y-138500000D01*
X123500000Y-138500000D02*
X123500000Y-139000000D01*
X123500000Y-139000000D02*
X122750000Y-139750000D01*
X226060000Y-140970000D02*
X246380000Y-120650000D01*
X226060000Y-194310000D02*
X226060000Y-140970000D01*
X231648000Y-105410000D02*
X246380000Y-105410000D01*
X230378000Y-106680000D02*
X231648000Y-105410000D01*
X233172000Y-102870000D02*
X246380000Y-102870000D01*
X230886000Y-105156000D02*
X233172000Y-102870000D01*
X233680000Y-143510000D02*
X254000000Y-123190000D01*
X233680000Y-194310000D02*
X233680000Y-143510000D01*
D28*
X129000000Y-129000000D02*
X128500000Y-129500000D01*
X128500000Y-129500000D02*
X128500000Y-131750000D01*
X128750000Y-132000000D02*
X128750000Y-133740000D01*
X128500000Y-131750000D02*
X128750000Y-132000000D01*
X98000000Y-146250000D02*
X89750000Y-138000000D01*
X130000000Y-146250000D02*
X98000000Y-146250000D01*
X133000000Y-143250000D02*
X130000000Y-146250000D01*
X133000000Y-140000000D02*
X133000000Y-143250000D01*
X128750000Y-135750000D02*
X133000000Y-140000000D01*
X128750000Y-134760000D02*
X128750000Y-135750000D01*
X41720000Y-99250000D02*
X39370000Y-101600000D01*
X48250000Y-109750000D02*
X48250000Y-100500000D01*
X76750000Y-138250000D02*
X48250000Y-109750000D01*
X47000000Y-99250000D02*
X41720000Y-99250000D01*
X87250000Y-138250000D02*
X76750000Y-138250000D01*
X48250000Y-100500000D02*
X47000000Y-99250000D01*
X99500000Y-150500000D02*
X87250000Y-138250000D01*
X121250000Y-150500000D02*
X99500000Y-150500000D01*
D27*
X129750000Y-145500000D02*
X98250000Y-145500000D01*
X132250000Y-140250000D02*
X132250000Y-143000000D01*
X128000000Y-136000000D02*
X132250000Y-140250000D01*
X98250000Y-145500000D02*
X90250000Y-137500000D01*
X132250000Y-143000000D02*
X129750000Y-145500000D01*
X128000000Y-128000000D02*
X128000000Y-136000000D01*
X90250000Y-137500000D02*
X89750000Y-137000000D01*
X129500000Y-144750000D02*
X98500000Y-144750000D01*
X131500000Y-142750000D02*
X129500000Y-144750000D01*
X131500000Y-140500000D02*
X131500000Y-142750000D01*
X127000000Y-136000000D02*
X131500000Y-140500000D01*
X127500000Y-130500000D02*
X127000000Y-131000000D01*
X127500000Y-127500000D02*
X127500000Y-130500000D01*
X98500000Y-144750000D02*
X90750000Y-137000000D01*
X127000000Y-131000000D02*
X127000000Y-136000000D01*
X127000000Y-127000000D02*
X127500000Y-127500000D01*
X90750000Y-137000000D02*
X89750000Y-136000000D01*
X45750000Y-110000000D02*
X45750000Y-102900000D01*
X46500000Y-110750000D02*
X45750000Y-110000000D01*
X48508018Y-110750000D02*
X46500000Y-110750000D01*
X45750000Y-102900000D02*
X44450000Y-101600000D01*
X76504009Y-138745991D02*
X48508018Y-110750000D01*
X86995991Y-138745991D02*
X76504009Y-138745991D01*
X99250006Y-151000006D02*
X86995991Y-138745991D01*
X120250000Y-151000006D02*
X99250006Y-151000006D01*
X44000000Y-111500000D02*
X43250000Y-110750000D01*
X76250000Y-139250000D02*
X48500000Y-111500000D01*
X43250000Y-110750000D02*
X43250000Y-102940000D01*
X86750000Y-139250000D02*
X76250000Y-139250000D01*
X43250000Y-102940000D02*
X41910000Y-101600000D01*
X48500000Y-111500000D02*
X44000000Y-111500000D01*
X99000000Y-151500000D02*
X86750000Y-139250000D01*
X121250000Y-151500000D02*
X99000000Y-151500000D01*
X36750000Y-107500000D02*
X36750000Y-101680000D01*
X41500000Y-112250000D02*
X36750000Y-107500000D01*
X48500000Y-112250000D02*
X41500000Y-112250000D01*
X76000000Y-139750000D02*
X48500000Y-112250000D01*
X36750000Y-101680000D02*
X36830000Y-101600000D01*
X86500000Y-139750000D02*
X76000000Y-139750000D01*
X98750000Y-152000000D02*
X86500000Y-139750000D01*
X120250000Y-152000000D02*
X98750000Y-152000000D01*
X35250000Y-93250000D02*
X44450000Y-84050000D01*
X35250000Y-107000000D02*
X35250000Y-93250000D01*
X44450000Y-84050000D02*
X44450000Y-80010000D01*
X41250000Y-113000000D02*
X35250000Y-107000000D01*
X48500000Y-113000000D02*
X41250000Y-113000000D01*
X75750000Y-140250000D02*
X48500000Y-113000000D01*
X86250000Y-140250000D02*
X75750000Y-140250000D01*
X98500000Y-152500000D02*
X86250000Y-140250000D01*
X121250000Y-152500000D02*
X98500000Y-152500000D01*
X39370000Y-84130000D02*
X39370000Y-80010000D01*
X34500000Y-89000000D02*
X39370000Y-84130000D01*
X41000000Y-113500000D02*
X34500000Y-107000000D01*
X34500000Y-107000000D02*
X34500000Y-89000000D01*
X48250000Y-113500000D02*
X41000000Y-113500000D01*
X86000000Y-140750000D02*
X75500000Y-140750000D01*
X75500000Y-140750000D02*
X48250000Y-113500000D01*
X98250000Y-153000000D02*
X86000000Y-140750000D01*
X120250000Y-153000000D02*
X98250000Y-153000000D01*
X139000000Y-78500000D02*
X122750000Y-62250000D01*
X139000000Y-115000000D02*
X139000000Y-78500000D01*
X122750000Y-62250000D02*
X39200000Y-62250000D01*
X131500000Y-122500000D02*
X139000000Y-115000000D01*
X130500000Y-122500000D02*
X131500000Y-122500000D01*
X130000000Y-122000000D02*
X130500000Y-122500000D01*
X125600000Y-65850000D02*
X39200000Y-65850000D01*
X138500000Y-78750000D02*
X125600000Y-65850000D01*
X138500000Y-114500000D02*
X138500000Y-78750000D01*
X131500000Y-121500000D02*
X138500000Y-114500000D01*
X129500000Y-121500000D02*
X131500000Y-121500000D01*
X129000000Y-121000000D02*
X129500000Y-121500000D01*
X137160000Y-127000000D02*
X158115000Y-147955000D01*
X130000000Y-127000000D02*
X137160000Y-127000000D01*
X129000000Y-127000000D02*
X129500000Y-127500000D01*
X129500000Y-127500000D02*
X136390136Y-127500000D01*
X136390136Y-127500000D02*
X156210136Y-147320000D01*
X238760000Y-123190000D02*
X240030000Y-121920000D01*
X240030000Y-121920000D02*
X242570000Y-121920000D01*
X242570000Y-121920000D02*
X245110000Y-119380000D01*
X245110000Y-119380000D02*
X248285000Y-119380000D01*
X248285000Y-119380000D02*
X252095000Y-115570000D01*
X252095000Y-107315000D02*
X254000000Y-105410000D01*
X252095000Y-115570000D02*
X252095000Y-107315000D01*
X251460000Y-105410000D02*
X254000000Y-102870000D01*
X251460000Y-114300000D02*
X251460000Y-105410000D01*
X243205000Y-119380000D02*
X245745000Y-116840000D01*
X248920000Y-116840000D02*
X251460000Y-114300000D01*
X240030000Y-119380000D02*
X243205000Y-119380000D01*
X245745000Y-116840000D02*
X248920000Y-116840000D01*
X238760000Y-120650000D02*
X240030000Y-119380000D01*
X238760000Y-118110000D02*
X240030000Y-116840000D01*
X240030000Y-116840000D02*
X243205000Y-116840000D01*
X243205000Y-116840000D02*
X245745000Y-114300000D01*
X245745000Y-114300000D02*
X248920000Y-114300000D01*
X248920000Y-114300000D02*
X250825000Y-112395000D01*
X250825000Y-112395000D02*
X250825000Y-104775000D01*
M02*
