M48
; DRILL file {KiCad 5.1.9} date Sun Dec 27 07:37:27 2020
; FORMAT={-:-/ absolute / inch / decimal}
; #@! TF.CreationDate,2020-12-27T07:37:27+01:00
; #@! TF.GenerationSoftware,Kicad,Pcbnew,5.1.9
; #@! TF.FileFunction,Plated,1,4,PTH
FMAT,2
INCH
T1C0.0079
T2C0.0197
T3C0.0300
T4C0.0315
T5C0.0394
T6C0.0402
T7C0.0551
T8C0.0787
T9C0.0866
T10C0.1260
T11C0.1457
%
G90
G05
T1
X1.3189Y-7.2146
X1.3386Y-6.6831
X1.3681Y-6.8504
X1.3681Y-6.939
X1.7913Y-6.8012
X1.7913Y-7.0374
X1.8307Y-2.4114
X1.8307Y-2.6378
X2.23Y-6.07
X2.3Y-5.75
X2.3Y-6.03
X2.375Y-6.175
X2.5Y-6.175
X2.55Y-5.775
X2.55Y-5.825
X2.55Y-5.9
X2.55Y-5.95
X2.675Y-5.8
X2.675Y-5.85
X2.675Y-5.9
X2.675Y-6.125
X2.7Y-6.0
X2.75Y-6.0
X2.7756Y-6.1811
X2.8Y-5.8
X2.85Y-5.8
X2.875Y-5.95
X2.875Y-6.0
X2.9Y-5.675
X3.0Y-5.775
X3.025Y-5.8
X3.52Y-5.31
X3.5236Y-4.6063
X3.5236Y-5.1575
X3.5335Y-5.3543
X3.5335Y-5.3937
X3.5335Y-5.4331
X3.5827Y-4.6063
X3.5827Y-5.1575
X3.6614Y-4.9213
X3.6811Y-4.6063
X3.6811Y-4.8425
X3.6811Y-5.1575
X3.7008Y-4.9409
X3.7205Y-4.8228
X3.7402Y-4.9606
X3.7598Y-4.8031
X3.7795Y-4.6063
X3.7795Y-4.9803
X3.7795Y-5.1575
X3.78Y-5.31
X3.7992Y-4.7835
X3.8189Y-5.0
X3.8386Y-4.7638
X3.8583Y-5.0197
X3.878Y-4.6063
X3.878Y-4.7441
X3.878Y-5.1575
X3.8976Y-5.0394
X3.9173Y-4.7244
X3.937Y-4.6063
X3.937Y-5.0591
X3.937Y-5.1575
X3.9567Y-4.7047
X4.275Y-5.225
X4.35Y-5.31
X4.3504Y-4.6063
X4.3504Y-5.1575
X4.4Y-5.175
X4.4291Y-4.4587
X4.4291Y-5.3051
X4.4783Y-4.5079
X4.4783Y-5.2559
X4.6457Y-4.6063
X4.6457Y-4.8819
X4.6457Y-5.1575
X4.65Y-5.225
X4.685Y-4.685
X4.685Y-4.7244
X4.685Y-4.8031
X4.685Y-4.8819
X4.685Y-4.9606
X4.685Y-5.0394
X4.685Y-5.1181
X4.7047Y-5.2165
X4.7244Y-4.685
X4.7244Y-4.7244
X4.7244Y-4.7638
X4.7244Y-4.8031
X4.7244Y-4.8425
X4.7244Y-4.8819
X4.7244Y-4.9213
X4.7244Y-4.9606
X4.7244Y-5.0
X4.7244Y-5.0394
X4.7244Y-5.0787
X4.7244Y-5.1181
X4.7343Y-5.9449
X4.7343Y-5.9843
X4.7343Y-6.0236
X4.7638Y-4.6457
X4.7638Y-4.685
X4.7638Y-4.7244
X4.7638Y-4.7638
X4.7638Y-4.8031
X4.7638Y-4.8819
X4.7638Y-4.9213
X4.7638Y-4.9606
X4.7638Y-5.0
X4.7638Y-5.0394
X4.7736Y-5.9252
X4.7736Y-5.9646
X4.7736Y-6.0039
X4.8031Y-4.685
X4.8031Y-4.7244
X4.8031Y-4.8031
X4.8031Y-4.8819
X4.8031Y-4.9606
X4.8031Y-5.0394
X4.8031Y-5.0787
X4.8031Y-5.1181
X4.813Y-5.5512
X4.8327Y-5.502
X4.8425Y-4.6457
X4.8425Y-4.685
X4.8425Y-4.7244
X4.8425Y-4.8819
X4.8425Y-4.9606
X4.8425Y-5.0394
X4.8425Y-5.0787
X4.8425Y-5.5807
X4.8622Y-5.5315
X4.872Y-5.6102
X4.8819Y-4.6457
X4.8819Y-4.685
X4.8819Y-4.7244
X4.8819Y-4.7638
X4.8819Y-4.8031
X4.8819Y-4.8425
X4.8819Y-4.8819
X4.8819Y-4.9213
X4.8819Y-5.0
X4.8819Y-5.0394
X4.8819Y-5.0787
X4.8819Y-5.1181
X4.8917Y-5.561
X4.9016Y-5.6398
X4.9213Y-4.685
X4.9213Y-4.7244
X4.9213Y-4.8425
X4.9213Y-4.8819
X4.9213Y-4.9213
X4.9213Y-4.9606
X4.9213Y-5.0
X4.9213Y-5.0787
X4.9213Y-5.1181
X4.9213Y-5.5906
X4.95Y-5.675
X4.95Y-5.82
X4.9508Y-5.6201
X4.9606Y-4.6457
X4.9606Y-4.685
X4.9606Y-4.7244
X4.9606Y-4.7638
X4.9606Y-4.8425
X4.9606Y-4.8819
X4.9606Y-4.9213
X4.9606Y-5.0394
X4.9606Y-5.0787
X4.9902Y-5.8268
X5.0Y-4.685
X5.0Y-4.8031
X5.0Y-4.8819
X5.0Y-4.9606
X5.0Y-5.0
X5.0Y-5.0394
X5.0Y-5.1181
X5.0197Y-5.2165
X5.0394Y-4.6457
X5.0394Y-4.685
X5.0394Y-4.7244
X5.0394Y-4.8031
X5.0394Y-4.8425
X5.0394Y-5.0394
X5.0394Y-5.4331
X5.0787Y-4.685
X5.0787Y-4.7638
X5.0787Y-4.8031
X5.0787Y-5.0
X5.0787Y-5.0787
X5.0787Y-5.1181
X5.1181Y-4.6457
X5.1181Y-4.7244
X5.1181Y-4.7638
X5.1181Y-4.8031
X5.1181Y-4.9606
X5.1181Y-5.0
X5.1181Y-5.0787
X5.1181Y-5.1181
X5.1575Y-4.6457
X5.1575Y-4.7244
X5.1575Y-4.8031
X5.1575Y-4.9606
X5.1575Y-5.0394
X5.1575Y-5.5512
X5.1772Y-3.1693
X5.1772Y-3.2087
X5.1772Y-3.248
X5.1772Y-3.2874
X5.1772Y-3.3268
X5.1772Y-3.3661
X5.1772Y-3.4055
X5.1772Y-3.4449
X5.1772Y-3.7008
X5.1772Y-3.7402
X5.1772Y-3.7795
X5.1772Y-3.8189
X5.1772Y-3.8583
X5.1969Y-4.6063
X5.1969Y-4.9213
X5.1969Y-5.1575
X5.2067Y-5.3051
X5.22Y-5.89
X5.315Y-5.6791
X5.3346Y-5.8858
X5.3642Y-4.5079
X5.3642Y-5.2559
X5.4134Y-4.4587
X5.4134Y-5.3051
X5.4134Y-5.6791
X5.5217Y-4.6949
X5.5217Y-4.8425
X5.5217Y-4.8819
X5.5217Y-5.0394
X5.6102Y-4.6949
X5.6102Y-4.8425
X5.6102Y-4.8819
X5.6102Y-5.0394
X5.6988Y-4.6949
X5.6988Y-4.8425
X5.6988Y-4.8819
X5.6988Y-5.0394
X5.6988Y-5.1476
X5.7972Y-5.1476
X5.875Y-5.9
X5.875Y-6.025
X5.91Y-2.08
X5.91Y-2.14
X5.91Y-2.2
X5.91Y-2.3
X5.91Y-2.36
X5.91Y-2.42
X5.91Y-2.83
X5.91Y-2.89
X5.91Y-2.95
X5.91Y-3.05
X5.91Y-3.11
X5.91Y-3.17
X5.91Y-3.525
X5.91Y-3.585
X5.91Y-3.64
X5.91Y-3.7
X5.91Y-3.8
X5.91Y-3.86
X5.91Y-3.92
X5.91Y-3.98
X5.9154Y-4.7933
X5.9154Y-4.8228
X5.9154Y-4.8524
X5.9154Y-4.8819
X5.9154Y-4.9114
X5.9154Y-4.9409
X5.9154Y-4.9705
X5.9252Y-4.4291
X5.9252Y-4.5276
X5.9252Y-4.626
X5.9252Y-5.1575
X5.9252Y-5.2559
X5.9646Y-3.6024
X5.9646Y-3.8976
X5.9664Y-2.0965
X5.9664Y-2.4016
X5.9664Y-2.8543
X5.9664Y-3.1496
X6.0236Y-2.0965
X6.0236Y-2.4016
X6.0236Y-2.8543
X6.0236Y-3.1496
X6.0236Y-3.6024
X6.0236Y-3.8976
X6.09Y-2.14
X6.09Y-2.36
X6.09Y-2.89
X6.09Y-3.11
X6.09Y-3.64
X6.09Y-3.86
X6.122Y-4.4291
X6.122Y-4.5276
X6.122Y-4.626
X6.122Y-5.1575
X6.122Y-5.2559
X6.15Y-5.8
X6.2Y-2.08
X6.2Y-2.2
X6.2Y-2.3
X6.2Y-2.42
X6.2Y-2.83
X6.2Y-2.95
X6.2Y-3.05
X6.2Y-3.17
X6.2Y-3.525
X6.2Y-3.585
X6.2Y-3.7
X6.2Y-3.8
X6.2Y-3.92
X6.2Y-3.98
X6.2008Y-4.7933
X6.2008Y-4.8228
X6.2008Y-4.8524
X6.2008Y-4.8819
X6.2008Y-4.9114
X6.2008Y-4.9409
X6.2008Y-4.9705
X6.225Y-5.825
X6.225Y-6.05
X6.225Y-6.2
X6.3091Y-4.7539
X6.3091Y-4.8327
X6.3091Y-4.9311
X6.3091Y-5.0098
X6.3681Y-4.7933
X6.3681Y-4.9705
X6.375Y-6.0
X6.375Y-6.35
X6.4Y-3.76
X6.49Y-3.78
X6.5Y-3.25
X6.5157Y-4.8031
X6.5157Y-4.9606
X6.52Y-3.3
X6.54Y-3.25
X6.56Y-3.3
X6.58Y-3.25
X6.6Y-3.82
X6.64Y-3.83
X6.725Y-5.725
X6.875Y-5.775
X6.89Y-2.75
X6.9Y-3.6
X6.9Y-3.7
X6.9Y-3.8
X6.925Y-5.625
X6.99Y-3.63
X6.99Y-3.77
X7.05Y-2.75
X7.1Y-4.25
X7.15Y-7.775
X7.34Y-2.01
X7.46Y-3.02
X7.46Y-3.16
X7.475Y-2.55
X7.48Y-2.01
X7.5Y-2.525
X7.525Y-2.5
X7.89Y-3.08
X7.93Y-3.55
X8.05Y-2.92
X8.07Y-3.55
X8.23Y-2.05
X8.37Y-2.05
X8.53Y-2.98
X8.53Y-3.12
X8.95Y-2.63
X8.95Y-2.79
X8.99Y-4.43
X9.07Y-4.2
X9.09Y-4.14
X9.11Y-4.33
X9.13Y-4.41
X9.18Y-2.25
X9.25Y-4.19
X9.875Y-4.125
X10.22Y-3.95
T2
X1.5407Y-7.7
X1.5727Y-7.6227
X1.5727Y-7.7773
X1.65Y-7.5907
X1.65Y-7.8093
X1.7273Y-7.6227
X1.7273Y-7.7773
X1.7593Y-7.7
X2.4407Y-1.5
X2.4727Y-1.4227
X2.4727Y-1.5773
X2.55Y-1.3907
X2.55Y-1.6093
X2.6273Y-1.4227
X2.6273Y-1.5773
X2.6593Y-1.5
X7.6407Y-1.5
X7.6407Y-7.7
X7.6727Y-1.4227
X7.6727Y-1.5773
X7.6727Y-7.6227
X7.6727Y-7.7773
X7.75Y-1.3907
X7.75Y-1.6093
X7.75Y-7.5907
X7.75Y-7.8093
X7.8273Y-1.4227
X7.8273Y-1.5773
X7.8273Y-7.6227
X7.8273Y-7.7773
X7.8593Y-1.5
X7.8593Y-7.7
X10.4907Y-1.5
X10.4907Y-7.7
X10.5227Y-1.4227
X10.5227Y-1.5773
X10.5227Y-7.6227
X10.5227Y-7.7773
X10.6Y-1.3907
X10.6Y-1.6093
X10.6Y-7.5907
X10.6Y-7.8093
X10.6773Y-1.4227
X10.6773Y-1.5773
X10.6773Y-7.6227
X10.6773Y-7.7773
X10.7093Y-1.5
X10.7093Y-7.7
T3
X1.5433Y-2.4508
X1.5433Y-2.5217
X1.5433Y-2.5925
X1.5433Y-2.6634
X1.5433Y-2.7343
X1.5433Y-2.8051
X7.15Y-2.15
X7.15Y-2.25
X7.15Y-2.35
X7.15Y-2.45
X7.15Y-2.55
X7.15Y-2.65
X7.15Y-2.75
X7.15Y-2.85
X7.15Y-2.95
X7.15Y-3.05
X7.15Y-3.15
X7.15Y-3.25
X7.15Y-3.35
X7.15Y-3.45
X7.15Y-3.55
X7.15Y-3.65
X7.15Y-3.75
X7.15Y-3.85
X7.25Y-2.15
X7.25Y-2.25
X7.25Y-2.35
X7.25Y-2.45
X7.25Y-2.55
X7.25Y-2.65
X7.25Y-2.75
X7.25Y-2.85
X7.25Y-2.95
X7.25Y-3.05
X7.25Y-3.15
X7.25Y-3.25
X7.25Y-3.35
X7.25Y-3.45
X7.25Y-3.55
X7.25Y-3.65
X7.25Y-3.75
X7.25Y-3.85
X7.35Y-2.15
X7.35Y-2.25
X7.35Y-2.35
X7.35Y-2.45
X7.35Y-2.55
X7.35Y-2.65
X7.35Y-2.75
X7.35Y-2.85
X7.35Y-2.95
X7.35Y-3.05
X7.35Y-3.15
X7.35Y-3.25
X7.35Y-3.35
X7.35Y-3.45
X7.35Y-3.55
X7.35Y-3.65
X7.35Y-3.75
X7.35Y-3.85
X7.45Y-2.15
X7.45Y-2.25
X7.45Y-2.35
X7.45Y-3.65
X7.45Y-3.75
X7.45Y-3.85
X7.55Y-2.15
X7.55Y-2.25
X7.55Y-2.35
X7.55Y-3.65
X7.55Y-3.75
X7.55Y-3.85
X7.65Y-2.15
X7.65Y-2.25
X7.65Y-2.35
X7.65Y-3.65
X7.65Y-3.75
X7.65Y-3.85
X7.75Y-2.15
X7.75Y-2.25
X7.75Y-2.35
X7.75Y-3.65
X7.75Y-3.75
X7.75Y-3.85
X7.85Y-2.15
X7.85Y-2.25
X7.85Y-2.35
X7.85Y-3.65
X7.85Y-3.75
X7.85Y-3.85
X7.95Y-2.15
X7.95Y-2.25
X7.95Y-2.35
X7.95Y-3.65
X7.95Y-3.75
X7.95Y-3.85
X8.05Y-2.15
X8.05Y-2.25
X8.05Y-2.35
X8.05Y-3.65
X8.05Y-3.75
X8.05Y-3.85
X8.15Y-2.15
X8.15Y-2.25
X8.15Y-2.35
X8.15Y-3.65
X8.15Y-3.75
X8.15Y-3.85
X8.25Y-2.15
X8.25Y-2.25
X8.25Y-2.35
X8.25Y-3.65
X8.25Y-3.75
X8.25Y-3.85
X8.35Y-2.15
X8.35Y-2.25
X8.35Y-2.35
X8.35Y-3.65
X8.35Y-3.75
X8.35Y-3.85
X8.45Y-2.15
X8.45Y-2.25
X8.45Y-2.35
X8.45Y-3.65
X8.45Y-3.75
X8.45Y-3.85
X8.55Y-2.15
X8.55Y-2.25
X8.55Y-2.35
X8.55Y-3.65
X8.55Y-3.75
X8.55Y-3.85
X8.65Y-2.15
X8.65Y-2.25
X8.65Y-2.35
X8.65Y-2.45
X8.65Y-2.55
X8.65Y-2.65
X8.65Y-2.75
X8.65Y-2.85
X8.65Y-2.95
X8.65Y-3.05
X8.65Y-3.15
X8.65Y-3.25
X8.65Y-3.35
X8.65Y-3.45
X8.65Y-3.55
X8.65Y-3.65
X8.65Y-3.75
X8.65Y-3.85
X8.75Y-2.15
X8.75Y-2.25
X8.75Y-2.35
X8.75Y-2.45
X8.75Y-2.55
X8.75Y-2.65
X8.75Y-2.75
X8.75Y-2.85
X8.75Y-2.95
X8.75Y-3.05
X8.75Y-3.15
X8.75Y-3.25
X8.75Y-3.35
X8.75Y-3.45
X8.75Y-3.55
X8.75Y-3.65
X8.75Y-3.75
X8.75Y-3.85
X8.85Y-2.15
X8.85Y-2.25
X8.85Y-2.35
X8.85Y-2.45
X8.85Y-2.55
X8.85Y-2.65
X8.85Y-2.75
X8.85Y-2.85
X8.85Y-2.95
X8.85Y-3.05
X8.85Y-3.15
X8.85Y-3.25
X8.85Y-3.35
X8.85Y-3.45
X8.85Y-3.55
X8.85Y-3.65
X8.85Y-3.75
T4
X9.7Y-3.95
X9.7Y-4.05
X9.7Y-4.15
X9.7Y-4.25
X9.7Y-4.35
X9.7Y-4.45
X9.7Y-4.55
X9.7Y-4.65
X9.7Y-4.75
X9.7Y-4.85
X10.0Y-3.95
X10.0Y-4.05
X10.0Y-4.15
X10.0Y-4.25
X10.0Y-4.35
X10.0Y-4.45
X10.0Y-4.55
X10.0Y-4.65
X10.0Y-4.75
X10.0Y-4.85
T5
X1.3941Y-5.6894
X1.3941Y-5.7795
X1.3941Y-5.8697
X1.3941Y-5.9598
X1.3941Y-6.05
X1.45Y-3.15
X1.45Y-4.0
X1.472Y-5.7344
X1.472Y-5.8246
X1.472Y-5.9148
X1.472Y-6.0049
X1.472Y-6.0951
X1.55Y-3.15
X1.55Y-4.0
X1.55Y-5.6894
X1.55Y-5.7795
X1.55Y-5.8697
X1.55Y-5.9598
X1.55Y-6.05
X1.65Y-3.15
X1.65Y-4.0
X1.65Y-4.3
X1.75Y-3.15
X1.75Y-4.0
X1.75Y-4.3
X1.85Y-3.15
X1.85Y-4.0
X1.85Y-4.3
X1.85Y-5.1
X1.95Y-4.3
X1.95Y-5.1
X2.05Y-4.3
X2.05Y-5.1
X2.15Y-4.3
X2.15Y-5.1
X2.25Y-4.3
X2.25Y-5.1
X2.35Y-4.3
X2.35Y-5.1
X2.45Y-4.3
X3.125Y-4.7
X3.125Y-4.8
X3.125Y-4.9
X5.37Y-3.78
X5.37Y-3.88
X5.37Y-3.98
X5.37Y-4.08
X5.37Y-4.18
X5.37Y-4.28
X7.1Y-4.8
X7.1Y-4.9
X7.1Y-5.0
X7.1Y-5.1
X7.1Y-5.2
X7.2Y-4.8
X7.2Y-4.9
X7.2Y-5.0
X7.2Y-5.1
X7.2Y-5.2
X8.9Y-7.65
X8.9Y-7.75
X9.2Y-7.65
X9.2Y-7.75
X9.4Y-4.45
X9.4Y-4.55
X9.4Y-4.65
X9.4Y-4.75
X9.4Y-4.85
X9.5Y-4.45
X9.5Y-4.55
X9.5Y-4.65
X9.5Y-4.75
X9.5Y-4.85
X9.5Y-7.65
X9.5Y-7.75
X9.8Y-7.65
X9.8Y-7.75
T6
X9.8Y-2.15
X9.8Y-2.5
X9.8Y-2.85
X9.9Y-2.15
X9.9Y-2.5
X9.9Y-2.85
X10.0Y-2.15
X10.0Y-2.5
X10.0Y-2.85
T7
X10.4Y-3.9118
X10.4Y-4.0772
X10.4Y-4.2425
X10.4Y-4.4079
X10.4Y-4.5732
X10.4Y-4.7386
X10.4Y-4.9039
X10.4Y-5.0693
X10.4Y-5.2346
X10.4Y-5.4
X10.6165Y-3.9118
X10.6165Y-4.0772
X10.6165Y-4.2425
X10.6165Y-4.4079
X10.6165Y-4.5732
X10.6165Y-4.7386
X10.6165Y-4.9039
X10.6165Y-5.0693
X10.6165Y-5.2346
X10.6165Y-5.4
T8
X1.378Y-2.3602
X1.378Y-2.8957
X1.4961Y-2.3602
X1.4961Y-2.8957
T9
X1.378Y-2.628
T10
X1.4693Y-5.388
X1.4693Y-6.3722
T11
X1.65Y-7.7
X2.55Y-1.5
X7.75Y-1.5
X7.75Y-7.7
X10.6Y-1.5
X10.6Y-7.7
T0
M30
