G04 #@! TF.GenerationSoftware,KiCad,Pcbnew,5.1.9*
G04 #@! TF.CreationDate,2020-12-27T07:37:23+01:00*
G04 #@! TF.ProjectId,atx040-main-pcb,61747830-3430-42d6-9d61-696e2d706362,rev?*
G04 #@! TF.SameCoordinates,Original*
G04 #@! TF.FileFunction,Legend,Top*
G04 #@! TF.FilePolarity,Positive*
%FSLAX46Y46*%
G04 Gerber Fmt 4.6, Leading zero omitted, Abs format (unit mm)*
G04 Created by KiCad (PCBNEW 5.1.9) date 2020-12-27 07:37:23*
%MOMM*%
%LPD*%
G01*
G04 APERTURE LIST*
%ADD10C,0.150000*%
%ADD11C,0.450000*%
%ADD12C,0.120000*%
G04 APERTURE END LIST*
D10*
X74753452Y-123912380D02*
X75324880Y-123912380D01*
X75039166Y-124912380D02*
X75039166Y-123912380D01*
X75562976Y-123912380D02*
X76229642Y-124912380D01*
X76229642Y-123912380D02*
X75562976Y-124912380D01*
X76610595Y-124912380D02*
X76610595Y-123912380D01*
X76848690Y-123912380D01*
X76991547Y-123960000D01*
X77086785Y-124055238D01*
X77134404Y-124150476D01*
X77182023Y-124340952D01*
X77182023Y-124483809D01*
X77134404Y-124674285D01*
X77086785Y-124769523D01*
X76991547Y-124864761D01*
X76848690Y-124912380D01*
X76610595Y-124912380D01*
X75229642Y-122372380D02*
X74896309Y-121896190D01*
X74658214Y-122372380D02*
X74658214Y-121372380D01*
X75039166Y-121372380D01*
X75134404Y-121420000D01*
X75182023Y-121467619D01*
X75229642Y-121562857D01*
X75229642Y-121705714D01*
X75182023Y-121800952D01*
X75134404Y-121848571D01*
X75039166Y-121896190D01*
X74658214Y-121896190D01*
X75562976Y-121372380D02*
X76229642Y-122372380D01*
X76229642Y-121372380D02*
X75562976Y-122372380D01*
X76610595Y-122372380D02*
X76610595Y-121372380D01*
X76848690Y-121372380D01*
X76991547Y-121420000D01*
X77086785Y-121515238D01*
X77134404Y-121610476D01*
X77182023Y-121800952D01*
X77182023Y-121943809D01*
X77134404Y-122134285D01*
X77086785Y-122229523D01*
X76991547Y-122324761D01*
X76848690Y-122372380D01*
X76610595Y-122372380D01*
X75086785Y-118880000D02*
X74991547Y-118832380D01*
X74848690Y-118832380D01*
X74705833Y-118880000D01*
X74610595Y-118975238D01*
X74562976Y-119070476D01*
X74515357Y-119260952D01*
X74515357Y-119403809D01*
X74562976Y-119594285D01*
X74610595Y-119689523D01*
X74705833Y-119784761D01*
X74848690Y-119832380D01*
X74943928Y-119832380D01*
X75086785Y-119784761D01*
X75134404Y-119737142D01*
X75134404Y-119403809D01*
X74943928Y-119403809D01*
X75562976Y-119832380D02*
X75562976Y-118832380D01*
X76134404Y-119832380D01*
X76134404Y-118832380D01*
X76610595Y-119832380D02*
X76610595Y-118832380D01*
X76848690Y-118832380D01*
X76991547Y-118880000D01*
X77086785Y-118975238D01*
X77134404Y-119070476D01*
X77182023Y-119260952D01*
X77182023Y-119403809D01*
X77134404Y-119594285D01*
X77086785Y-119689523D01*
X76991547Y-119784761D01*
X76848690Y-119832380D01*
X76610595Y-119832380D01*
X132062214Y-105624380D02*
X132633642Y-105624380D01*
X132347928Y-106624380D02*
X132347928Y-105624380D01*
X132966976Y-106624380D02*
X132966976Y-105624380D01*
X133205071Y-105624380D01*
X133347928Y-105672000D01*
X133443166Y-105767238D01*
X133490785Y-105862476D01*
X133538404Y-106052952D01*
X133538404Y-106195809D01*
X133490785Y-106386285D01*
X133443166Y-106481523D01*
X133347928Y-106576761D01*
X133205071Y-106624380D01*
X132966976Y-106624380D01*
X134157452Y-105624380D02*
X134347928Y-105624380D01*
X134443166Y-105672000D01*
X134538404Y-105767238D01*
X134586023Y-105957714D01*
X134586023Y-106291047D01*
X134538404Y-106481523D01*
X134443166Y-106576761D01*
X134347928Y-106624380D01*
X134157452Y-106624380D01*
X134062214Y-106576761D01*
X133966976Y-106481523D01*
X133919357Y-106291047D01*
X133919357Y-105957714D01*
X133966976Y-105767238D01*
X134062214Y-105672000D01*
X134157452Y-105624380D01*
X132633642Y-103084380D02*
X133205071Y-103084380D01*
X132919357Y-104084380D02*
X132919357Y-103084380D01*
X133538404Y-104084380D02*
X133538404Y-103084380D01*
X133776500Y-103084380D01*
X133919357Y-103132000D01*
X134014595Y-103227238D01*
X134062214Y-103322476D01*
X134109833Y-103512952D01*
X134109833Y-103655809D01*
X134062214Y-103846285D01*
X134014595Y-103941523D01*
X133919357Y-104036761D01*
X133776500Y-104084380D01*
X133538404Y-104084380D01*
X134538404Y-104084380D02*
X134538404Y-103084380D01*
X132109833Y-108164380D02*
X132681261Y-108164380D01*
X132395547Y-109164380D02*
X132395547Y-108164380D01*
X133586023Y-109069142D02*
X133538404Y-109116761D01*
X133395547Y-109164380D01*
X133300309Y-109164380D01*
X133157452Y-109116761D01*
X133062214Y-109021523D01*
X133014595Y-108926285D01*
X132966976Y-108735809D01*
X132966976Y-108592952D01*
X133014595Y-108402476D01*
X133062214Y-108307238D01*
X133157452Y-108212000D01*
X133300309Y-108164380D01*
X133395547Y-108164380D01*
X133538404Y-108212000D01*
X133586023Y-108259619D01*
X134014595Y-109164380D02*
X134014595Y-108164380D01*
X134586023Y-109164380D02*
X134157452Y-108592952D01*
X134586023Y-108164380D02*
X134014595Y-108735809D01*
X132014595Y-100544380D02*
X132586023Y-100544380D01*
X132300309Y-101544380D02*
X132300309Y-100544380D01*
X132919357Y-101544380D02*
X132919357Y-100544380D01*
X133252690Y-101258666D01*
X133586023Y-100544380D01*
X133586023Y-101544380D01*
X134014595Y-101496761D02*
X134157452Y-101544380D01*
X134395547Y-101544380D01*
X134490785Y-101496761D01*
X134538404Y-101449142D01*
X134586023Y-101353904D01*
X134586023Y-101258666D01*
X134538404Y-101163428D01*
X134490785Y-101115809D01*
X134395547Y-101068190D01*
X134205071Y-101020571D01*
X134109833Y-100972952D01*
X134062214Y-100925333D01*
X134014595Y-100830095D01*
X134014595Y-100734857D01*
X134062214Y-100639619D01*
X134109833Y-100592000D01*
X134205071Y-100544380D01*
X134443166Y-100544380D01*
X134586023Y-100592000D01*
X132157452Y-98004380D02*
X132776500Y-98004380D01*
X132443166Y-98385333D01*
X132586023Y-98385333D01*
X132681261Y-98432952D01*
X132728880Y-98480571D01*
X132776500Y-98575809D01*
X132776500Y-98813904D01*
X132728880Y-98909142D01*
X132681261Y-98956761D01*
X132586023Y-99004380D01*
X132300309Y-99004380D01*
X132205071Y-98956761D01*
X132157452Y-98909142D01*
X133062214Y-98004380D02*
X133395547Y-99004380D01*
X133728880Y-98004380D01*
X133966976Y-98004380D02*
X134586023Y-98004380D01*
X134252690Y-98385333D01*
X134395547Y-98385333D01*
X134490785Y-98432952D01*
X134538404Y-98480571D01*
X134586023Y-98575809D01*
X134586023Y-98813904D01*
X134538404Y-98909142D01*
X134490785Y-98956761D01*
X134395547Y-99004380D01*
X134109833Y-99004380D01*
X134014595Y-98956761D01*
X133966976Y-98909142D01*
X132490785Y-95512000D02*
X132395547Y-95464380D01*
X132252690Y-95464380D01*
X132109833Y-95512000D01*
X132014595Y-95607238D01*
X131966976Y-95702476D01*
X131919357Y-95892952D01*
X131919357Y-96035809D01*
X131966976Y-96226285D01*
X132014595Y-96321523D01*
X132109833Y-96416761D01*
X132252690Y-96464380D01*
X132347928Y-96464380D01*
X132490785Y-96416761D01*
X132538404Y-96369142D01*
X132538404Y-96035809D01*
X132347928Y-96035809D01*
X132966976Y-96464380D02*
X132966976Y-95464380D01*
X133538404Y-96464380D01*
X133538404Y-95464380D01*
X134014595Y-96464380D02*
X134014595Y-95464380D01*
X134252690Y-95464380D01*
X134395547Y-95512000D01*
X134490785Y-95607238D01*
X134538404Y-95702476D01*
X134586023Y-95892952D01*
X134586023Y-96035809D01*
X134538404Y-96226285D01*
X134490785Y-96321523D01*
X134395547Y-96416761D01*
X134252690Y-96464380D01*
X134014595Y-96464380D01*
D11*
X204063928Y-196080000D02*
X205492500Y-196080000D01*
X203778214Y-196937142D02*
X204778214Y-193937142D01*
X205778214Y-196937142D01*
X206349642Y-193937142D02*
X208063928Y-193937142D01*
X207206785Y-196937142D02*
X207206785Y-193937142D01*
X208778214Y-193937142D02*
X210778214Y-196937142D01*
X210778214Y-193937142D02*
X208778214Y-196937142D01*
X212492500Y-193937142D02*
X212778214Y-193937142D01*
X213063928Y-194080000D01*
X213206785Y-194222857D01*
X213349642Y-194508571D01*
X213492500Y-195080000D01*
X213492500Y-195794285D01*
X213349642Y-196365714D01*
X213206785Y-196651428D01*
X213063928Y-196794285D01*
X212778214Y-196937142D01*
X212492500Y-196937142D01*
X212206785Y-196794285D01*
X212063928Y-196651428D01*
X211921071Y-196365714D01*
X211778214Y-195794285D01*
X211778214Y-195080000D01*
X211921071Y-194508571D01*
X212063928Y-194222857D01*
X212206785Y-194080000D01*
X212492500Y-193937142D01*
X216063928Y-194937142D02*
X216063928Y-196937142D01*
X215349642Y-193794285D02*
X214635357Y-195937142D01*
X216492500Y-195937142D01*
X218206785Y-193937142D02*
X218492500Y-193937142D01*
X218778214Y-194080000D01*
X218921071Y-194222857D01*
X219063928Y-194508571D01*
X219206785Y-195080000D01*
X219206785Y-195794285D01*
X219063928Y-196365714D01*
X218921071Y-196651428D01*
X218778214Y-196794285D01*
X218492500Y-196937142D01*
X218206785Y-196937142D01*
X217921071Y-196794285D01*
X217778214Y-196651428D01*
X217635357Y-196365714D01*
X217492500Y-195794285D01*
X217492500Y-195080000D01*
X217635357Y-194508571D01*
X217778214Y-194222857D01*
X217921071Y-194080000D01*
X218206785Y-193937142D01*
D12*
X241062742Y-100852500D02*
X241537258Y-100852500D01*
X241062742Y-99807500D02*
X241537258Y-99807500D01*
X240777500Y-187722742D02*
X240777500Y-188197258D01*
X241822500Y-187722742D02*
X241822500Y-188197258D01*
X248397500Y-187722742D02*
X248397500Y-188197258D01*
X249442500Y-187722742D02*
X249442500Y-188197258D01*
X237430000Y-111700000D02*
X238760000Y-111700000D01*
X237430000Y-113030000D02*
X237430000Y-111700000D01*
X240030000Y-111700000D02*
X242630000Y-111700000D01*
X240030000Y-114300000D02*
X240030000Y-111700000D01*
X237430000Y-114300000D02*
X240030000Y-114300000D01*
X242630000Y-111700000D02*
X242630000Y-124520000D01*
X237430000Y-114300000D02*
X237430000Y-124520000D01*
X237430000Y-124520000D02*
X242630000Y-124520000D01*
X239970000Y-192980000D02*
X241300000Y-192980000D01*
X239970000Y-194310000D02*
X239970000Y-192980000D01*
X239970000Y-195580000D02*
X242630000Y-195580000D01*
X242630000Y-195580000D02*
X242630000Y-198180000D01*
X239970000Y-195580000D02*
X239970000Y-198180000D01*
X239970000Y-198180000D02*
X242630000Y-198180000D01*
X232350000Y-192980000D02*
X233680000Y-192980000D01*
X232350000Y-194310000D02*
X232350000Y-192980000D01*
X232350000Y-195580000D02*
X235010000Y-195580000D01*
X235010000Y-195580000D02*
X235010000Y-198180000D01*
X232350000Y-195580000D02*
X232350000Y-198180000D01*
X232350000Y-198180000D02*
X235010000Y-198180000D01*
X247590000Y-192980000D02*
X248920000Y-192980000D01*
X247590000Y-194310000D02*
X247590000Y-192980000D01*
X247590000Y-195580000D02*
X250250000Y-195580000D01*
X250250000Y-195580000D02*
X250250000Y-198180000D01*
X247590000Y-195580000D02*
X247590000Y-198180000D01*
X247590000Y-198180000D02*
X250250000Y-198180000D01*
X224730000Y-192980000D02*
X226060000Y-192980000D01*
X224730000Y-194310000D02*
X224730000Y-192980000D01*
X224730000Y-195580000D02*
X227390000Y-195580000D01*
X227390000Y-195580000D02*
X227390000Y-198180000D01*
X224730000Y-195580000D02*
X224730000Y-198180000D01*
X224730000Y-198180000D02*
X227390000Y-198180000D01*
X175260000Y-147340000D02*
X178710000Y-147340000D01*
X175260000Y-147340000D02*
X173310000Y-147340000D01*
X175260000Y-142220000D02*
X177210000Y-142220000D01*
X175260000Y-142220000D02*
X173310000Y-142220000D01*
X156285000Y-158800000D02*
X156285000Y-160615000D01*
X156030000Y-158800000D02*
X156285000Y-158800000D01*
X156030000Y-154940000D02*
X156030000Y-158800000D01*
X156030000Y-151080000D02*
X156285000Y-151080000D01*
X156030000Y-154940000D02*
X156030000Y-151080000D01*
X166550000Y-158800000D02*
X166295000Y-158800000D01*
X166550000Y-154940000D02*
X166550000Y-158800000D01*
X166550000Y-151080000D02*
X166295000Y-151080000D01*
X166550000Y-154940000D02*
X166550000Y-151080000D01*
X150892742Y-153557500D02*
X151367258Y-153557500D01*
X150892742Y-152512500D02*
X151367258Y-152512500D01*
X150892742Y-150382500D02*
X151367258Y-150382500D01*
X150892742Y-149337500D02*
X151367258Y-149337500D01*
X175610000Y-168340000D02*
X175610000Y-166340000D01*
X176610000Y-167340000D02*
X174610000Y-167340000D01*
X189960000Y-191690000D02*
X185460000Y-191690000D01*
X189960000Y-168990000D02*
X185460000Y-168990000D01*
X189960000Y-168990000D02*
X189960000Y-191690000D01*
X185460000Y-194890000D02*
X183910000Y-194890000D01*
X185460000Y-191690000D02*
X185460000Y-194890000D01*
X185460000Y-165790000D02*
X183910000Y-165790000D01*
X185460000Y-168990000D02*
X185460000Y-165790000D01*
X177760000Y-165790000D02*
X179310000Y-165790000D01*
X177760000Y-168990000D02*
X177760000Y-165790000D01*
X173260000Y-170790000D02*
X175060000Y-168990000D01*
X175060000Y-168990000D02*
X177760000Y-168990000D01*
X173260000Y-191690000D02*
X173260000Y-170790000D01*
X173260000Y-191690000D02*
X177760000Y-191690000D01*
X177760000Y-194890000D02*
X179310000Y-194890000D01*
X177760000Y-191690000D02*
X177760000Y-194890000D01*
X188197258Y-123937500D02*
X187722742Y-123937500D01*
X188197258Y-124982500D02*
X187722742Y-124982500D01*
X185942500Y-129777258D02*
X185942500Y-129302742D01*
X184897500Y-129777258D02*
X184897500Y-129302742D01*
X188197258Y-126477500D02*
X187722742Y-126477500D01*
X188197258Y-127522500D02*
X187722742Y-127522500D01*
X175022742Y-124982500D02*
X175497258Y-124982500D01*
X175022742Y-123937500D02*
X175497258Y-123937500D01*
X178322500Y-129777258D02*
X178322500Y-129302742D01*
X177277500Y-129777258D02*
X177277500Y-129302742D01*
X175022742Y-127522500D02*
X175497258Y-127522500D01*
X175022742Y-126477500D02*
X175497258Y-126477500D01*
X179010000Y-120590000D02*
X180340000Y-120590000D01*
X179010000Y-121920000D02*
X179010000Y-120590000D01*
X181610000Y-120590000D02*
X184210000Y-120590000D01*
X181610000Y-123190000D02*
X181610000Y-120590000D01*
X179010000Y-123190000D02*
X181610000Y-123190000D01*
X184210000Y-120590000D02*
X184210000Y-133410000D01*
X179010000Y-123190000D02*
X179010000Y-133410000D01*
X179010000Y-133410000D02*
X184210000Y-133410000D01*
X247570000Y-75790000D02*
X247570000Y-69740000D01*
X247570000Y-69740000D02*
X255370000Y-69740000D01*
X255370000Y-69740000D02*
X255370000Y-75790000D01*
X255370000Y-75790000D02*
X247570000Y-75790000D01*
X248920000Y-75690000D02*
X248920000Y-74680000D01*
X248920000Y-74680000D02*
X254000000Y-74680000D01*
X254000000Y-74680000D02*
X254000000Y-75690000D01*
X247570000Y-66900000D02*
X247570000Y-60850000D01*
X247570000Y-60850000D02*
X255370000Y-60850000D01*
X255370000Y-60850000D02*
X255370000Y-66900000D01*
X255370000Y-66900000D02*
X247570000Y-66900000D01*
X248920000Y-66800000D02*
X248920000Y-65790000D01*
X248920000Y-65790000D02*
X254000000Y-65790000D01*
X254000000Y-65790000D02*
X254000000Y-66800000D01*
X247570000Y-58010000D02*
X247570000Y-51960000D01*
X247570000Y-51960000D02*
X255370000Y-51960000D01*
X255370000Y-51960000D02*
X255370000Y-58010000D01*
X255370000Y-58010000D02*
X247570000Y-58010000D01*
X248920000Y-57910000D02*
X248920000Y-56900000D01*
X248920000Y-56900000D02*
X254000000Y-56900000D01*
X254000000Y-56900000D02*
X254000000Y-57910000D01*
X45737258Y-62772500D02*
X45262742Y-62772500D01*
X45737258Y-61727500D02*
X45262742Y-61727500D01*
X45737258Y-66522500D02*
X45262742Y-66522500D01*
X45737258Y-65477500D02*
X45262742Y-65477500D01*
X35500000Y-80010000D02*
X35500000Y-78680000D01*
X35500000Y-78680000D02*
X36830000Y-78680000D01*
X38100000Y-78680000D02*
X48320000Y-78680000D01*
X48320000Y-81340000D02*
X48320000Y-78680000D01*
X38100000Y-81340000D02*
X48320000Y-81340000D01*
X38100000Y-81340000D02*
X38100000Y-78680000D01*
X35500000Y-101600000D02*
X35500000Y-100270000D01*
X35500000Y-100270000D02*
X36830000Y-100270000D01*
X38100000Y-100270000D02*
X48320000Y-100270000D01*
X48320000Y-102930000D02*
X48320000Y-100270000D01*
X38100000Y-102930000D02*
X48320000Y-102930000D01*
X38100000Y-102930000D02*
X38100000Y-100270000D01*
X63560000Y-109220000D02*
X63560000Y-110550000D01*
X63560000Y-110550000D02*
X62230000Y-110550000D01*
X60960000Y-110550000D02*
X40580000Y-110550000D01*
X40580000Y-107890000D02*
X40580000Y-110550000D01*
X60960000Y-107890000D02*
X40580000Y-107890000D01*
X60960000Y-107890000D02*
X60960000Y-110550000D01*
X61020000Y-129540000D02*
X61020000Y-130870000D01*
X61020000Y-130870000D02*
X59690000Y-130870000D01*
X58420000Y-130870000D02*
X45660000Y-130870000D01*
X45660000Y-128210000D02*
X45660000Y-130870000D01*
X58420000Y-128210000D02*
X45660000Y-128210000D01*
X58420000Y-128210000D02*
X58420000Y-130870000D01*
X33180000Y-181090000D02*
X33180000Y-180230000D01*
X44820000Y-170390000D02*
X35000000Y-170390000D01*
X44820000Y-171620000D02*
X44820000Y-170390000D01*
X44820000Y-177590000D02*
X44820000Y-173920000D01*
X44820000Y-182570000D02*
X44820000Y-179890000D01*
X44100000Y-182570000D02*
X44820000Y-182570000D01*
X40400000Y-182570000D02*
X42700000Y-182570000D01*
X34550000Y-182570000D02*
X39000000Y-182570000D01*
X116390000Y-132610000D02*
X116390000Y-116390000D01*
X133610000Y-132610000D02*
X116390000Y-132610000D01*
X133610000Y-115390000D02*
X133610000Y-132610000D01*
X117390000Y-115390000D02*
X133610000Y-115390000D01*
X128130000Y-135153641D02*
X128130000Y-134846359D01*
X127370000Y-135153641D02*
X127370000Y-134846359D01*
X135127341Y-137839940D02*
X134910060Y-137622659D01*
X134589940Y-138377341D02*
X134372659Y-138160060D01*
X230264580Y-113032000D02*
X229983420Y-113032000D01*
X230264580Y-112012000D02*
X229983420Y-112012000D01*
X233031420Y-105916000D02*
X233312580Y-105916000D01*
X233031420Y-106936000D02*
X233312580Y-106936000D01*
X257669420Y-99820000D02*
X257950580Y-99820000D01*
X257669420Y-100840000D02*
X257950580Y-100840000D01*
X109980000Y-132955420D02*
X109980000Y-133236580D01*
X111000000Y-132955420D02*
X111000000Y-133236580D01*
X95502000Y-132955420D02*
X95502000Y-133236580D01*
X96522000Y-132955420D02*
X96522000Y-133236580D01*
X88898000Y-132955420D02*
X88898000Y-133236580D01*
X89918000Y-132955420D02*
X89918000Y-133236580D01*
X99173420Y-116334000D02*
X99454580Y-116334000D01*
X99173420Y-115314000D02*
X99454580Y-115314000D01*
X92342580Y-115314000D02*
X92061420Y-115314000D01*
X92342580Y-116334000D02*
X92061420Y-116334000D01*
X92061420Y-132590000D02*
X92342580Y-132590000D01*
X92061420Y-131570000D02*
X92342580Y-131570000D01*
X99454580Y-131570000D02*
X99173420Y-131570000D01*
X99454580Y-132590000D02*
X99173420Y-132590000D01*
X232848000Y-110774000D02*
X232648000Y-110774000D01*
X230548000Y-110774000D02*
X230548000Y-111174000D01*
X230448000Y-110774000D02*
X230548000Y-110774000D01*
X230448000Y-108174000D02*
X230448000Y-110774000D01*
X230648000Y-108174000D02*
X230448000Y-108174000D01*
X232848000Y-108174000D02*
X232648000Y-108174000D01*
X232848000Y-110774000D02*
X232848000Y-108174000D01*
X249190000Y-99000000D02*
X247540000Y-99000000D01*
X247540000Y-99000000D02*
X247540000Y-124520000D01*
X247540000Y-124520000D02*
X252840000Y-124520000D01*
X252840000Y-124520000D02*
X252840000Y-99000000D01*
X252840000Y-99000000D02*
X251190000Y-99000000D01*
X251190000Y-99000000D02*
G75*
G02*
X249190000Y-99000000I-1000000J0D01*
G01*
X57897500Y-148065258D02*
X57897500Y-147590742D01*
X58942500Y-148065258D02*
X58942500Y-147590742D01*
X58942500Y-151146742D02*
X58942500Y-151621258D01*
X57897500Y-151146742D02*
X57897500Y-151621258D01*
X57164500Y-152162742D02*
X57164500Y-152637258D01*
X56119500Y-152162742D02*
X56119500Y-152637258D01*
X143880000Y-132610000D02*
X143350000Y-132610000D01*
X143350000Y-132610000D02*
X143350000Y-129010000D01*
X143350000Y-129010000D02*
X143880000Y-129010000D01*
X146420000Y-132610000D02*
X145680000Y-132610000D01*
X148220000Y-128770000D02*
X148220000Y-129010000D01*
X148220000Y-129010000D02*
X148750000Y-129010000D01*
X148750000Y-129010000D02*
X148750000Y-132610000D01*
X148750000Y-132610000D02*
X148220000Y-132610000D01*
X145680000Y-129010000D02*
X146420000Y-129010000D01*
X146420000Y-129010000D02*
X146420000Y-128770000D01*
X115827659Y-136999940D02*
X116044940Y-136782659D01*
X116365060Y-137537341D02*
X116582341Y-137320060D01*
X67325000Y-146250000D02*
X66875000Y-146250000D01*
X66875000Y-146250000D02*
X66875000Y-146700000D01*
X73645000Y-146250000D02*
X74095000Y-146250000D01*
X74095000Y-146250000D02*
X74095000Y-146700000D01*
X67325000Y-153470000D02*
X66875000Y-153470000D01*
X66875000Y-153470000D02*
X66875000Y-153020000D01*
X73645000Y-153470000D02*
X74095000Y-153470000D01*
X74095000Y-153470000D02*
X74095000Y-153020000D01*
X74095000Y-153020000D02*
X75385000Y-153020000D01*
X69096359Y-156620000D02*
X69403641Y-156620000D01*
X69096359Y-157380000D02*
X69403641Y-157380000D01*
X32440000Y-133870000D02*
X41040000Y-133870000D01*
X41040000Y-133870000D02*
X41040000Y-164840000D01*
X41040000Y-164840000D02*
X32440000Y-164840000D01*
X41934338Y-153420000D02*
X41934338Y-153920000D01*
X41934338Y-153920000D02*
X41501325Y-153670000D01*
X41501325Y-153670000D02*
X41934338Y-153420000D01*
X64010000Y-154799420D02*
X64010000Y-155080580D01*
X62990000Y-154799420D02*
X62990000Y-155080580D01*
X60835000Y-154799420D02*
X60835000Y-155080580D01*
X59815000Y-154799420D02*
X59815000Y-155080580D01*
X85903641Y-122620000D02*
X85596359Y-122620000D01*
X85903641Y-123380000D02*
X85596359Y-123380000D01*
X85903641Y-124120000D02*
X85596359Y-124120000D01*
X85903641Y-124880000D02*
X85596359Y-124880000D01*
X78045000Y-118050000D02*
X79375000Y-118050000D01*
X78045000Y-119380000D02*
X78045000Y-118050000D01*
X78045000Y-120650000D02*
X80705000Y-120650000D01*
X80705000Y-120650000D02*
X80705000Y-125790000D01*
X78045000Y-120650000D02*
X78045000Y-125790000D01*
X78045000Y-125790000D02*
X80705000Y-125790000D01*
X112876359Y-116458000D02*
X113183641Y-116458000D01*
X112876359Y-115698000D02*
X113183641Y-115698000D01*
X149240000Y-89090000D02*
X147950000Y-89090000D01*
X149240000Y-88890000D02*
X149240000Y-89090000D01*
X152400000Y-88890000D02*
X149240000Y-88890000D01*
X155560000Y-88890000D02*
X155560000Y-89090000D01*
X152400000Y-88890000D02*
X155560000Y-88890000D01*
X149240000Y-101610000D02*
X149240000Y-101410000D01*
X152400000Y-101610000D02*
X149240000Y-101610000D01*
X155560000Y-101610000D02*
X155560000Y-101410000D01*
X152400000Y-101610000D02*
X155560000Y-101610000D01*
X231631258Y-56627500D02*
X231156742Y-56627500D01*
X231631258Y-57672500D02*
X231156742Y-57672500D01*
X137839940Y-119122659D02*
X137622659Y-119339940D01*
X138377341Y-119660060D02*
X138160060Y-119877341D01*
X136839940Y-118122659D02*
X136622659Y-118339940D01*
X137377341Y-118660060D02*
X137160060Y-118877341D01*
X89100000Y-130579000D02*
X89100000Y-129379000D01*
X89100000Y-129379000D02*
X88700000Y-129379000D01*
X88700000Y-129379000D02*
X88700000Y-118779000D01*
X111300000Y-129379000D02*
X111300000Y-118779000D01*
X88700000Y-118779000D02*
X89100000Y-118779000D01*
X110900000Y-118779000D02*
X111300000Y-118779000D01*
X110900000Y-129379000D02*
X111300000Y-129379000D01*
X149240000Y-50990000D02*
X147950000Y-50990000D01*
X149240000Y-50790000D02*
X149240000Y-50990000D01*
X152400000Y-50790000D02*
X149240000Y-50790000D01*
X155560000Y-50790000D02*
X155560000Y-50990000D01*
X152400000Y-50790000D02*
X155560000Y-50790000D01*
X149240000Y-63510000D02*
X149240000Y-63310000D01*
X152400000Y-63510000D02*
X149240000Y-63510000D01*
X155560000Y-63510000D02*
X155560000Y-63310000D01*
X152400000Y-63510000D02*
X155560000Y-63510000D01*
X149240000Y-70040000D02*
X147950000Y-70040000D01*
X149240000Y-69840000D02*
X149240000Y-70040000D01*
X152400000Y-69840000D02*
X149240000Y-69840000D01*
X155560000Y-69840000D02*
X155560000Y-70040000D01*
X152400000Y-69840000D02*
X155560000Y-69840000D01*
X149240000Y-82560000D02*
X149240000Y-82360000D01*
X152400000Y-82560000D02*
X149240000Y-82560000D01*
X155560000Y-82560000D02*
X155560000Y-82360000D01*
X152400000Y-82560000D02*
X155560000Y-82560000D01*
X158470000Y-120820000D02*
X159570000Y-120820000D01*
X158470000Y-120550000D02*
X158470000Y-120820000D01*
X156970000Y-120550000D02*
X158470000Y-120550000D01*
X158470000Y-127180000D02*
X161300000Y-127180000D01*
X158470000Y-127450000D02*
X158470000Y-127180000D01*
X156970000Y-127450000D02*
X158470000Y-127450000D01*
X144015000Y-125738748D02*
X144015000Y-126261252D01*
X145485000Y-125738748D02*
X145485000Y-126261252D01*
X164765000Y-123738748D02*
X164765000Y-124261252D01*
X166235000Y-123738748D02*
X166235000Y-124261252D01*
X130810000Y-143490000D02*
X127360000Y-143490000D01*
X130810000Y-143490000D02*
X132760000Y-143490000D01*
X130810000Y-148610000D02*
X128860000Y-148610000D01*
X130810000Y-148610000D02*
X132760000Y-148610000D01*
X135665010Y-112295543D02*
X135295543Y-112665010D01*
X136704457Y-113334990D02*
X136334990Y-113704457D01*
X113295543Y-113334990D02*
X113665010Y-113704457D01*
X114334990Y-112295543D02*
X114704457Y-112665010D01*
X136704457Y-134665010D02*
X136334990Y-134295543D01*
X135665010Y-135704457D02*
X135295543Y-135334990D01*
X114334990Y-135704457D02*
X114704457Y-135334990D01*
X113295543Y-134665010D02*
X113665010Y-134295543D01*
X152288748Y-113410000D02*
X153711252Y-113410000D01*
X152288748Y-111590000D02*
X153711252Y-111590000D01*
X152288748Y-115910000D02*
X153711252Y-115910000D01*
X152288748Y-114090000D02*
X153711252Y-114090000D01*
X152288748Y-118410000D02*
X153711252Y-118410000D01*
X152288748Y-116590000D02*
X153711252Y-116590000D01*
X152288748Y-134410000D02*
X153711252Y-134410000D01*
X152288748Y-132590000D02*
X153711252Y-132590000D01*
X152288748Y-131910000D02*
X153711252Y-131910000D01*
X152288748Y-130090000D02*
X153711252Y-130090000D01*
X140985000Y-121261252D02*
X140985000Y-120738748D01*
X139515000Y-121261252D02*
X139515000Y-120738748D01*
X145485000Y-121261252D02*
X145485000Y-120738748D01*
X144015000Y-121261252D02*
X144015000Y-120738748D01*
X139515000Y-125738748D02*
X139515000Y-126261252D01*
X140985000Y-125738748D02*
X140985000Y-126261252D01*
X143235000Y-121261252D02*
X143235000Y-120738748D01*
X141765000Y-121261252D02*
X141765000Y-120738748D01*
X141765000Y-125738748D02*
X141765000Y-126261252D01*
X143235000Y-125738748D02*
X143235000Y-126261252D01*
X135068000Y-110042000D02*
X137728000Y-110042000D01*
X135068000Y-97282000D02*
X135068000Y-110042000D01*
X137728000Y-97282000D02*
X137728000Y-110042000D01*
X135068000Y-97282000D02*
X137728000Y-97282000D01*
X135068000Y-96012000D02*
X135068000Y-94682000D01*
X135068000Y-94682000D02*
X136398000Y-94682000D01*
X126252500Y-145812742D02*
X126252500Y-146287258D01*
X125207500Y-145812742D02*
X125207500Y-146287258D01*
X136022500Y-147262742D02*
X136022500Y-147737258D01*
X134977500Y-147262742D02*
X134977500Y-147737258D01*
X130572742Y-149083500D02*
X131047258Y-149083500D01*
X130572742Y-150128500D02*
X131047258Y-150128500D01*
X127712770Y-139048303D02*
X128048303Y-138712770D01*
X128451697Y-139787230D02*
X128787230Y-139451697D01*
X130287230Y-140951697D02*
X129951697Y-141287230D01*
X129548303Y-140212770D02*
X129212770Y-140548303D01*
X261800000Y-118260000D02*
X261800000Y-139970000D01*
X261800000Y-139970000D02*
X271620000Y-139970000D01*
X271620000Y-139970000D02*
X271620000Y-120070000D01*
X271620000Y-120070000D02*
X273020000Y-120070000D01*
X273020000Y-120070000D02*
X273020000Y-118260000D01*
X261800000Y-118260000D02*
X261800000Y-96550000D01*
X261800000Y-96550000D02*
X271620000Y-96550000D01*
X271620000Y-96550000D02*
X271620000Y-116450000D01*
X271620000Y-116450000D02*
X273020000Y-116450000D01*
X273020000Y-116450000D02*
X273020000Y-118260000D01*
X261560000Y-137360000D02*
X261560000Y-140210000D01*
X261560000Y-140210000D02*
X264410000Y-140210000D01*
X181610000Y-100330000D02*
X179070000Y-97790000D01*
X227330000Y-52070000D02*
X179070000Y-52070000D01*
X227330000Y-100330000D02*
X227330000Y-52070000D01*
X179070000Y-100330000D02*
X227330000Y-100330000D01*
X179070000Y-52070000D02*
X179070000Y-100330000D01*
D10*
X240180952Y-99352380D02*
X239847619Y-98876190D01*
X239609523Y-99352380D02*
X239609523Y-98352380D01*
X239990476Y-98352380D01*
X240085714Y-98400000D01*
X240133333Y-98447619D01*
X240180952Y-98542857D01*
X240180952Y-98685714D01*
X240133333Y-98780952D01*
X240085714Y-98828571D01*
X239990476Y-98876190D01*
X239609523Y-98876190D01*
X240514285Y-98352380D02*
X241133333Y-98352380D01*
X240800000Y-98733333D01*
X240942857Y-98733333D01*
X241038095Y-98780952D01*
X241085714Y-98828571D01*
X241133333Y-98923809D01*
X241133333Y-99161904D01*
X241085714Y-99257142D01*
X241038095Y-99304761D01*
X240942857Y-99352380D01*
X240657142Y-99352380D01*
X240561904Y-99304761D01*
X240514285Y-99257142D01*
X241752380Y-98352380D02*
X241847619Y-98352380D01*
X241942857Y-98400000D01*
X241990476Y-98447619D01*
X242038095Y-98542857D01*
X242085714Y-98733333D01*
X242085714Y-98971428D01*
X242038095Y-99161904D01*
X241990476Y-99257142D01*
X241942857Y-99304761D01*
X241847619Y-99352380D01*
X241752380Y-99352380D01*
X241657142Y-99304761D01*
X241609523Y-99257142D01*
X241561904Y-99161904D01*
X241514285Y-98971428D01*
X241514285Y-98733333D01*
X241561904Y-98542857D01*
X241609523Y-98447619D01*
X241657142Y-98400000D01*
X241752380Y-98352380D01*
X242466666Y-98447619D02*
X242514285Y-98400000D01*
X242609523Y-98352380D01*
X242847619Y-98352380D01*
X242942857Y-98400000D01*
X242990476Y-98447619D01*
X243038095Y-98542857D01*
X243038095Y-98638095D01*
X242990476Y-98780952D01*
X242419047Y-99352380D01*
X243038095Y-99352380D01*
X243182380Y-189079047D02*
X242706190Y-189412380D01*
X243182380Y-189650476D02*
X242182380Y-189650476D01*
X242182380Y-189269523D01*
X242230000Y-189174285D01*
X242277619Y-189126666D01*
X242372857Y-189079047D01*
X242515714Y-189079047D01*
X242610952Y-189126666D01*
X242658571Y-189174285D01*
X242706190Y-189269523D01*
X242706190Y-189650476D01*
X242182380Y-188745714D02*
X242182380Y-188126666D01*
X242563333Y-188460000D01*
X242563333Y-188317142D01*
X242610952Y-188221904D01*
X242658571Y-188174285D01*
X242753809Y-188126666D01*
X242991904Y-188126666D01*
X243087142Y-188174285D01*
X243134761Y-188221904D01*
X243182380Y-188317142D01*
X243182380Y-188602857D01*
X243134761Y-188698095D01*
X243087142Y-188745714D01*
X242182380Y-187507619D02*
X242182380Y-187412380D01*
X242230000Y-187317142D01*
X242277619Y-187269523D01*
X242372857Y-187221904D01*
X242563333Y-187174285D01*
X242801428Y-187174285D01*
X242991904Y-187221904D01*
X243087142Y-187269523D01*
X243134761Y-187317142D01*
X243182380Y-187412380D01*
X243182380Y-187507619D01*
X243134761Y-187602857D01*
X243087142Y-187650476D01*
X242991904Y-187698095D01*
X242801428Y-187745714D01*
X242563333Y-187745714D01*
X242372857Y-187698095D01*
X242277619Y-187650476D01*
X242230000Y-187602857D01*
X242182380Y-187507619D01*
X243182380Y-186221904D02*
X243182380Y-186793333D01*
X243182380Y-186507619D02*
X242182380Y-186507619D01*
X242325238Y-186602857D01*
X242420476Y-186698095D01*
X242468095Y-186793333D01*
X250802380Y-189079047D02*
X250326190Y-189412380D01*
X250802380Y-189650476D02*
X249802380Y-189650476D01*
X249802380Y-189269523D01*
X249850000Y-189174285D01*
X249897619Y-189126666D01*
X249992857Y-189079047D01*
X250135714Y-189079047D01*
X250230952Y-189126666D01*
X250278571Y-189174285D01*
X250326190Y-189269523D01*
X250326190Y-189650476D01*
X249802380Y-188745714D02*
X249802380Y-188126666D01*
X250183333Y-188460000D01*
X250183333Y-188317142D01*
X250230952Y-188221904D01*
X250278571Y-188174285D01*
X250373809Y-188126666D01*
X250611904Y-188126666D01*
X250707142Y-188174285D01*
X250754761Y-188221904D01*
X250802380Y-188317142D01*
X250802380Y-188602857D01*
X250754761Y-188698095D01*
X250707142Y-188745714D01*
X249802380Y-187507619D02*
X249802380Y-187412380D01*
X249850000Y-187317142D01*
X249897619Y-187269523D01*
X249992857Y-187221904D01*
X250183333Y-187174285D01*
X250421428Y-187174285D01*
X250611904Y-187221904D01*
X250707142Y-187269523D01*
X250754761Y-187317142D01*
X250802380Y-187412380D01*
X250802380Y-187507619D01*
X250754761Y-187602857D01*
X250707142Y-187650476D01*
X250611904Y-187698095D01*
X250421428Y-187745714D01*
X250183333Y-187745714D01*
X249992857Y-187698095D01*
X249897619Y-187650476D01*
X249850000Y-187602857D01*
X249802380Y-187507619D01*
X249802380Y-186555238D02*
X249802380Y-186460000D01*
X249850000Y-186364761D01*
X249897619Y-186317142D01*
X249992857Y-186269523D01*
X250183333Y-186221904D01*
X250421428Y-186221904D01*
X250611904Y-186269523D01*
X250707142Y-186317142D01*
X250754761Y-186364761D01*
X250802380Y-186460000D01*
X250802380Y-186555238D01*
X250754761Y-186650476D01*
X250707142Y-186698095D01*
X250611904Y-186745714D01*
X250421428Y-186793333D01*
X250183333Y-186793333D01*
X249992857Y-186745714D01*
X249897619Y-186698095D01*
X249850000Y-186650476D01*
X249802380Y-186555238D01*
X238744285Y-110152380D02*
X238744285Y-110866666D01*
X238696666Y-111009523D01*
X238601428Y-111104761D01*
X238458571Y-111152380D01*
X238363333Y-111152380D01*
X239125238Y-110152380D02*
X239744285Y-110152380D01*
X239410952Y-110533333D01*
X239553809Y-110533333D01*
X239649047Y-110580952D01*
X239696666Y-110628571D01*
X239744285Y-110723809D01*
X239744285Y-110961904D01*
X239696666Y-111057142D01*
X239649047Y-111104761D01*
X239553809Y-111152380D01*
X239268095Y-111152380D01*
X239172857Y-111104761D01*
X239125238Y-111057142D01*
X240363333Y-110152380D02*
X240458571Y-110152380D01*
X240553809Y-110200000D01*
X240601428Y-110247619D01*
X240649047Y-110342857D01*
X240696666Y-110533333D01*
X240696666Y-110771428D01*
X240649047Y-110961904D01*
X240601428Y-111057142D01*
X240553809Y-111104761D01*
X240458571Y-111152380D01*
X240363333Y-111152380D01*
X240268095Y-111104761D01*
X240220476Y-111057142D01*
X240172857Y-110961904D01*
X240125238Y-110771428D01*
X240125238Y-110533333D01*
X240172857Y-110342857D01*
X240220476Y-110247619D01*
X240268095Y-110200000D01*
X240363333Y-110152380D01*
X241601428Y-110152380D02*
X241125238Y-110152380D01*
X241077619Y-110628571D01*
X241125238Y-110580952D01*
X241220476Y-110533333D01*
X241458571Y-110533333D01*
X241553809Y-110580952D01*
X241601428Y-110628571D01*
X241649047Y-110723809D01*
X241649047Y-110961904D01*
X241601428Y-111057142D01*
X241553809Y-111104761D01*
X241458571Y-111152380D01*
X241220476Y-111152380D01*
X241125238Y-111104761D01*
X241077619Y-111057142D01*
X240014285Y-191432380D02*
X240014285Y-192146666D01*
X239966666Y-192289523D01*
X239871428Y-192384761D01*
X239728571Y-192432380D01*
X239633333Y-192432380D01*
X240395238Y-191432380D02*
X241014285Y-191432380D01*
X240680952Y-191813333D01*
X240823809Y-191813333D01*
X240919047Y-191860952D01*
X240966666Y-191908571D01*
X241014285Y-192003809D01*
X241014285Y-192241904D01*
X240966666Y-192337142D01*
X240919047Y-192384761D01*
X240823809Y-192432380D01*
X240538095Y-192432380D01*
X240442857Y-192384761D01*
X240395238Y-192337142D01*
X241633333Y-191432380D02*
X241728571Y-191432380D01*
X241823809Y-191480000D01*
X241871428Y-191527619D01*
X241919047Y-191622857D01*
X241966666Y-191813333D01*
X241966666Y-192051428D01*
X241919047Y-192241904D01*
X241871428Y-192337142D01*
X241823809Y-192384761D01*
X241728571Y-192432380D01*
X241633333Y-192432380D01*
X241538095Y-192384761D01*
X241490476Y-192337142D01*
X241442857Y-192241904D01*
X241395238Y-192051428D01*
X241395238Y-191813333D01*
X241442857Y-191622857D01*
X241490476Y-191527619D01*
X241538095Y-191480000D01*
X241633333Y-191432380D01*
X242823809Y-191765714D02*
X242823809Y-192432380D01*
X242585714Y-191384761D02*
X242347619Y-192099047D01*
X242966666Y-192099047D01*
X232394285Y-191432380D02*
X232394285Y-192146666D01*
X232346666Y-192289523D01*
X232251428Y-192384761D01*
X232108571Y-192432380D01*
X232013333Y-192432380D01*
X232775238Y-191432380D02*
X233394285Y-191432380D01*
X233060952Y-191813333D01*
X233203809Y-191813333D01*
X233299047Y-191860952D01*
X233346666Y-191908571D01*
X233394285Y-192003809D01*
X233394285Y-192241904D01*
X233346666Y-192337142D01*
X233299047Y-192384761D01*
X233203809Y-192432380D01*
X232918095Y-192432380D01*
X232822857Y-192384761D01*
X232775238Y-192337142D01*
X234013333Y-191432380D02*
X234108571Y-191432380D01*
X234203809Y-191480000D01*
X234251428Y-191527619D01*
X234299047Y-191622857D01*
X234346666Y-191813333D01*
X234346666Y-192051428D01*
X234299047Y-192241904D01*
X234251428Y-192337142D01*
X234203809Y-192384761D01*
X234108571Y-192432380D01*
X234013333Y-192432380D01*
X233918095Y-192384761D01*
X233870476Y-192337142D01*
X233822857Y-192241904D01*
X233775238Y-192051428D01*
X233775238Y-191813333D01*
X233822857Y-191622857D01*
X233870476Y-191527619D01*
X233918095Y-191480000D01*
X234013333Y-191432380D01*
X234680000Y-191432380D02*
X235299047Y-191432380D01*
X234965714Y-191813333D01*
X235108571Y-191813333D01*
X235203809Y-191860952D01*
X235251428Y-191908571D01*
X235299047Y-192003809D01*
X235299047Y-192241904D01*
X235251428Y-192337142D01*
X235203809Y-192384761D01*
X235108571Y-192432380D01*
X234822857Y-192432380D01*
X234727619Y-192384761D01*
X234680000Y-192337142D01*
X247634285Y-191432380D02*
X247634285Y-192146666D01*
X247586666Y-192289523D01*
X247491428Y-192384761D01*
X247348571Y-192432380D01*
X247253333Y-192432380D01*
X248015238Y-191432380D02*
X248634285Y-191432380D01*
X248300952Y-191813333D01*
X248443809Y-191813333D01*
X248539047Y-191860952D01*
X248586666Y-191908571D01*
X248634285Y-192003809D01*
X248634285Y-192241904D01*
X248586666Y-192337142D01*
X248539047Y-192384761D01*
X248443809Y-192432380D01*
X248158095Y-192432380D01*
X248062857Y-192384761D01*
X248015238Y-192337142D01*
X249253333Y-191432380D02*
X249348571Y-191432380D01*
X249443809Y-191480000D01*
X249491428Y-191527619D01*
X249539047Y-191622857D01*
X249586666Y-191813333D01*
X249586666Y-192051428D01*
X249539047Y-192241904D01*
X249491428Y-192337142D01*
X249443809Y-192384761D01*
X249348571Y-192432380D01*
X249253333Y-192432380D01*
X249158095Y-192384761D01*
X249110476Y-192337142D01*
X249062857Y-192241904D01*
X249015238Y-192051428D01*
X249015238Y-191813333D01*
X249062857Y-191622857D01*
X249110476Y-191527619D01*
X249158095Y-191480000D01*
X249253333Y-191432380D01*
X249967619Y-191527619D02*
X250015238Y-191480000D01*
X250110476Y-191432380D01*
X250348571Y-191432380D01*
X250443809Y-191480000D01*
X250491428Y-191527619D01*
X250539047Y-191622857D01*
X250539047Y-191718095D01*
X250491428Y-191860952D01*
X249920000Y-192432380D01*
X250539047Y-192432380D01*
X224774285Y-191432380D02*
X224774285Y-192146666D01*
X224726666Y-192289523D01*
X224631428Y-192384761D01*
X224488571Y-192432380D01*
X224393333Y-192432380D01*
X225155238Y-191432380D02*
X225774285Y-191432380D01*
X225440952Y-191813333D01*
X225583809Y-191813333D01*
X225679047Y-191860952D01*
X225726666Y-191908571D01*
X225774285Y-192003809D01*
X225774285Y-192241904D01*
X225726666Y-192337142D01*
X225679047Y-192384761D01*
X225583809Y-192432380D01*
X225298095Y-192432380D01*
X225202857Y-192384761D01*
X225155238Y-192337142D01*
X226393333Y-191432380D02*
X226488571Y-191432380D01*
X226583809Y-191480000D01*
X226631428Y-191527619D01*
X226679047Y-191622857D01*
X226726666Y-191813333D01*
X226726666Y-192051428D01*
X226679047Y-192241904D01*
X226631428Y-192337142D01*
X226583809Y-192384761D01*
X226488571Y-192432380D01*
X226393333Y-192432380D01*
X226298095Y-192384761D01*
X226250476Y-192337142D01*
X226202857Y-192241904D01*
X226155238Y-192051428D01*
X226155238Y-191813333D01*
X226202857Y-191622857D01*
X226250476Y-191527619D01*
X226298095Y-191480000D01*
X226393333Y-191432380D01*
X227679047Y-192432380D02*
X227107619Y-192432380D01*
X227393333Y-192432380D02*
X227393333Y-191432380D01*
X227298095Y-191575238D01*
X227202857Y-191670476D01*
X227107619Y-191718095D01*
X173545714Y-147632380D02*
X173545714Y-148441904D01*
X173593333Y-148537142D01*
X173640952Y-148584761D01*
X173736190Y-148632380D01*
X173926666Y-148632380D01*
X174021904Y-148584761D01*
X174069523Y-148537142D01*
X174117142Y-148441904D01*
X174117142Y-147632380D01*
X175021904Y-147632380D02*
X174831428Y-147632380D01*
X174736190Y-147680000D01*
X174688571Y-147727619D01*
X174593333Y-147870476D01*
X174545714Y-148060952D01*
X174545714Y-148441904D01*
X174593333Y-148537142D01*
X174640952Y-148584761D01*
X174736190Y-148632380D01*
X174926666Y-148632380D01*
X175021904Y-148584761D01*
X175069523Y-148537142D01*
X175117142Y-148441904D01*
X175117142Y-148203809D01*
X175069523Y-148108571D01*
X175021904Y-148060952D01*
X174926666Y-148013333D01*
X174736190Y-148013333D01*
X174640952Y-148060952D01*
X174593333Y-148108571D01*
X174545714Y-148203809D01*
X175736190Y-147632380D02*
X175831428Y-147632380D01*
X175926666Y-147680000D01*
X175974285Y-147727619D01*
X176021904Y-147822857D01*
X176069523Y-148013333D01*
X176069523Y-148251428D01*
X176021904Y-148441904D01*
X175974285Y-148537142D01*
X175926666Y-148584761D01*
X175831428Y-148632380D01*
X175736190Y-148632380D01*
X175640952Y-148584761D01*
X175593333Y-148537142D01*
X175545714Y-148441904D01*
X175498095Y-148251428D01*
X175498095Y-148013333D01*
X175545714Y-147822857D01*
X175593333Y-147727619D01*
X175640952Y-147680000D01*
X175736190Y-147632380D01*
X177021904Y-148632380D02*
X176450476Y-148632380D01*
X176736190Y-148632380D02*
X176736190Y-147632380D01*
X176640952Y-147775238D01*
X176545714Y-147870476D01*
X176450476Y-147918095D01*
X154642380Y-156654285D02*
X155451904Y-156654285D01*
X155547142Y-156606666D01*
X155594761Y-156559047D01*
X155642380Y-156463809D01*
X155642380Y-156273333D01*
X155594761Y-156178095D01*
X155547142Y-156130476D01*
X155451904Y-156082857D01*
X154642380Y-156082857D01*
X154642380Y-155178095D02*
X154642380Y-155368571D01*
X154690000Y-155463809D01*
X154737619Y-155511428D01*
X154880476Y-155606666D01*
X155070952Y-155654285D01*
X155451904Y-155654285D01*
X155547142Y-155606666D01*
X155594761Y-155559047D01*
X155642380Y-155463809D01*
X155642380Y-155273333D01*
X155594761Y-155178095D01*
X155547142Y-155130476D01*
X155451904Y-155082857D01*
X155213809Y-155082857D01*
X155118571Y-155130476D01*
X155070952Y-155178095D01*
X155023333Y-155273333D01*
X155023333Y-155463809D01*
X155070952Y-155559047D01*
X155118571Y-155606666D01*
X155213809Y-155654285D01*
X154642380Y-154463809D02*
X154642380Y-154368571D01*
X154690000Y-154273333D01*
X154737619Y-154225714D01*
X154832857Y-154178095D01*
X155023333Y-154130476D01*
X155261428Y-154130476D01*
X155451904Y-154178095D01*
X155547142Y-154225714D01*
X155594761Y-154273333D01*
X155642380Y-154368571D01*
X155642380Y-154463809D01*
X155594761Y-154559047D01*
X155547142Y-154606666D01*
X155451904Y-154654285D01*
X155261428Y-154701904D01*
X155023333Y-154701904D01*
X154832857Y-154654285D01*
X154737619Y-154606666D01*
X154690000Y-154559047D01*
X154642380Y-154463809D01*
X154642380Y-153511428D02*
X154642380Y-153416190D01*
X154690000Y-153320952D01*
X154737619Y-153273333D01*
X154832857Y-153225714D01*
X155023333Y-153178095D01*
X155261428Y-153178095D01*
X155451904Y-153225714D01*
X155547142Y-153273333D01*
X155594761Y-153320952D01*
X155642380Y-153416190D01*
X155642380Y-153511428D01*
X155594761Y-153606666D01*
X155547142Y-153654285D01*
X155451904Y-153701904D01*
X155261428Y-153749523D01*
X155023333Y-153749523D01*
X154832857Y-153701904D01*
X154737619Y-153654285D01*
X154690000Y-153606666D01*
X154642380Y-153511428D01*
X150010952Y-152057380D02*
X149677619Y-151581190D01*
X149439523Y-152057380D02*
X149439523Y-151057380D01*
X149820476Y-151057380D01*
X149915714Y-151105000D01*
X149963333Y-151152619D01*
X150010952Y-151247857D01*
X150010952Y-151390714D01*
X149963333Y-151485952D01*
X149915714Y-151533571D01*
X149820476Y-151581190D01*
X149439523Y-151581190D01*
X150868095Y-151057380D02*
X150677619Y-151057380D01*
X150582380Y-151105000D01*
X150534761Y-151152619D01*
X150439523Y-151295476D01*
X150391904Y-151485952D01*
X150391904Y-151866904D01*
X150439523Y-151962142D01*
X150487142Y-152009761D01*
X150582380Y-152057380D01*
X150772857Y-152057380D01*
X150868095Y-152009761D01*
X150915714Y-151962142D01*
X150963333Y-151866904D01*
X150963333Y-151628809D01*
X150915714Y-151533571D01*
X150868095Y-151485952D01*
X150772857Y-151438333D01*
X150582380Y-151438333D01*
X150487142Y-151485952D01*
X150439523Y-151533571D01*
X150391904Y-151628809D01*
X151868095Y-151057380D02*
X151391904Y-151057380D01*
X151344285Y-151533571D01*
X151391904Y-151485952D01*
X151487142Y-151438333D01*
X151725238Y-151438333D01*
X151820476Y-151485952D01*
X151868095Y-151533571D01*
X151915714Y-151628809D01*
X151915714Y-151866904D01*
X151868095Y-151962142D01*
X151820476Y-152009761D01*
X151725238Y-152057380D01*
X151487142Y-152057380D01*
X151391904Y-152009761D01*
X151344285Y-151962142D01*
X152868095Y-152057380D02*
X152296666Y-152057380D01*
X152582380Y-152057380D02*
X152582380Y-151057380D01*
X152487142Y-151200238D01*
X152391904Y-151295476D01*
X152296666Y-151343095D01*
X150010952Y-148882380D02*
X149677619Y-148406190D01*
X149439523Y-148882380D02*
X149439523Y-147882380D01*
X149820476Y-147882380D01*
X149915714Y-147930000D01*
X149963333Y-147977619D01*
X150010952Y-148072857D01*
X150010952Y-148215714D01*
X149963333Y-148310952D01*
X149915714Y-148358571D01*
X149820476Y-148406190D01*
X149439523Y-148406190D01*
X150868095Y-147882380D02*
X150677619Y-147882380D01*
X150582380Y-147930000D01*
X150534761Y-147977619D01*
X150439523Y-148120476D01*
X150391904Y-148310952D01*
X150391904Y-148691904D01*
X150439523Y-148787142D01*
X150487142Y-148834761D01*
X150582380Y-148882380D01*
X150772857Y-148882380D01*
X150868095Y-148834761D01*
X150915714Y-148787142D01*
X150963333Y-148691904D01*
X150963333Y-148453809D01*
X150915714Y-148358571D01*
X150868095Y-148310952D01*
X150772857Y-148263333D01*
X150582380Y-148263333D01*
X150487142Y-148310952D01*
X150439523Y-148358571D01*
X150391904Y-148453809D01*
X151868095Y-147882380D02*
X151391904Y-147882380D01*
X151344285Y-148358571D01*
X151391904Y-148310952D01*
X151487142Y-148263333D01*
X151725238Y-148263333D01*
X151820476Y-148310952D01*
X151868095Y-148358571D01*
X151915714Y-148453809D01*
X151915714Y-148691904D01*
X151868095Y-148787142D01*
X151820476Y-148834761D01*
X151725238Y-148882380D01*
X151487142Y-148882380D01*
X151391904Y-148834761D01*
X151344285Y-148787142D01*
X152534761Y-147882380D02*
X152630000Y-147882380D01*
X152725238Y-147930000D01*
X152772857Y-147977619D01*
X152820476Y-148072857D01*
X152868095Y-148263333D01*
X152868095Y-148501428D01*
X152820476Y-148691904D01*
X152772857Y-148787142D01*
X152725238Y-148834761D01*
X152630000Y-148882380D01*
X152534761Y-148882380D01*
X152439523Y-148834761D01*
X152391904Y-148787142D01*
X152344285Y-148691904D01*
X152296666Y-148501428D01*
X152296666Y-148263333D01*
X152344285Y-148072857D01*
X152391904Y-147977619D01*
X152439523Y-147930000D01*
X152534761Y-147882380D01*
X186838571Y-167953095D02*
X186886190Y-167810238D01*
X186933809Y-167762619D01*
X187029047Y-167715000D01*
X187171904Y-167715000D01*
X187267142Y-167762619D01*
X187314761Y-167810238D01*
X187362380Y-167905476D01*
X187362380Y-168286428D01*
X186362380Y-168286428D01*
X186362380Y-167953095D01*
X186410000Y-167857857D01*
X186457619Y-167810238D01*
X186552857Y-167762619D01*
X186648095Y-167762619D01*
X186743333Y-167810238D01*
X186790952Y-167857857D01*
X186838571Y-167953095D01*
X186838571Y-168286428D01*
X186362380Y-167429285D02*
X186362380Y-166857857D01*
X187362380Y-167143571D02*
X186362380Y-167143571D01*
X186362380Y-166095952D02*
X186362380Y-166286428D01*
X186410000Y-166381666D01*
X186457619Y-166429285D01*
X186600476Y-166524523D01*
X186790952Y-166572142D01*
X187171904Y-166572142D01*
X187267142Y-166524523D01*
X187314761Y-166476904D01*
X187362380Y-166381666D01*
X187362380Y-166191190D01*
X187314761Y-166095952D01*
X187267142Y-166048333D01*
X187171904Y-166000714D01*
X186933809Y-166000714D01*
X186838571Y-166048333D01*
X186790952Y-166095952D01*
X186743333Y-166191190D01*
X186743333Y-166381666D01*
X186790952Y-166476904D01*
X186838571Y-166524523D01*
X186933809Y-166572142D01*
X186362380Y-165381666D02*
X186362380Y-165286428D01*
X186410000Y-165191190D01*
X186457619Y-165143571D01*
X186552857Y-165095952D01*
X186743333Y-165048333D01*
X186981428Y-165048333D01*
X187171904Y-165095952D01*
X187267142Y-165143571D01*
X187314761Y-165191190D01*
X187362380Y-165286428D01*
X187362380Y-165381666D01*
X187314761Y-165476904D01*
X187267142Y-165524523D01*
X187171904Y-165572142D01*
X186981428Y-165619761D01*
X186743333Y-165619761D01*
X186552857Y-165572142D01*
X186457619Y-165524523D01*
X186410000Y-165476904D01*
X186362380Y-165381666D01*
X186362380Y-164429285D02*
X186362380Y-164334047D01*
X186410000Y-164238809D01*
X186457619Y-164191190D01*
X186552857Y-164143571D01*
X186743333Y-164095952D01*
X186981428Y-164095952D01*
X187171904Y-164143571D01*
X187267142Y-164191190D01*
X187314761Y-164238809D01*
X187362380Y-164334047D01*
X187362380Y-164429285D01*
X187314761Y-164524523D01*
X187267142Y-164572142D01*
X187171904Y-164619761D01*
X186981428Y-164667380D01*
X186743333Y-164667380D01*
X186552857Y-164619761D01*
X186457619Y-164572142D01*
X186410000Y-164524523D01*
X186362380Y-164429285D01*
X190650952Y-124912380D02*
X190317619Y-124436190D01*
X190079523Y-124912380D02*
X190079523Y-123912380D01*
X190460476Y-123912380D01*
X190555714Y-123960000D01*
X190603333Y-124007619D01*
X190650952Y-124102857D01*
X190650952Y-124245714D01*
X190603333Y-124340952D01*
X190555714Y-124388571D01*
X190460476Y-124436190D01*
X190079523Y-124436190D01*
X191508095Y-123912380D02*
X191317619Y-123912380D01*
X191222380Y-123960000D01*
X191174761Y-124007619D01*
X191079523Y-124150476D01*
X191031904Y-124340952D01*
X191031904Y-124721904D01*
X191079523Y-124817142D01*
X191127142Y-124864761D01*
X191222380Y-124912380D01*
X191412857Y-124912380D01*
X191508095Y-124864761D01*
X191555714Y-124817142D01*
X191603333Y-124721904D01*
X191603333Y-124483809D01*
X191555714Y-124388571D01*
X191508095Y-124340952D01*
X191412857Y-124293333D01*
X191222380Y-124293333D01*
X191127142Y-124340952D01*
X191079523Y-124388571D01*
X191031904Y-124483809D01*
X192460476Y-124245714D02*
X192460476Y-124912380D01*
X192222380Y-123864761D02*
X191984285Y-124579047D01*
X192603333Y-124579047D01*
X193460476Y-123912380D02*
X192984285Y-123912380D01*
X192936666Y-124388571D01*
X192984285Y-124340952D01*
X193079523Y-124293333D01*
X193317619Y-124293333D01*
X193412857Y-124340952D01*
X193460476Y-124388571D01*
X193508095Y-124483809D01*
X193508095Y-124721904D01*
X193460476Y-124817142D01*
X193412857Y-124864761D01*
X193317619Y-124912380D01*
X193079523Y-124912380D01*
X192984285Y-124864761D01*
X192936666Y-124817142D01*
X185872380Y-134469047D02*
X185396190Y-134802380D01*
X185872380Y-135040476D02*
X184872380Y-135040476D01*
X184872380Y-134659523D01*
X184920000Y-134564285D01*
X184967619Y-134516666D01*
X185062857Y-134469047D01*
X185205714Y-134469047D01*
X185300952Y-134516666D01*
X185348571Y-134564285D01*
X185396190Y-134659523D01*
X185396190Y-135040476D01*
X184872380Y-133611904D02*
X184872380Y-133802380D01*
X184920000Y-133897619D01*
X184967619Y-133945238D01*
X185110476Y-134040476D01*
X185300952Y-134088095D01*
X185681904Y-134088095D01*
X185777142Y-134040476D01*
X185824761Y-133992857D01*
X185872380Y-133897619D01*
X185872380Y-133707142D01*
X185824761Y-133611904D01*
X185777142Y-133564285D01*
X185681904Y-133516666D01*
X185443809Y-133516666D01*
X185348571Y-133564285D01*
X185300952Y-133611904D01*
X185253333Y-133707142D01*
X185253333Y-133897619D01*
X185300952Y-133992857D01*
X185348571Y-134040476D01*
X185443809Y-134088095D01*
X185205714Y-132659523D02*
X185872380Y-132659523D01*
X184824761Y-132897619D02*
X185539047Y-133135714D01*
X185539047Y-132516666D01*
X185205714Y-131707142D02*
X185872380Y-131707142D01*
X184824761Y-131945238D02*
X185539047Y-132183333D01*
X185539047Y-131564285D01*
X190650952Y-127452380D02*
X190317619Y-126976190D01*
X190079523Y-127452380D02*
X190079523Y-126452380D01*
X190460476Y-126452380D01*
X190555714Y-126500000D01*
X190603333Y-126547619D01*
X190650952Y-126642857D01*
X190650952Y-126785714D01*
X190603333Y-126880952D01*
X190555714Y-126928571D01*
X190460476Y-126976190D01*
X190079523Y-126976190D01*
X191508095Y-126452380D02*
X191317619Y-126452380D01*
X191222380Y-126500000D01*
X191174761Y-126547619D01*
X191079523Y-126690476D01*
X191031904Y-126880952D01*
X191031904Y-127261904D01*
X191079523Y-127357142D01*
X191127142Y-127404761D01*
X191222380Y-127452380D01*
X191412857Y-127452380D01*
X191508095Y-127404761D01*
X191555714Y-127357142D01*
X191603333Y-127261904D01*
X191603333Y-127023809D01*
X191555714Y-126928571D01*
X191508095Y-126880952D01*
X191412857Y-126833333D01*
X191222380Y-126833333D01*
X191127142Y-126880952D01*
X191079523Y-126928571D01*
X191031904Y-127023809D01*
X192460476Y-126785714D02*
X192460476Y-127452380D01*
X192222380Y-126404761D02*
X191984285Y-127119047D01*
X192603333Y-127119047D01*
X192889047Y-126452380D02*
X193508095Y-126452380D01*
X193174761Y-126833333D01*
X193317619Y-126833333D01*
X193412857Y-126880952D01*
X193460476Y-126928571D01*
X193508095Y-127023809D01*
X193508095Y-127261904D01*
X193460476Y-127357142D01*
X193412857Y-127404761D01*
X193317619Y-127452380D01*
X193031904Y-127452380D01*
X192936666Y-127404761D01*
X192889047Y-127357142D01*
X170330952Y-124912380D02*
X169997619Y-124436190D01*
X169759523Y-124912380D02*
X169759523Y-123912380D01*
X170140476Y-123912380D01*
X170235714Y-123960000D01*
X170283333Y-124007619D01*
X170330952Y-124102857D01*
X170330952Y-124245714D01*
X170283333Y-124340952D01*
X170235714Y-124388571D01*
X170140476Y-124436190D01*
X169759523Y-124436190D01*
X171188095Y-123912380D02*
X170997619Y-123912380D01*
X170902380Y-123960000D01*
X170854761Y-124007619D01*
X170759523Y-124150476D01*
X170711904Y-124340952D01*
X170711904Y-124721904D01*
X170759523Y-124817142D01*
X170807142Y-124864761D01*
X170902380Y-124912380D01*
X171092857Y-124912380D01*
X171188095Y-124864761D01*
X171235714Y-124817142D01*
X171283333Y-124721904D01*
X171283333Y-124483809D01*
X171235714Y-124388571D01*
X171188095Y-124340952D01*
X171092857Y-124293333D01*
X170902380Y-124293333D01*
X170807142Y-124340952D01*
X170759523Y-124388571D01*
X170711904Y-124483809D01*
X172140476Y-124245714D02*
X172140476Y-124912380D01*
X171902380Y-123864761D02*
X171664285Y-124579047D01*
X172283333Y-124579047D01*
X172616666Y-124007619D02*
X172664285Y-123960000D01*
X172759523Y-123912380D01*
X172997619Y-123912380D01*
X173092857Y-123960000D01*
X173140476Y-124007619D01*
X173188095Y-124102857D01*
X173188095Y-124198095D01*
X173140476Y-124340952D01*
X172569047Y-124912380D01*
X173188095Y-124912380D01*
X178252380Y-134469047D02*
X177776190Y-134802380D01*
X178252380Y-135040476D02*
X177252380Y-135040476D01*
X177252380Y-134659523D01*
X177300000Y-134564285D01*
X177347619Y-134516666D01*
X177442857Y-134469047D01*
X177585714Y-134469047D01*
X177680952Y-134516666D01*
X177728571Y-134564285D01*
X177776190Y-134659523D01*
X177776190Y-135040476D01*
X177252380Y-133611904D02*
X177252380Y-133802380D01*
X177300000Y-133897619D01*
X177347619Y-133945238D01*
X177490476Y-134040476D01*
X177680952Y-134088095D01*
X178061904Y-134088095D01*
X178157142Y-134040476D01*
X178204761Y-133992857D01*
X178252380Y-133897619D01*
X178252380Y-133707142D01*
X178204761Y-133611904D01*
X178157142Y-133564285D01*
X178061904Y-133516666D01*
X177823809Y-133516666D01*
X177728571Y-133564285D01*
X177680952Y-133611904D01*
X177633333Y-133707142D01*
X177633333Y-133897619D01*
X177680952Y-133992857D01*
X177728571Y-134040476D01*
X177823809Y-134088095D01*
X177585714Y-132659523D02*
X178252380Y-132659523D01*
X177204761Y-132897619D02*
X177919047Y-133135714D01*
X177919047Y-132516666D01*
X178252380Y-131611904D02*
X178252380Y-132183333D01*
X178252380Y-131897619D02*
X177252380Y-131897619D01*
X177395238Y-131992857D01*
X177490476Y-132088095D01*
X177538095Y-132183333D01*
X170330952Y-127452380D02*
X169997619Y-126976190D01*
X169759523Y-127452380D02*
X169759523Y-126452380D01*
X170140476Y-126452380D01*
X170235714Y-126500000D01*
X170283333Y-126547619D01*
X170330952Y-126642857D01*
X170330952Y-126785714D01*
X170283333Y-126880952D01*
X170235714Y-126928571D01*
X170140476Y-126976190D01*
X169759523Y-126976190D01*
X171188095Y-126452380D02*
X170997619Y-126452380D01*
X170902380Y-126500000D01*
X170854761Y-126547619D01*
X170759523Y-126690476D01*
X170711904Y-126880952D01*
X170711904Y-127261904D01*
X170759523Y-127357142D01*
X170807142Y-127404761D01*
X170902380Y-127452380D01*
X171092857Y-127452380D01*
X171188095Y-127404761D01*
X171235714Y-127357142D01*
X171283333Y-127261904D01*
X171283333Y-127023809D01*
X171235714Y-126928571D01*
X171188095Y-126880952D01*
X171092857Y-126833333D01*
X170902380Y-126833333D01*
X170807142Y-126880952D01*
X170759523Y-126928571D01*
X170711904Y-127023809D01*
X172140476Y-126785714D02*
X172140476Y-127452380D01*
X171902380Y-126404761D02*
X171664285Y-127119047D01*
X172283333Y-127119047D01*
X172854761Y-126452380D02*
X172950000Y-126452380D01*
X173045238Y-126500000D01*
X173092857Y-126547619D01*
X173140476Y-126642857D01*
X173188095Y-126833333D01*
X173188095Y-127071428D01*
X173140476Y-127261904D01*
X173092857Y-127357142D01*
X173045238Y-127404761D01*
X172950000Y-127452380D01*
X172854761Y-127452380D01*
X172759523Y-127404761D01*
X172711904Y-127357142D01*
X172664285Y-127261904D01*
X172616666Y-127071428D01*
X172616666Y-126833333D01*
X172664285Y-126642857D01*
X172711904Y-126547619D01*
X172759523Y-126500000D01*
X172854761Y-126452380D01*
X180324285Y-119042380D02*
X180324285Y-119756666D01*
X180276666Y-119899523D01*
X180181428Y-119994761D01*
X180038571Y-120042380D01*
X179943333Y-120042380D01*
X181229047Y-119042380D02*
X181038571Y-119042380D01*
X180943333Y-119090000D01*
X180895714Y-119137619D01*
X180800476Y-119280476D01*
X180752857Y-119470952D01*
X180752857Y-119851904D01*
X180800476Y-119947142D01*
X180848095Y-119994761D01*
X180943333Y-120042380D01*
X181133809Y-120042380D01*
X181229047Y-119994761D01*
X181276666Y-119947142D01*
X181324285Y-119851904D01*
X181324285Y-119613809D01*
X181276666Y-119518571D01*
X181229047Y-119470952D01*
X181133809Y-119423333D01*
X180943333Y-119423333D01*
X180848095Y-119470952D01*
X180800476Y-119518571D01*
X180752857Y-119613809D01*
X182181428Y-119375714D02*
X182181428Y-120042380D01*
X181943333Y-118994761D02*
X181705238Y-119709047D01*
X182324285Y-119709047D01*
X182895714Y-119042380D02*
X182990952Y-119042380D01*
X183086190Y-119090000D01*
X183133809Y-119137619D01*
X183181428Y-119232857D01*
X183229047Y-119423333D01*
X183229047Y-119661428D01*
X183181428Y-119851904D01*
X183133809Y-119947142D01*
X183086190Y-119994761D01*
X182990952Y-120042380D01*
X182895714Y-120042380D01*
X182800476Y-119994761D01*
X182752857Y-119947142D01*
X182705238Y-119851904D01*
X182657619Y-119661428D01*
X182657619Y-119423333D01*
X182705238Y-119232857D01*
X182752857Y-119137619D01*
X182800476Y-119090000D01*
X182895714Y-119042380D01*
X249658095Y-69442380D02*
X249658095Y-68442380D01*
X249991428Y-69156666D01*
X250324761Y-68442380D01*
X250324761Y-69442380D01*
X251229523Y-68442380D02*
X251039047Y-68442380D01*
X250943809Y-68490000D01*
X250896190Y-68537619D01*
X250800952Y-68680476D01*
X250753333Y-68870952D01*
X250753333Y-69251904D01*
X250800952Y-69347142D01*
X250848571Y-69394761D01*
X250943809Y-69442380D01*
X251134285Y-69442380D01*
X251229523Y-69394761D01*
X251277142Y-69347142D01*
X251324761Y-69251904D01*
X251324761Y-69013809D01*
X251277142Y-68918571D01*
X251229523Y-68870952D01*
X251134285Y-68823333D01*
X250943809Y-68823333D01*
X250848571Y-68870952D01*
X250800952Y-68918571D01*
X250753333Y-69013809D01*
X251943809Y-68442380D02*
X252039047Y-68442380D01*
X252134285Y-68490000D01*
X252181904Y-68537619D01*
X252229523Y-68632857D01*
X252277142Y-68823333D01*
X252277142Y-69061428D01*
X252229523Y-69251904D01*
X252181904Y-69347142D01*
X252134285Y-69394761D01*
X252039047Y-69442380D01*
X251943809Y-69442380D01*
X251848571Y-69394761D01*
X251800952Y-69347142D01*
X251753333Y-69251904D01*
X251705714Y-69061428D01*
X251705714Y-68823333D01*
X251753333Y-68632857D01*
X251800952Y-68537619D01*
X251848571Y-68490000D01*
X251943809Y-68442380D01*
X252658095Y-68537619D02*
X252705714Y-68490000D01*
X252800952Y-68442380D01*
X253039047Y-68442380D01*
X253134285Y-68490000D01*
X253181904Y-68537619D01*
X253229523Y-68632857D01*
X253229523Y-68728095D01*
X253181904Y-68870952D01*
X252610476Y-69442380D01*
X253229523Y-69442380D01*
X249658095Y-60552380D02*
X249658095Y-59552380D01*
X249991428Y-60266666D01*
X250324761Y-59552380D01*
X250324761Y-60552380D01*
X251229523Y-59552380D02*
X251039047Y-59552380D01*
X250943809Y-59600000D01*
X250896190Y-59647619D01*
X250800952Y-59790476D01*
X250753333Y-59980952D01*
X250753333Y-60361904D01*
X250800952Y-60457142D01*
X250848571Y-60504761D01*
X250943809Y-60552380D01*
X251134285Y-60552380D01*
X251229523Y-60504761D01*
X251277142Y-60457142D01*
X251324761Y-60361904D01*
X251324761Y-60123809D01*
X251277142Y-60028571D01*
X251229523Y-59980952D01*
X251134285Y-59933333D01*
X250943809Y-59933333D01*
X250848571Y-59980952D01*
X250800952Y-60028571D01*
X250753333Y-60123809D01*
X251943809Y-59552380D02*
X252039047Y-59552380D01*
X252134285Y-59600000D01*
X252181904Y-59647619D01*
X252229523Y-59742857D01*
X252277142Y-59933333D01*
X252277142Y-60171428D01*
X252229523Y-60361904D01*
X252181904Y-60457142D01*
X252134285Y-60504761D01*
X252039047Y-60552380D01*
X251943809Y-60552380D01*
X251848571Y-60504761D01*
X251800952Y-60457142D01*
X251753333Y-60361904D01*
X251705714Y-60171428D01*
X251705714Y-59933333D01*
X251753333Y-59742857D01*
X251800952Y-59647619D01*
X251848571Y-59600000D01*
X251943809Y-59552380D01*
X253229523Y-60552380D02*
X252658095Y-60552380D01*
X252943809Y-60552380D02*
X252943809Y-59552380D01*
X252848571Y-59695238D01*
X252753333Y-59790476D01*
X252658095Y-59838095D01*
X249658095Y-51662380D02*
X249658095Y-50662380D01*
X249991428Y-51376666D01*
X250324761Y-50662380D01*
X250324761Y-51662380D01*
X251229523Y-50662380D02*
X251039047Y-50662380D01*
X250943809Y-50710000D01*
X250896190Y-50757619D01*
X250800952Y-50900476D01*
X250753333Y-51090952D01*
X250753333Y-51471904D01*
X250800952Y-51567142D01*
X250848571Y-51614761D01*
X250943809Y-51662380D01*
X251134285Y-51662380D01*
X251229523Y-51614761D01*
X251277142Y-51567142D01*
X251324761Y-51471904D01*
X251324761Y-51233809D01*
X251277142Y-51138571D01*
X251229523Y-51090952D01*
X251134285Y-51043333D01*
X250943809Y-51043333D01*
X250848571Y-51090952D01*
X250800952Y-51138571D01*
X250753333Y-51233809D01*
X251943809Y-50662380D02*
X252039047Y-50662380D01*
X252134285Y-50710000D01*
X252181904Y-50757619D01*
X252229523Y-50852857D01*
X252277142Y-51043333D01*
X252277142Y-51281428D01*
X252229523Y-51471904D01*
X252181904Y-51567142D01*
X252134285Y-51614761D01*
X252039047Y-51662380D01*
X251943809Y-51662380D01*
X251848571Y-51614761D01*
X251800952Y-51567142D01*
X251753333Y-51471904D01*
X251705714Y-51281428D01*
X251705714Y-51043333D01*
X251753333Y-50852857D01*
X251800952Y-50757619D01*
X251848571Y-50710000D01*
X251943809Y-50662380D01*
X252896190Y-50662380D02*
X252991428Y-50662380D01*
X253086666Y-50710000D01*
X253134285Y-50757619D01*
X253181904Y-50852857D01*
X253229523Y-51043333D01*
X253229523Y-51281428D01*
X253181904Y-51471904D01*
X253134285Y-51567142D01*
X253086666Y-51614761D01*
X252991428Y-51662380D01*
X252896190Y-51662380D01*
X252800952Y-51614761D01*
X252753333Y-51567142D01*
X252705714Y-51471904D01*
X252658095Y-51281428D01*
X252658095Y-51043333D01*
X252705714Y-50852857D01*
X252753333Y-50757619D01*
X252800952Y-50710000D01*
X252896190Y-50662380D01*
X44380952Y-64132380D02*
X44047619Y-63656190D01*
X43809523Y-64132380D02*
X43809523Y-63132380D01*
X44190476Y-63132380D01*
X44285714Y-63180000D01*
X44333333Y-63227619D01*
X44380952Y-63322857D01*
X44380952Y-63465714D01*
X44333333Y-63560952D01*
X44285714Y-63608571D01*
X44190476Y-63656190D01*
X43809523Y-63656190D01*
X45238095Y-63132380D02*
X45047619Y-63132380D01*
X44952380Y-63180000D01*
X44904761Y-63227619D01*
X44809523Y-63370476D01*
X44761904Y-63560952D01*
X44761904Y-63941904D01*
X44809523Y-64037142D01*
X44857142Y-64084761D01*
X44952380Y-64132380D01*
X45142857Y-64132380D01*
X45238095Y-64084761D01*
X45285714Y-64037142D01*
X45333333Y-63941904D01*
X45333333Y-63703809D01*
X45285714Y-63608571D01*
X45238095Y-63560952D01*
X45142857Y-63513333D01*
X44952380Y-63513333D01*
X44857142Y-63560952D01*
X44809523Y-63608571D01*
X44761904Y-63703809D01*
X45666666Y-63132380D02*
X46285714Y-63132380D01*
X45952380Y-63513333D01*
X46095238Y-63513333D01*
X46190476Y-63560952D01*
X46238095Y-63608571D01*
X46285714Y-63703809D01*
X46285714Y-63941904D01*
X46238095Y-64037142D01*
X46190476Y-64084761D01*
X46095238Y-64132380D01*
X45809523Y-64132380D01*
X45714285Y-64084761D01*
X45666666Y-64037142D01*
X47238095Y-64132380D02*
X46666666Y-64132380D01*
X46952380Y-64132380D02*
X46952380Y-63132380D01*
X46857142Y-63275238D01*
X46761904Y-63370476D01*
X46666666Y-63418095D01*
X44380952Y-67882380D02*
X44047619Y-67406190D01*
X43809523Y-67882380D02*
X43809523Y-66882380D01*
X44190476Y-66882380D01*
X44285714Y-66930000D01*
X44333333Y-66977619D01*
X44380952Y-67072857D01*
X44380952Y-67215714D01*
X44333333Y-67310952D01*
X44285714Y-67358571D01*
X44190476Y-67406190D01*
X43809523Y-67406190D01*
X45238095Y-66882380D02*
X45047619Y-66882380D01*
X44952380Y-66930000D01*
X44904761Y-66977619D01*
X44809523Y-67120476D01*
X44761904Y-67310952D01*
X44761904Y-67691904D01*
X44809523Y-67787142D01*
X44857142Y-67834761D01*
X44952380Y-67882380D01*
X45142857Y-67882380D01*
X45238095Y-67834761D01*
X45285714Y-67787142D01*
X45333333Y-67691904D01*
X45333333Y-67453809D01*
X45285714Y-67358571D01*
X45238095Y-67310952D01*
X45142857Y-67263333D01*
X44952380Y-67263333D01*
X44857142Y-67310952D01*
X44809523Y-67358571D01*
X44761904Y-67453809D01*
X45666666Y-66882380D02*
X46285714Y-66882380D01*
X45952380Y-67263333D01*
X46095238Y-67263333D01*
X46190476Y-67310952D01*
X46238095Y-67358571D01*
X46285714Y-67453809D01*
X46285714Y-67691904D01*
X46238095Y-67787142D01*
X46190476Y-67834761D01*
X46095238Y-67882380D01*
X45809523Y-67882380D01*
X45714285Y-67834761D01*
X45666666Y-67787142D01*
X46904761Y-66882380D02*
X47000000Y-66882380D01*
X47095238Y-66930000D01*
X47142857Y-66977619D01*
X47190476Y-67072857D01*
X47238095Y-67263333D01*
X47238095Y-67501428D01*
X47190476Y-67691904D01*
X47142857Y-67787142D01*
X47095238Y-67834761D01*
X47000000Y-67882380D01*
X46904761Y-67882380D01*
X46809523Y-67834761D01*
X46761904Y-67787142D01*
X46714285Y-67691904D01*
X46666666Y-67501428D01*
X46666666Y-67263333D01*
X46714285Y-67072857D01*
X46761904Y-66977619D01*
X46809523Y-66930000D01*
X46904761Y-66882380D01*
X40952380Y-68035714D02*
X41666666Y-68035714D01*
X41809523Y-68083333D01*
X41904761Y-68178571D01*
X41952380Y-68321428D01*
X41952380Y-68416666D01*
X40952380Y-67130952D02*
X40952380Y-67321428D01*
X41000000Y-67416666D01*
X41047619Y-67464285D01*
X41190476Y-67559523D01*
X41380952Y-67607142D01*
X41761904Y-67607142D01*
X41857142Y-67559523D01*
X41904761Y-67511904D01*
X41952380Y-67416666D01*
X41952380Y-67226190D01*
X41904761Y-67130952D01*
X41857142Y-67083333D01*
X41761904Y-67035714D01*
X41523809Y-67035714D01*
X41428571Y-67083333D01*
X41380952Y-67130952D01*
X41333333Y-67226190D01*
X41333333Y-67416666D01*
X41380952Y-67511904D01*
X41428571Y-67559523D01*
X41523809Y-67607142D01*
X40952380Y-66702380D02*
X40952380Y-66083333D01*
X41333333Y-66416666D01*
X41333333Y-66273809D01*
X41380952Y-66178571D01*
X41428571Y-66130952D01*
X41523809Y-66083333D01*
X41761904Y-66083333D01*
X41857142Y-66130952D01*
X41904761Y-66178571D01*
X41952380Y-66273809D01*
X41952380Y-66559523D01*
X41904761Y-66654761D01*
X41857142Y-66702380D01*
X40952380Y-65464285D02*
X40952380Y-65369047D01*
X41000000Y-65273809D01*
X41047619Y-65226190D01*
X41142857Y-65178571D01*
X41333333Y-65130952D01*
X41571428Y-65130952D01*
X41761904Y-65178571D01*
X41857142Y-65226190D01*
X41904761Y-65273809D01*
X41952380Y-65369047D01*
X41952380Y-65464285D01*
X41904761Y-65559523D01*
X41857142Y-65607142D01*
X41761904Y-65654761D01*
X41571428Y-65702380D01*
X41333333Y-65702380D01*
X41142857Y-65654761D01*
X41047619Y-65607142D01*
X41000000Y-65559523D01*
X40952380Y-65464285D01*
X33512380Y-81295714D02*
X34226666Y-81295714D01*
X34369523Y-81343333D01*
X34464761Y-81438571D01*
X34512380Y-81581428D01*
X34512380Y-81676666D01*
X33512380Y-80390952D02*
X33512380Y-80581428D01*
X33560000Y-80676666D01*
X33607619Y-80724285D01*
X33750476Y-80819523D01*
X33940952Y-80867142D01*
X34321904Y-80867142D01*
X34417142Y-80819523D01*
X34464761Y-80771904D01*
X34512380Y-80676666D01*
X34512380Y-80486190D01*
X34464761Y-80390952D01*
X34417142Y-80343333D01*
X34321904Y-80295714D01*
X34083809Y-80295714D01*
X33988571Y-80343333D01*
X33940952Y-80390952D01*
X33893333Y-80486190D01*
X33893333Y-80676666D01*
X33940952Y-80771904D01*
X33988571Y-80819523D01*
X34083809Y-80867142D01*
X33607619Y-79914761D02*
X33560000Y-79867142D01*
X33512380Y-79771904D01*
X33512380Y-79533809D01*
X33560000Y-79438571D01*
X33607619Y-79390952D01*
X33702857Y-79343333D01*
X33798095Y-79343333D01*
X33940952Y-79390952D01*
X34512380Y-79962380D01*
X34512380Y-79343333D01*
X34512380Y-78390952D02*
X34512380Y-78962380D01*
X34512380Y-78676666D02*
X33512380Y-78676666D01*
X33655238Y-78771904D01*
X33750476Y-78867142D01*
X33798095Y-78962380D01*
X33512380Y-102885714D02*
X34226666Y-102885714D01*
X34369523Y-102933333D01*
X34464761Y-103028571D01*
X34512380Y-103171428D01*
X34512380Y-103266666D01*
X33512380Y-101980952D02*
X33512380Y-102171428D01*
X33560000Y-102266666D01*
X33607619Y-102314285D01*
X33750476Y-102409523D01*
X33940952Y-102457142D01*
X34321904Y-102457142D01*
X34417142Y-102409523D01*
X34464761Y-102361904D01*
X34512380Y-102266666D01*
X34512380Y-102076190D01*
X34464761Y-101980952D01*
X34417142Y-101933333D01*
X34321904Y-101885714D01*
X34083809Y-101885714D01*
X33988571Y-101933333D01*
X33940952Y-101980952D01*
X33893333Y-102076190D01*
X33893333Y-102266666D01*
X33940952Y-102361904D01*
X33988571Y-102409523D01*
X34083809Y-102457142D01*
X33607619Y-101504761D02*
X33560000Y-101457142D01*
X33512380Y-101361904D01*
X33512380Y-101123809D01*
X33560000Y-101028571D01*
X33607619Y-100980952D01*
X33702857Y-100933333D01*
X33798095Y-100933333D01*
X33940952Y-100980952D01*
X34512380Y-101552380D01*
X34512380Y-100933333D01*
X33512380Y-100314285D02*
X33512380Y-100219047D01*
X33560000Y-100123809D01*
X33607619Y-100076190D01*
X33702857Y-100028571D01*
X33893333Y-99980952D01*
X34131428Y-99980952D01*
X34321904Y-100028571D01*
X34417142Y-100076190D01*
X34464761Y-100123809D01*
X34512380Y-100219047D01*
X34512380Y-100314285D01*
X34464761Y-100409523D01*
X34417142Y-100457142D01*
X34321904Y-100504761D01*
X34131428Y-100552380D01*
X33893333Y-100552380D01*
X33702857Y-100504761D01*
X33607619Y-100457142D01*
X33560000Y-100409523D01*
X33512380Y-100314285D01*
X64452380Y-110505714D02*
X65166666Y-110505714D01*
X65309523Y-110553333D01*
X65404761Y-110648571D01*
X65452380Y-110791428D01*
X65452380Y-110886666D01*
X64452380Y-109600952D02*
X64452380Y-109791428D01*
X64500000Y-109886666D01*
X64547619Y-109934285D01*
X64690476Y-110029523D01*
X64880952Y-110077142D01*
X65261904Y-110077142D01*
X65357142Y-110029523D01*
X65404761Y-109981904D01*
X65452380Y-109886666D01*
X65452380Y-109696190D01*
X65404761Y-109600952D01*
X65357142Y-109553333D01*
X65261904Y-109505714D01*
X65023809Y-109505714D01*
X64928571Y-109553333D01*
X64880952Y-109600952D01*
X64833333Y-109696190D01*
X64833333Y-109886666D01*
X64880952Y-109981904D01*
X64928571Y-110029523D01*
X65023809Y-110077142D01*
X65452380Y-108553333D02*
X65452380Y-109124761D01*
X65452380Y-108839047D02*
X64452380Y-108839047D01*
X64595238Y-108934285D01*
X64690476Y-109029523D01*
X64738095Y-109124761D01*
X65452380Y-107600952D02*
X65452380Y-108172380D01*
X65452380Y-107886666D02*
X64452380Y-107886666D01*
X64595238Y-107981904D01*
X64690476Y-108077142D01*
X64738095Y-108172380D01*
X61912380Y-130825714D02*
X62626666Y-130825714D01*
X62769523Y-130873333D01*
X62864761Y-130968571D01*
X62912380Y-131111428D01*
X62912380Y-131206666D01*
X61912380Y-129920952D02*
X61912380Y-130111428D01*
X61960000Y-130206666D01*
X62007619Y-130254285D01*
X62150476Y-130349523D01*
X62340952Y-130397142D01*
X62721904Y-130397142D01*
X62817142Y-130349523D01*
X62864761Y-130301904D01*
X62912380Y-130206666D01*
X62912380Y-130016190D01*
X62864761Y-129920952D01*
X62817142Y-129873333D01*
X62721904Y-129825714D01*
X62483809Y-129825714D01*
X62388571Y-129873333D01*
X62340952Y-129920952D01*
X62293333Y-130016190D01*
X62293333Y-130206666D01*
X62340952Y-130301904D01*
X62388571Y-130349523D01*
X62483809Y-130397142D01*
X62912380Y-128873333D02*
X62912380Y-129444761D01*
X62912380Y-129159047D02*
X61912380Y-129159047D01*
X62055238Y-129254285D01*
X62150476Y-129349523D01*
X62198095Y-129444761D01*
X61912380Y-128254285D02*
X61912380Y-128159047D01*
X61960000Y-128063809D01*
X62007619Y-128016190D01*
X62102857Y-127968571D01*
X62293333Y-127920952D01*
X62531428Y-127920952D01*
X62721904Y-127968571D01*
X62817142Y-128016190D01*
X62864761Y-128063809D01*
X62912380Y-128159047D01*
X62912380Y-128254285D01*
X62864761Y-128349523D01*
X62817142Y-128397142D01*
X62721904Y-128444761D01*
X62531428Y-128492380D01*
X62293333Y-128492380D01*
X62102857Y-128444761D01*
X62007619Y-128397142D01*
X61960000Y-128349523D01*
X61912380Y-128254285D01*
X31272380Y-177785714D02*
X31986666Y-177785714D01*
X32129523Y-177833333D01*
X32224761Y-177928571D01*
X32272380Y-178071428D01*
X32272380Y-178166666D01*
X31272380Y-176880952D02*
X31272380Y-177071428D01*
X31320000Y-177166666D01*
X31367619Y-177214285D01*
X31510476Y-177309523D01*
X31700952Y-177357142D01*
X32081904Y-177357142D01*
X32177142Y-177309523D01*
X32224761Y-177261904D01*
X32272380Y-177166666D01*
X32272380Y-176976190D01*
X32224761Y-176880952D01*
X32177142Y-176833333D01*
X32081904Y-176785714D01*
X31843809Y-176785714D01*
X31748571Y-176833333D01*
X31700952Y-176880952D01*
X31653333Y-176976190D01*
X31653333Y-177166666D01*
X31700952Y-177261904D01*
X31748571Y-177309523D01*
X31843809Y-177357142D01*
X31272380Y-176166666D02*
X31272380Y-176071428D01*
X31320000Y-175976190D01*
X31367619Y-175928571D01*
X31462857Y-175880952D01*
X31653333Y-175833333D01*
X31891428Y-175833333D01*
X32081904Y-175880952D01*
X32177142Y-175928571D01*
X32224761Y-175976190D01*
X32272380Y-176071428D01*
X32272380Y-176166666D01*
X32224761Y-176261904D01*
X32177142Y-176309523D01*
X32081904Y-176357142D01*
X31891428Y-176404761D01*
X31653333Y-176404761D01*
X31462857Y-176357142D01*
X31367619Y-176309523D01*
X31320000Y-176261904D01*
X31272380Y-176166666D01*
X31272380Y-175214285D02*
X31272380Y-175119047D01*
X31320000Y-175023809D01*
X31367619Y-174976190D01*
X31462857Y-174928571D01*
X31653333Y-174880952D01*
X31891428Y-174880952D01*
X32081904Y-174928571D01*
X32177142Y-174976190D01*
X32224761Y-175023809D01*
X32272380Y-175119047D01*
X32272380Y-175214285D01*
X32224761Y-175309523D01*
X32177142Y-175357142D01*
X32081904Y-175404761D01*
X31891428Y-175452380D01*
X31653333Y-175452380D01*
X31462857Y-175404761D01*
X31367619Y-175357142D01*
X31320000Y-175309523D01*
X31272380Y-175214285D01*
X123285714Y-113952380D02*
X123285714Y-114761904D01*
X123333333Y-114857142D01*
X123380952Y-114904761D01*
X123476190Y-114952380D01*
X123666666Y-114952380D01*
X123761904Y-114904761D01*
X123809523Y-114857142D01*
X123857142Y-114761904D01*
X123857142Y-113952380D01*
X124285714Y-114047619D02*
X124333333Y-114000000D01*
X124428571Y-113952380D01*
X124666666Y-113952380D01*
X124761904Y-114000000D01*
X124809523Y-114047619D01*
X124857142Y-114142857D01*
X124857142Y-114238095D01*
X124809523Y-114380952D01*
X124238095Y-114952380D01*
X124857142Y-114952380D01*
X125476190Y-113952380D02*
X125571428Y-113952380D01*
X125666666Y-114000000D01*
X125714285Y-114047619D01*
X125761904Y-114142857D01*
X125809523Y-114333333D01*
X125809523Y-114571428D01*
X125761904Y-114761904D01*
X125714285Y-114857142D01*
X125666666Y-114904761D01*
X125571428Y-114952380D01*
X125476190Y-114952380D01*
X125380952Y-114904761D01*
X125333333Y-114857142D01*
X125285714Y-114761904D01*
X125238095Y-114571428D01*
X125238095Y-114333333D01*
X125285714Y-114142857D01*
X125333333Y-114047619D01*
X125380952Y-114000000D01*
X125476190Y-113952380D01*
X126428571Y-113952380D02*
X126523809Y-113952380D01*
X126619047Y-114000000D01*
X126666666Y-114047619D01*
X126714285Y-114142857D01*
X126761904Y-114333333D01*
X126761904Y-114571428D01*
X126714285Y-114761904D01*
X126666666Y-114857142D01*
X126619047Y-114904761D01*
X126523809Y-114952380D01*
X126428571Y-114952380D01*
X126333333Y-114904761D01*
X126285714Y-114857142D01*
X126238095Y-114761904D01*
X126190476Y-114571428D01*
X126190476Y-114333333D01*
X126238095Y-114142857D01*
X126285714Y-114047619D01*
X126333333Y-114000000D01*
X126428571Y-113952380D01*
X127032380Y-136119047D02*
X126556190Y-136452380D01*
X127032380Y-136690476D02*
X126032380Y-136690476D01*
X126032380Y-136309523D01*
X126080000Y-136214285D01*
X126127619Y-136166666D01*
X126222857Y-136119047D01*
X126365714Y-136119047D01*
X126460952Y-136166666D01*
X126508571Y-136214285D01*
X126556190Y-136309523D01*
X126556190Y-136690476D01*
X126127619Y-135738095D02*
X126080000Y-135690476D01*
X126032380Y-135595238D01*
X126032380Y-135357142D01*
X126080000Y-135261904D01*
X126127619Y-135214285D01*
X126222857Y-135166666D01*
X126318095Y-135166666D01*
X126460952Y-135214285D01*
X127032380Y-135785714D01*
X127032380Y-135166666D01*
X127032380Y-134214285D02*
X127032380Y-134785714D01*
X127032380Y-134500000D02*
X126032380Y-134500000D01*
X126175238Y-134595238D01*
X126270476Y-134690476D01*
X126318095Y-134785714D01*
X126032380Y-133880952D02*
X126032380Y-133214285D01*
X127032380Y-133642857D01*
X135888832Y-139778595D02*
X135989847Y-139206175D01*
X135484771Y-139374534D02*
X136191877Y-138667427D01*
X136461251Y-138936801D01*
X136494923Y-139037816D01*
X136494923Y-139105160D01*
X136461251Y-139206175D01*
X136360236Y-139307190D01*
X136259221Y-139340862D01*
X136191877Y-139340862D01*
X136090862Y-139307190D01*
X135821488Y-139037816D01*
X136797969Y-139408206D02*
X136865312Y-139408206D01*
X136966328Y-139441877D01*
X137134687Y-139610236D01*
X137168358Y-139711251D01*
X137168358Y-139778595D01*
X137134687Y-139879610D01*
X137067343Y-139946954D01*
X136932656Y-140014297D01*
X136124534Y-140014297D01*
X136562267Y-140452030D01*
X137235702Y-141125465D02*
X136831641Y-140721404D01*
X137033671Y-140923435D02*
X137740778Y-140216328D01*
X137572419Y-140250000D01*
X137437732Y-140249999D01*
X137336717Y-140216328D01*
X138548900Y-141024450D02*
X138414213Y-140889763D01*
X138313198Y-140856091D01*
X138245854Y-140856091D01*
X138077496Y-140889763D01*
X137909137Y-140990778D01*
X137639763Y-141260152D01*
X137606091Y-141361167D01*
X137606091Y-141428511D01*
X137639763Y-141529526D01*
X137774450Y-141664213D01*
X137875465Y-141697885D01*
X137942809Y-141697885D01*
X138043824Y-141664213D01*
X138212183Y-141495854D01*
X138245854Y-141394839D01*
X138245854Y-141327496D01*
X138212183Y-141226480D01*
X138077496Y-141091793D01*
X137976480Y-141058122D01*
X137909137Y-141058122D01*
X137808122Y-141091793D01*
X229004952Y-114309142D02*
X228957333Y-114356761D01*
X228814476Y-114404380D01*
X228719238Y-114404380D01*
X228576380Y-114356761D01*
X228481142Y-114261523D01*
X228433523Y-114166285D01*
X228385904Y-113975809D01*
X228385904Y-113832952D01*
X228433523Y-113642476D01*
X228481142Y-113547238D01*
X228576380Y-113452000D01*
X228719238Y-113404380D01*
X228814476Y-113404380D01*
X228957333Y-113452000D01*
X229004952Y-113499619D01*
X229338285Y-113404380D02*
X229957333Y-113404380D01*
X229624000Y-113785333D01*
X229766857Y-113785333D01*
X229862095Y-113832952D01*
X229909714Y-113880571D01*
X229957333Y-113975809D01*
X229957333Y-114213904D01*
X229909714Y-114309142D01*
X229862095Y-114356761D01*
X229766857Y-114404380D01*
X229481142Y-114404380D01*
X229385904Y-114356761D01*
X229338285Y-114309142D01*
X230576380Y-113404380D02*
X230671619Y-113404380D01*
X230766857Y-113452000D01*
X230814476Y-113499619D01*
X230862095Y-113594857D01*
X230909714Y-113785333D01*
X230909714Y-114023428D01*
X230862095Y-114213904D01*
X230814476Y-114309142D01*
X230766857Y-114356761D01*
X230671619Y-114404380D01*
X230576380Y-114404380D01*
X230481142Y-114356761D01*
X230433523Y-114309142D01*
X230385904Y-114213904D01*
X230338285Y-114023428D01*
X230338285Y-113785333D01*
X230385904Y-113594857D01*
X230433523Y-113499619D01*
X230481142Y-113452000D01*
X230576380Y-113404380D01*
X231766857Y-113737714D02*
X231766857Y-114404380D01*
X231528761Y-113356761D02*
X231290666Y-114071047D01*
X231909714Y-114071047D01*
X232052952Y-105353142D02*
X232005333Y-105400761D01*
X231862476Y-105448380D01*
X231767238Y-105448380D01*
X231624380Y-105400761D01*
X231529142Y-105305523D01*
X231481523Y-105210285D01*
X231433904Y-105019809D01*
X231433904Y-104876952D01*
X231481523Y-104686476D01*
X231529142Y-104591238D01*
X231624380Y-104496000D01*
X231767238Y-104448380D01*
X231862476Y-104448380D01*
X232005333Y-104496000D01*
X232052952Y-104543619D01*
X232386285Y-104448380D02*
X233005333Y-104448380D01*
X232672000Y-104829333D01*
X232814857Y-104829333D01*
X232910095Y-104876952D01*
X232957714Y-104924571D01*
X233005333Y-105019809D01*
X233005333Y-105257904D01*
X232957714Y-105353142D01*
X232910095Y-105400761D01*
X232814857Y-105448380D01*
X232529142Y-105448380D01*
X232433904Y-105400761D01*
X232386285Y-105353142D01*
X233624380Y-104448380D02*
X233719619Y-104448380D01*
X233814857Y-104496000D01*
X233862476Y-104543619D01*
X233910095Y-104638857D01*
X233957714Y-104829333D01*
X233957714Y-105067428D01*
X233910095Y-105257904D01*
X233862476Y-105353142D01*
X233814857Y-105400761D01*
X233719619Y-105448380D01*
X233624380Y-105448380D01*
X233529142Y-105400761D01*
X233481523Y-105353142D01*
X233433904Y-105257904D01*
X233386285Y-105067428D01*
X233386285Y-104829333D01*
X233433904Y-104638857D01*
X233481523Y-104543619D01*
X233529142Y-104496000D01*
X233624380Y-104448380D01*
X234291047Y-104448380D02*
X234910095Y-104448380D01*
X234576761Y-104829333D01*
X234719619Y-104829333D01*
X234814857Y-104876952D01*
X234862476Y-104924571D01*
X234910095Y-105019809D01*
X234910095Y-105257904D01*
X234862476Y-105353142D01*
X234814857Y-105400761D01*
X234719619Y-105448380D01*
X234433904Y-105448380D01*
X234338666Y-105400761D01*
X234291047Y-105353142D01*
X256690952Y-99257142D02*
X256643333Y-99304761D01*
X256500476Y-99352380D01*
X256405238Y-99352380D01*
X256262380Y-99304761D01*
X256167142Y-99209523D01*
X256119523Y-99114285D01*
X256071904Y-98923809D01*
X256071904Y-98780952D01*
X256119523Y-98590476D01*
X256167142Y-98495238D01*
X256262380Y-98400000D01*
X256405238Y-98352380D01*
X256500476Y-98352380D01*
X256643333Y-98400000D01*
X256690952Y-98447619D01*
X257024285Y-98352380D02*
X257643333Y-98352380D01*
X257310000Y-98733333D01*
X257452857Y-98733333D01*
X257548095Y-98780952D01*
X257595714Y-98828571D01*
X257643333Y-98923809D01*
X257643333Y-99161904D01*
X257595714Y-99257142D01*
X257548095Y-99304761D01*
X257452857Y-99352380D01*
X257167142Y-99352380D01*
X257071904Y-99304761D01*
X257024285Y-99257142D01*
X258262380Y-98352380D02*
X258357619Y-98352380D01*
X258452857Y-98400000D01*
X258500476Y-98447619D01*
X258548095Y-98542857D01*
X258595714Y-98733333D01*
X258595714Y-98971428D01*
X258548095Y-99161904D01*
X258500476Y-99257142D01*
X258452857Y-99304761D01*
X258357619Y-99352380D01*
X258262380Y-99352380D01*
X258167142Y-99304761D01*
X258119523Y-99257142D01*
X258071904Y-99161904D01*
X258024285Y-98971428D01*
X258024285Y-98733333D01*
X258071904Y-98542857D01*
X258119523Y-98447619D01*
X258167142Y-98400000D01*
X258262380Y-98352380D01*
X258976666Y-98447619D02*
X259024285Y-98400000D01*
X259119523Y-98352380D01*
X259357619Y-98352380D01*
X259452857Y-98400000D01*
X259500476Y-98447619D01*
X259548095Y-98542857D01*
X259548095Y-98638095D01*
X259500476Y-98780952D01*
X258929047Y-99352380D01*
X259548095Y-99352380D01*
X110847142Y-137771047D02*
X110894761Y-137818666D01*
X110942380Y-137961523D01*
X110942380Y-138056761D01*
X110894761Y-138199619D01*
X110799523Y-138294857D01*
X110704285Y-138342476D01*
X110513809Y-138390095D01*
X110370952Y-138390095D01*
X110180476Y-138342476D01*
X110085238Y-138294857D01*
X109990000Y-138199619D01*
X109942380Y-138056761D01*
X109942380Y-137961523D01*
X109990000Y-137818666D01*
X110037619Y-137771047D01*
X110275714Y-136913904D02*
X110942380Y-136913904D01*
X109894761Y-137152000D02*
X110609047Y-137390095D01*
X110609047Y-136771047D01*
X109942380Y-136199619D02*
X109942380Y-136104380D01*
X109990000Y-136009142D01*
X110037619Y-135961523D01*
X110132857Y-135913904D01*
X110323333Y-135866285D01*
X110561428Y-135866285D01*
X110751904Y-135913904D01*
X110847142Y-135961523D01*
X110894761Y-136009142D01*
X110942380Y-136104380D01*
X110942380Y-136199619D01*
X110894761Y-136294857D01*
X110847142Y-136342476D01*
X110751904Y-136390095D01*
X110561428Y-136437714D01*
X110323333Y-136437714D01*
X110132857Y-136390095D01*
X110037619Y-136342476D01*
X109990000Y-136294857D01*
X109942380Y-136199619D01*
X109942380Y-135009142D02*
X109942380Y-135199619D01*
X109990000Y-135294857D01*
X110037619Y-135342476D01*
X110180476Y-135437714D01*
X110370952Y-135485333D01*
X110751904Y-135485333D01*
X110847142Y-135437714D01*
X110894761Y-135390095D01*
X110942380Y-135294857D01*
X110942380Y-135104380D01*
X110894761Y-135009142D01*
X110847142Y-134961523D01*
X110751904Y-134913904D01*
X110513809Y-134913904D01*
X110418571Y-134961523D01*
X110370952Y-135009142D01*
X110323333Y-135104380D01*
X110323333Y-135294857D01*
X110370952Y-135390095D01*
X110418571Y-135437714D01*
X110513809Y-135485333D01*
X96369142Y-138279047D02*
X96416761Y-138326666D01*
X96464380Y-138469523D01*
X96464380Y-138564761D01*
X96416761Y-138707619D01*
X96321523Y-138802857D01*
X96226285Y-138850476D01*
X96035809Y-138898095D01*
X95892952Y-138898095D01*
X95702476Y-138850476D01*
X95607238Y-138802857D01*
X95512000Y-138707619D01*
X95464380Y-138564761D01*
X95464380Y-138469523D01*
X95512000Y-138326666D01*
X95559619Y-138279047D01*
X95797714Y-137421904D02*
X96464380Y-137421904D01*
X95416761Y-137660000D02*
X96131047Y-137898095D01*
X96131047Y-137279047D01*
X95464380Y-136707619D02*
X95464380Y-136612380D01*
X95512000Y-136517142D01*
X95559619Y-136469523D01*
X95654857Y-136421904D01*
X95845333Y-136374285D01*
X96083428Y-136374285D01*
X96273904Y-136421904D01*
X96369142Y-136469523D01*
X96416761Y-136517142D01*
X96464380Y-136612380D01*
X96464380Y-136707619D01*
X96416761Y-136802857D01*
X96369142Y-136850476D01*
X96273904Y-136898095D01*
X96083428Y-136945714D01*
X95845333Y-136945714D01*
X95654857Y-136898095D01*
X95559619Y-136850476D01*
X95512000Y-136802857D01*
X95464380Y-136707619D01*
X95464380Y-135469523D02*
X95464380Y-135945714D01*
X95940571Y-135993333D01*
X95892952Y-135945714D01*
X95845333Y-135850476D01*
X95845333Y-135612380D01*
X95892952Y-135517142D01*
X95940571Y-135469523D01*
X96035809Y-135421904D01*
X96273904Y-135421904D01*
X96369142Y-135469523D01*
X96416761Y-135517142D01*
X96464380Y-135612380D01*
X96464380Y-135850476D01*
X96416761Y-135945714D01*
X96369142Y-135993333D01*
X89765142Y-138279047D02*
X89812761Y-138326666D01*
X89860380Y-138469523D01*
X89860380Y-138564761D01*
X89812761Y-138707619D01*
X89717523Y-138802857D01*
X89622285Y-138850476D01*
X89431809Y-138898095D01*
X89288952Y-138898095D01*
X89098476Y-138850476D01*
X89003238Y-138802857D01*
X88908000Y-138707619D01*
X88860380Y-138564761D01*
X88860380Y-138469523D01*
X88908000Y-138326666D01*
X88955619Y-138279047D01*
X89193714Y-137421904D02*
X89860380Y-137421904D01*
X88812761Y-137660000D02*
X89527047Y-137898095D01*
X89527047Y-137279047D01*
X88860380Y-136707619D02*
X88860380Y-136612380D01*
X88908000Y-136517142D01*
X88955619Y-136469523D01*
X89050857Y-136421904D01*
X89241333Y-136374285D01*
X89479428Y-136374285D01*
X89669904Y-136421904D01*
X89765142Y-136469523D01*
X89812761Y-136517142D01*
X89860380Y-136612380D01*
X89860380Y-136707619D01*
X89812761Y-136802857D01*
X89765142Y-136850476D01*
X89669904Y-136898095D01*
X89479428Y-136945714D01*
X89241333Y-136945714D01*
X89050857Y-136898095D01*
X88955619Y-136850476D01*
X88908000Y-136802857D01*
X88860380Y-136707619D01*
X89193714Y-135517142D02*
X89860380Y-135517142D01*
X88812761Y-135755238D02*
X89527047Y-135993333D01*
X89527047Y-135374285D01*
X98194952Y-114657142D02*
X98147333Y-114704761D01*
X98004476Y-114752380D01*
X97909238Y-114752380D01*
X97766380Y-114704761D01*
X97671142Y-114609523D01*
X97623523Y-114514285D01*
X97575904Y-114323809D01*
X97575904Y-114180952D01*
X97623523Y-113990476D01*
X97671142Y-113895238D01*
X97766380Y-113800000D01*
X97909238Y-113752380D01*
X98004476Y-113752380D01*
X98147333Y-113800000D01*
X98194952Y-113847619D01*
X99052095Y-114085714D02*
X99052095Y-114752380D01*
X98814000Y-113704761D02*
X98575904Y-114419047D01*
X99194952Y-114419047D01*
X99766380Y-113752380D02*
X99861619Y-113752380D01*
X99956857Y-113800000D01*
X100004476Y-113847619D01*
X100052095Y-113942857D01*
X100099714Y-114133333D01*
X100099714Y-114371428D01*
X100052095Y-114561904D01*
X100004476Y-114657142D01*
X99956857Y-114704761D01*
X99861619Y-114752380D01*
X99766380Y-114752380D01*
X99671142Y-114704761D01*
X99623523Y-114657142D01*
X99575904Y-114561904D01*
X99528285Y-114371428D01*
X99528285Y-114133333D01*
X99575904Y-113942857D01*
X99623523Y-113847619D01*
X99671142Y-113800000D01*
X99766380Y-113752380D01*
X100433047Y-113752380D02*
X101052095Y-113752380D01*
X100718761Y-114133333D01*
X100861619Y-114133333D01*
X100956857Y-114180952D01*
X101004476Y-114228571D01*
X101052095Y-114323809D01*
X101052095Y-114561904D01*
X101004476Y-114657142D01*
X100956857Y-114704761D01*
X100861619Y-114752380D01*
X100575904Y-114752380D01*
X100480666Y-114704761D01*
X100433047Y-114657142D01*
X91082952Y-114657142D02*
X91035333Y-114704761D01*
X90892476Y-114752380D01*
X90797238Y-114752380D01*
X90654380Y-114704761D01*
X90559142Y-114609523D01*
X90511523Y-114514285D01*
X90463904Y-114323809D01*
X90463904Y-114180952D01*
X90511523Y-113990476D01*
X90559142Y-113895238D01*
X90654380Y-113800000D01*
X90797238Y-113752380D01*
X90892476Y-113752380D01*
X91035333Y-113800000D01*
X91082952Y-113847619D01*
X91940095Y-114085714D02*
X91940095Y-114752380D01*
X91702000Y-113704761D02*
X91463904Y-114419047D01*
X92082952Y-114419047D01*
X92654380Y-113752380D02*
X92749619Y-113752380D01*
X92844857Y-113800000D01*
X92892476Y-113847619D01*
X92940095Y-113942857D01*
X92987714Y-114133333D01*
X92987714Y-114371428D01*
X92940095Y-114561904D01*
X92892476Y-114657142D01*
X92844857Y-114704761D01*
X92749619Y-114752380D01*
X92654380Y-114752380D01*
X92559142Y-114704761D01*
X92511523Y-114657142D01*
X92463904Y-114561904D01*
X92416285Y-114371428D01*
X92416285Y-114133333D01*
X92463904Y-113942857D01*
X92511523Y-113847619D01*
X92559142Y-113800000D01*
X92654380Y-113752380D01*
X93368666Y-113847619D02*
X93416285Y-113800000D01*
X93511523Y-113752380D01*
X93749619Y-113752380D01*
X93844857Y-113800000D01*
X93892476Y-113847619D01*
X93940095Y-113942857D01*
X93940095Y-114038095D01*
X93892476Y-114180952D01*
X93321047Y-114752380D01*
X93940095Y-114752380D01*
X91082952Y-133961142D02*
X91035333Y-134008761D01*
X90892476Y-134056380D01*
X90797238Y-134056380D01*
X90654380Y-134008761D01*
X90559142Y-133913523D01*
X90511523Y-133818285D01*
X90463904Y-133627809D01*
X90463904Y-133484952D01*
X90511523Y-133294476D01*
X90559142Y-133199238D01*
X90654380Y-133104000D01*
X90797238Y-133056380D01*
X90892476Y-133056380D01*
X91035333Y-133104000D01*
X91082952Y-133151619D01*
X91940095Y-133389714D02*
X91940095Y-134056380D01*
X91702000Y-133008761D02*
X91463904Y-133723047D01*
X92082952Y-133723047D01*
X92654380Y-133056380D02*
X92749619Y-133056380D01*
X92844857Y-133104000D01*
X92892476Y-133151619D01*
X92940095Y-133246857D01*
X92987714Y-133437333D01*
X92987714Y-133675428D01*
X92940095Y-133865904D01*
X92892476Y-133961142D01*
X92844857Y-134008761D01*
X92749619Y-134056380D01*
X92654380Y-134056380D01*
X92559142Y-134008761D01*
X92511523Y-133961142D01*
X92463904Y-133865904D01*
X92416285Y-133675428D01*
X92416285Y-133437333D01*
X92463904Y-133246857D01*
X92511523Y-133151619D01*
X92559142Y-133104000D01*
X92654380Y-133056380D01*
X93940095Y-134056380D02*
X93368666Y-134056380D01*
X93654380Y-134056380D02*
X93654380Y-133056380D01*
X93559142Y-133199238D01*
X93463904Y-133294476D01*
X93368666Y-133342095D01*
X98194952Y-133961142D02*
X98147333Y-134008761D01*
X98004476Y-134056380D01*
X97909238Y-134056380D01*
X97766380Y-134008761D01*
X97671142Y-133913523D01*
X97623523Y-133818285D01*
X97575904Y-133627809D01*
X97575904Y-133484952D01*
X97623523Y-133294476D01*
X97671142Y-133199238D01*
X97766380Y-133104000D01*
X97909238Y-133056380D01*
X98004476Y-133056380D01*
X98147333Y-133104000D01*
X98194952Y-133151619D01*
X99052095Y-133389714D02*
X99052095Y-134056380D01*
X98814000Y-133008761D02*
X98575904Y-133723047D01*
X99194952Y-133723047D01*
X99766380Y-133056380D02*
X99861619Y-133056380D01*
X99956857Y-133104000D01*
X100004476Y-133151619D01*
X100052095Y-133246857D01*
X100099714Y-133437333D01*
X100099714Y-133675428D01*
X100052095Y-133865904D01*
X100004476Y-133961142D01*
X99956857Y-134008761D01*
X99861619Y-134056380D01*
X99766380Y-134056380D01*
X99671142Y-134008761D01*
X99623523Y-133961142D01*
X99575904Y-133865904D01*
X99528285Y-133675428D01*
X99528285Y-133437333D01*
X99575904Y-133246857D01*
X99623523Y-133151619D01*
X99671142Y-133104000D01*
X99766380Y-133056380D01*
X100718761Y-133056380D02*
X100814000Y-133056380D01*
X100909238Y-133104000D01*
X100956857Y-133151619D01*
X101004476Y-133246857D01*
X101052095Y-133437333D01*
X101052095Y-133675428D01*
X101004476Y-133865904D01*
X100956857Y-133961142D01*
X100909238Y-134008761D01*
X100814000Y-134056380D01*
X100718761Y-134056380D01*
X100623523Y-134008761D01*
X100575904Y-133961142D01*
X100528285Y-133865904D01*
X100480666Y-133675428D01*
X100480666Y-133437333D01*
X100528285Y-133246857D01*
X100575904Y-133151619D01*
X100623523Y-133104000D01*
X100718761Y-133056380D01*
X228560380Y-111188285D02*
X229369904Y-111188285D01*
X229465142Y-111140666D01*
X229512761Y-111093047D01*
X229560380Y-110997809D01*
X229560380Y-110807333D01*
X229512761Y-110712095D01*
X229465142Y-110664476D01*
X229369904Y-110616857D01*
X228560380Y-110616857D01*
X228560380Y-110235904D02*
X228560380Y-109616857D01*
X228941333Y-109950190D01*
X228941333Y-109807333D01*
X228988952Y-109712095D01*
X229036571Y-109664476D01*
X229131809Y-109616857D01*
X229369904Y-109616857D01*
X229465142Y-109664476D01*
X229512761Y-109712095D01*
X229560380Y-109807333D01*
X229560380Y-110093047D01*
X229512761Y-110188285D01*
X229465142Y-110235904D01*
X228560380Y-108997809D02*
X228560380Y-108902571D01*
X228608000Y-108807333D01*
X228655619Y-108759714D01*
X228750857Y-108712095D01*
X228941333Y-108664476D01*
X229179428Y-108664476D01*
X229369904Y-108712095D01*
X229465142Y-108759714D01*
X229512761Y-108807333D01*
X229560380Y-108902571D01*
X229560380Y-108997809D01*
X229512761Y-109093047D01*
X229465142Y-109140666D01*
X229369904Y-109188285D01*
X229179428Y-109235904D01*
X228941333Y-109235904D01*
X228750857Y-109188285D01*
X228655619Y-109140666D01*
X228608000Y-109093047D01*
X228560380Y-108997809D01*
X228655619Y-108283523D02*
X228608000Y-108235904D01*
X228560380Y-108140666D01*
X228560380Y-107902571D01*
X228608000Y-107807333D01*
X228655619Y-107759714D01*
X228750857Y-107712095D01*
X228846095Y-107712095D01*
X228988952Y-107759714D01*
X229560380Y-108331142D01*
X229560380Y-107712095D01*
X248475714Y-97452380D02*
X248475714Y-98261904D01*
X248523333Y-98357142D01*
X248570952Y-98404761D01*
X248666190Y-98452380D01*
X248856666Y-98452380D01*
X248951904Y-98404761D01*
X248999523Y-98357142D01*
X249047142Y-98261904D01*
X249047142Y-97452380D01*
X249428095Y-97452380D02*
X250047142Y-97452380D01*
X249713809Y-97833333D01*
X249856666Y-97833333D01*
X249951904Y-97880952D01*
X249999523Y-97928571D01*
X250047142Y-98023809D01*
X250047142Y-98261904D01*
X249999523Y-98357142D01*
X249951904Y-98404761D01*
X249856666Y-98452380D01*
X249570952Y-98452380D01*
X249475714Y-98404761D01*
X249428095Y-98357142D01*
X250666190Y-97452380D02*
X250761428Y-97452380D01*
X250856666Y-97500000D01*
X250904285Y-97547619D01*
X250951904Y-97642857D01*
X250999523Y-97833333D01*
X250999523Y-98071428D01*
X250951904Y-98261904D01*
X250904285Y-98357142D01*
X250856666Y-98404761D01*
X250761428Y-98452380D01*
X250666190Y-98452380D01*
X250570952Y-98404761D01*
X250523333Y-98357142D01*
X250475714Y-98261904D01*
X250428095Y-98071428D01*
X250428095Y-97833333D01*
X250475714Y-97642857D01*
X250523333Y-97547619D01*
X250570952Y-97500000D01*
X250666190Y-97452380D01*
X251951904Y-98452380D02*
X251380476Y-98452380D01*
X251666190Y-98452380D02*
X251666190Y-97452380D01*
X251570952Y-97595238D01*
X251475714Y-97690476D01*
X251380476Y-97738095D01*
X57442380Y-148947047D02*
X56966190Y-149280380D01*
X57442380Y-149518476D02*
X56442380Y-149518476D01*
X56442380Y-149137523D01*
X56490000Y-149042285D01*
X56537619Y-148994666D01*
X56632857Y-148947047D01*
X56775714Y-148947047D01*
X56870952Y-148994666D01*
X56918571Y-149042285D01*
X56966190Y-149137523D01*
X56966190Y-149518476D01*
X56442380Y-148042285D02*
X56442380Y-148518476D01*
X56918571Y-148566095D01*
X56870952Y-148518476D01*
X56823333Y-148423238D01*
X56823333Y-148185142D01*
X56870952Y-148089904D01*
X56918571Y-148042285D01*
X57013809Y-147994666D01*
X57251904Y-147994666D01*
X57347142Y-148042285D01*
X57394761Y-148089904D01*
X57442380Y-148185142D01*
X57442380Y-148423238D01*
X57394761Y-148518476D01*
X57347142Y-148566095D01*
X56442380Y-147375619D02*
X56442380Y-147280380D01*
X56490000Y-147185142D01*
X56537619Y-147137523D01*
X56632857Y-147089904D01*
X56823333Y-147042285D01*
X57061428Y-147042285D01*
X57251904Y-147089904D01*
X57347142Y-147137523D01*
X57394761Y-147185142D01*
X57442380Y-147280380D01*
X57442380Y-147375619D01*
X57394761Y-147470857D01*
X57347142Y-147518476D01*
X57251904Y-147566095D01*
X57061428Y-147613714D01*
X56823333Y-147613714D01*
X56632857Y-147566095D01*
X56537619Y-147518476D01*
X56490000Y-147470857D01*
X56442380Y-147375619D01*
X56442380Y-146708952D02*
X56442380Y-146089904D01*
X56823333Y-146423238D01*
X56823333Y-146280380D01*
X56870952Y-146185142D01*
X56918571Y-146137523D01*
X57013809Y-146089904D01*
X57251904Y-146089904D01*
X57347142Y-146137523D01*
X57394761Y-146185142D01*
X57442380Y-146280380D01*
X57442380Y-146566095D01*
X57394761Y-146661333D01*
X57347142Y-146708952D01*
X58872380Y-156313047D02*
X58396190Y-156646380D01*
X58872380Y-156884476D02*
X57872380Y-156884476D01*
X57872380Y-156503523D01*
X57920000Y-156408285D01*
X57967619Y-156360666D01*
X58062857Y-156313047D01*
X58205714Y-156313047D01*
X58300952Y-156360666D01*
X58348571Y-156408285D01*
X58396190Y-156503523D01*
X58396190Y-156884476D01*
X57872380Y-155408285D02*
X57872380Y-155884476D01*
X58348571Y-155932095D01*
X58300952Y-155884476D01*
X58253333Y-155789238D01*
X58253333Y-155551142D01*
X58300952Y-155455904D01*
X58348571Y-155408285D01*
X58443809Y-155360666D01*
X58681904Y-155360666D01*
X58777142Y-155408285D01*
X58824761Y-155455904D01*
X58872380Y-155551142D01*
X58872380Y-155789238D01*
X58824761Y-155884476D01*
X58777142Y-155932095D01*
X57872380Y-154741619D02*
X57872380Y-154646380D01*
X57920000Y-154551142D01*
X57967619Y-154503523D01*
X58062857Y-154455904D01*
X58253333Y-154408285D01*
X58491428Y-154408285D01*
X58681904Y-154455904D01*
X58777142Y-154503523D01*
X58824761Y-154551142D01*
X58872380Y-154646380D01*
X58872380Y-154741619D01*
X58824761Y-154836857D01*
X58777142Y-154884476D01*
X58681904Y-154932095D01*
X58491428Y-154979714D01*
X58253333Y-154979714D01*
X58062857Y-154932095D01*
X57967619Y-154884476D01*
X57920000Y-154836857D01*
X57872380Y-154741619D01*
X57967619Y-154027333D02*
X57920000Y-153979714D01*
X57872380Y-153884476D01*
X57872380Y-153646380D01*
X57920000Y-153551142D01*
X57967619Y-153503523D01*
X58062857Y-153455904D01*
X58158095Y-153455904D01*
X58300952Y-153503523D01*
X58872380Y-154074952D01*
X58872380Y-153455904D01*
X57094380Y-157075047D02*
X56618190Y-157408380D01*
X57094380Y-157646476D02*
X56094380Y-157646476D01*
X56094380Y-157265523D01*
X56142000Y-157170285D01*
X56189619Y-157122666D01*
X56284857Y-157075047D01*
X56427714Y-157075047D01*
X56522952Y-157122666D01*
X56570571Y-157170285D01*
X56618190Y-157265523D01*
X56618190Y-157646476D01*
X56094380Y-156170285D02*
X56094380Y-156646476D01*
X56570571Y-156694095D01*
X56522952Y-156646476D01*
X56475333Y-156551238D01*
X56475333Y-156313142D01*
X56522952Y-156217904D01*
X56570571Y-156170285D01*
X56665809Y-156122666D01*
X56903904Y-156122666D01*
X56999142Y-156170285D01*
X57046761Y-156217904D01*
X57094380Y-156313142D01*
X57094380Y-156551238D01*
X57046761Y-156646476D01*
X56999142Y-156694095D01*
X56094380Y-155503619D02*
X56094380Y-155408380D01*
X56142000Y-155313142D01*
X56189619Y-155265523D01*
X56284857Y-155217904D01*
X56475333Y-155170285D01*
X56713428Y-155170285D01*
X56903904Y-155217904D01*
X56999142Y-155265523D01*
X57046761Y-155313142D01*
X57094380Y-155408380D01*
X57094380Y-155503619D01*
X57046761Y-155598857D01*
X56999142Y-155646476D01*
X56903904Y-155694095D01*
X56713428Y-155741714D01*
X56475333Y-155741714D01*
X56284857Y-155694095D01*
X56189619Y-155646476D01*
X56142000Y-155598857D01*
X56094380Y-155503619D01*
X57094380Y-154217904D02*
X57094380Y-154789333D01*
X57094380Y-154503619D02*
X56094380Y-154503619D01*
X56237238Y-154598857D01*
X56332476Y-154694095D01*
X56380095Y-154789333D01*
X144288095Y-133062380D02*
X144954761Y-134062380D01*
X144954761Y-133062380D02*
X144288095Y-134062380D01*
X145288095Y-133157619D02*
X145335714Y-133110000D01*
X145430952Y-133062380D01*
X145669047Y-133062380D01*
X145764285Y-133110000D01*
X145811904Y-133157619D01*
X145859523Y-133252857D01*
X145859523Y-133348095D01*
X145811904Y-133490952D01*
X145240476Y-134062380D01*
X145859523Y-134062380D01*
X146478571Y-133062380D02*
X146573809Y-133062380D01*
X146669047Y-133110000D01*
X146716666Y-133157619D01*
X146764285Y-133252857D01*
X146811904Y-133443333D01*
X146811904Y-133681428D01*
X146764285Y-133871904D01*
X146716666Y-133967142D01*
X146669047Y-134014761D01*
X146573809Y-134062380D01*
X146478571Y-134062380D01*
X146383333Y-134014761D01*
X146335714Y-133967142D01*
X146288095Y-133871904D01*
X146240476Y-133681428D01*
X146240476Y-133443333D01*
X146288095Y-133252857D01*
X146335714Y-133157619D01*
X146383333Y-133110000D01*
X146478571Y-133062380D01*
X147430952Y-133062380D02*
X147526190Y-133062380D01*
X147621428Y-133110000D01*
X147669047Y-133157619D01*
X147716666Y-133252857D01*
X147764285Y-133443333D01*
X147764285Y-133681428D01*
X147716666Y-133871904D01*
X147669047Y-133967142D01*
X147621428Y-134014761D01*
X147526190Y-134062380D01*
X147430952Y-134062380D01*
X147335714Y-134014761D01*
X147288095Y-133967142D01*
X147240476Y-133871904D01*
X147192857Y-133681428D01*
X147192857Y-133443333D01*
X147240476Y-133252857D01*
X147288095Y-133157619D01*
X147335714Y-133110000D01*
X147430952Y-133062380D01*
X114906280Y-137443852D02*
X114333860Y-137342837D01*
X114502219Y-137847913D02*
X113795112Y-137140807D01*
X114064486Y-136871433D01*
X114165501Y-136837761D01*
X114232845Y-136837761D01*
X114333860Y-136871433D01*
X114434875Y-136972448D01*
X114468547Y-137073463D01*
X114468547Y-137140807D01*
X114434875Y-137241822D01*
X114165501Y-137511196D01*
X114535891Y-136534715D02*
X114535891Y-136467372D01*
X114569562Y-136366356D01*
X114737921Y-136197997D01*
X114838936Y-136164326D01*
X114906280Y-136164326D01*
X115007295Y-136197997D01*
X115074639Y-136265341D01*
X115141982Y-136400028D01*
X115141982Y-137208150D01*
X115579715Y-136770417D01*
X116253150Y-136096982D02*
X115849089Y-136501043D01*
X116051120Y-136299013D02*
X115344013Y-135591906D01*
X115377684Y-135760265D01*
X115377684Y-135894952D01*
X115344013Y-135995967D01*
X116387837Y-135019486D02*
X116859242Y-135490891D01*
X115950104Y-134918471D02*
X116286822Y-135591906D01*
X116724555Y-135154173D01*
X68770714Y-155162380D02*
X68770714Y-155971904D01*
X68818333Y-156067142D01*
X68865952Y-156114761D01*
X68961190Y-156162380D01*
X69151666Y-156162380D01*
X69246904Y-156114761D01*
X69294523Y-156067142D01*
X69342142Y-155971904D01*
X69342142Y-155162380D01*
X70294523Y-155162380D02*
X69818333Y-155162380D01*
X69770714Y-155638571D01*
X69818333Y-155590952D01*
X69913571Y-155543333D01*
X70151666Y-155543333D01*
X70246904Y-155590952D01*
X70294523Y-155638571D01*
X70342142Y-155733809D01*
X70342142Y-155971904D01*
X70294523Y-156067142D01*
X70246904Y-156114761D01*
X70151666Y-156162380D01*
X69913571Y-156162380D01*
X69818333Y-156114761D01*
X69770714Y-156067142D01*
X70961190Y-155162380D02*
X71056428Y-155162380D01*
X71151666Y-155210000D01*
X71199285Y-155257619D01*
X71246904Y-155352857D01*
X71294523Y-155543333D01*
X71294523Y-155781428D01*
X71246904Y-155971904D01*
X71199285Y-156067142D01*
X71151666Y-156114761D01*
X71056428Y-156162380D01*
X70961190Y-156162380D01*
X70865952Y-156114761D01*
X70818333Y-156067142D01*
X70770714Y-155971904D01*
X70723095Y-155781428D01*
X70723095Y-155543333D01*
X70770714Y-155352857D01*
X70818333Y-155257619D01*
X70865952Y-155210000D01*
X70961190Y-155162380D01*
X71913571Y-155162380D02*
X72008809Y-155162380D01*
X72104047Y-155210000D01*
X72151666Y-155257619D01*
X72199285Y-155352857D01*
X72246904Y-155543333D01*
X72246904Y-155781428D01*
X72199285Y-155971904D01*
X72151666Y-156067142D01*
X72104047Y-156114761D01*
X72008809Y-156162380D01*
X71913571Y-156162380D01*
X71818333Y-156114761D01*
X71770714Y-156067142D01*
X71723095Y-155971904D01*
X71675476Y-155781428D01*
X71675476Y-155543333D01*
X71723095Y-155352857D01*
X71770714Y-155257619D01*
X71818333Y-155210000D01*
X71913571Y-155162380D01*
X71130952Y-157452380D02*
X70797619Y-156976190D01*
X70559523Y-157452380D02*
X70559523Y-156452380D01*
X70940476Y-156452380D01*
X71035714Y-156500000D01*
X71083333Y-156547619D01*
X71130952Y-156642857D01*
X71130952Y-156785714D01*
X71083333Y-156880952D01*
X71035714Y-156928571D01*
X70940476Y-156976190D01*
X70559523Y-156976190D01*
X72035714Y-156452380D02*
X71559523Y-156452380D01*
X71511904Y-156928571D01*
X71559523Y-156880952D01*
X71654761Y-156833333D01*
X71892857Y-156833333D01*
X71988095Y-156880952D01*
X72035714Y-156928571D01*
X72083333Y-157023809D01*
X72083333Y-157261904D01*
X72035714Y-157357142D01*
X71988095Y-157404761D01*
X71892857Y-157452380D01*
X71654761Y-157452380D01*
X71559523Y-157404761D01*
X71511904Y-157357142D01*
X72702380Y-156452380D02*
X72797619Y-156452380D01*
X72892857Y-156500000D01*
X72940476Y-156547619D01*
X72988095Y-156642857D01*
X73035714Y-156833333D01*
X73035714Y-157071428D01*
X72988095Y-157261904D01*
X72940476Y-157357142D01*
X72892857Y-157404761D01*
X72797619Y-157452380D01*
X72702380Y-157452380D01*
X72607142Y-157404761D01*
X72559523Y-157357142D01*
X72511904Y-157261904D01*
X72464285Y-157071428D01*
X72464285Y-156833333D01*
X72511904Y-156642857D01*
X72559523Y-156547619D01*
X72607142Y-156500000D01*
X72702380Y-156452380D01*
X73654761Y-156452380D02*
X73750000Y-156452380D01*
X73845238Y-156500000D01*
X73892857Y-156547619D01*
X73940476Y-156642857D01*
X73988095Y-156833333D01*
X73988095Y-157071428D01*
X73940476Y-157261904D01*
X73892857Y-157357142D01*
X73845238Y-157404761D01*
X73750000Y-157452380D01*
X73654761Y-157452380D01*
X73559523Y-157404761D01*
X73511904Y-157357142D01*
X73464285Y-157261904D01*
X73416666Y-157071428D01*
X73416666Y-156833333D01*
X73464285Y-156642857D01*
X73511904Y-156547619D01*
X73559523Y-156500000D01*
X73654761Y-156452380D01*
X41432380Y-150640714D02*
X42146666Y-150640714D01*
X42289523Y-150688333D01*
X42384761Y-150783571D01*
X42432380Y-150926428D01*
X42432380Y-151021666D01*
X41432380Y-149688333D02*
X41432380Y-150164523D01*
X41908571Y-150212142D01*
X41860952Y-150164523D01*
X41813333Y-150069285D01*
X41813333Y-149831190D01*
X41860952Y-149735952D01*
X41908571Y-149688333D01*
X42003809Y-149640714D01*
X42241904Y-149640714D01*
X42337142Y-149688333D01*
X42384761Y-149735952D01*
X42432380Y-149831190D01*
X42432380Y-150069285D01*
X42384761Y-150164523D01*
X42337142Y-150212142D01*
X41432380Y-149021666D02*
X41432380Y-148926428D01*
X41480000Y-148831190D01*
X41527619Y-148783571D01*
X41622857Y-148735952D01*
X41813333Y-148688333D01*
X42051428Y-148688333D01*
X42241904Y-148735952D01*
X42337142Y-148783571D01*
X42384761Y-148831190D01*
X42432380Y-148926428D01*
X42432380Y-149021666D01*
X42384761Y-149116904D01*
X42337142Y-149164523D01*
X42241904Y-149212142D01*
X42051428Y-149259761D01*
X41813333Y-149259761D01*
X41622857Y-149212142D01*
X41527619Y-149164523D01*
X41480000Y-149116904D01*
X41432380Y-149021666D01*
X41432380Y-148069285D02*
X41432380Y-147974047D01*
X41480000Y-147878809D01*
X41527619Y-147831190D01*
X41622857Y-147783571D01*
X41813333Y-147735952D01*
X42051428Y-147735952D01*
X42241904Y-147783571D01*
X42337142Y-147831190D01*
X42384761Y-147878809D01*
X42432380Y-147974047D01*
X42432380Y-148069285D01*
X42384761Y-148164523D01*
X42337142Y-148212142D01*
X42241904Y-148259761D01*
X42051428Y-148307380D01*
X41813333Y-148307380D01*
X41622857Y-148259761D01*
X41527619Y-148212142D01*
X41480000Y-148164523D01*
X41432380Y-148069285D01*
X65287142Y-156059047D02*
X65334761Y-156106666D01*
X65382380Y-156249523D01*
X65382380Y-156344761D01*
X65334761Y-156487619D01*
X65239523Y-156582857D01*
X65144285Y-156630476D01*
X64953809Y-156678095D01*
X64810952Y-156678095D01*
X64620476Y-156630476D01*
X64525238Y-156582857D01*
X64430000Y-156487619D01*
X64382380Y-156344761D01*
X64382380Y-156249523D01*
X64430000Y-156106666D01*
X64477619Y-156059047D01*
X64382380Y-155154285D02*
X64382380Y-155630476D01*
X64858571Y-155678095D01*
X64810952Y-155630476D01*
X64763333Y-155535238D01*
X64763333Y-155297142D01*
X64810952Y-155201904D01*
X64858571Y-155154285D01*
X64953809Y-155106666D01*
X65191904Y-155106666D01*
X65287142Y-155154285D01*
X65334761Y-155201904D01*
X65382380Y-155297142D01*
X65382380Y-155535238D01*
X65334761Y-155630476D01*
X65287142Y-155678095D01*
X64382380Y-154487619D02*
X64382380Y-154392380D01*
X64430000Y-154297142D01*
X64477619Y-154249523D01*
X64572857Y-154201904D01*
X64763333Y-154154285D01*
X65001428Y-154154285D01*
X65191904Y-154201904D01*
X65287142Y-154249523D01*
X65334761Y-154297142D01*
X65382380Y-154392380D01*
X65382380Y-154487619D01*
X65334761Y-154582857D01*
X65287142Y-154630476D01*
X65191904Y-154678095D01*
X65001428Y-154725714D01*
X64763333Y-154725714D01*
X64572857Y-154678095D01*
X64477619Y-154630476D01*
X64430000Y-154582857D01*
X64382380Y-154487619D01*
X65382380Y-153201904D02*
X65382380Y-153773333D01*
X65382380Y-153487619D02*
X64382380Y-153487619D01*
X64525238Y-153582857D01*
X64620476Y-153678095D01*
X64668095Y-153773333D01*
X62112142Y-156059047D02*
X62159761Y-156106666D01*
X62207380Y-156249523D01*
X62207380Y-156344761D01*
X62159761Y-156487619D01*
X62064523Y-156582857D01*
X61969285Y-156630476D01*
X61778809Y-156678095D01*
X61635952Y-156678095D01*
X61445476Y-156630476D01*
X61350238Y-156582857D01*
X61255000Y-156487619D01*
X61207380Y-156344761D01*
X61207380Y-156249523D01*
X61255000Y-156106666D01*
X61302619Y-156059047D01*
X61207380Y-155154285D02*
X61207380Y-155630476D01*
X61683571Y-155678095D01*
X61635952Y-155630476D01*
X61588333Y-155535238D01*
X61588333Y-155297142D01*
X61635952Y-155201904D01*
X61683571Y-155154285D01*
X61778809Y-155106666D01*
X62016904Y-155106666D01*
X62112142Y-155154285D01*
X62159761Y-155201904D01*
X62207380Y-155297142D01*
X62207380Y-155535238D01*
X62159761Y-155630476D01*
X62112142Y-155678095D01*
X61207380Y-154487619D02*
X61207380Y-154392380D01*
X61255000Y-154297142D01*
X61302619Y-154249523D01*
X61397857Y-154201904D01*
X61588333Y-154154285D01*
X61826428Y-154154285D01*
X62016904Y-154201904D01*
X62112142Y-154249523D01*
X62159761Y-154297142D01*
X62207380Y-154392380D01*
X62207380Y-154487619D01*
X62159761Y-154582857D01*
X62112142Y-154630476D01*
X62016904Y-154678095D01*
X61826428Y-154725714D01*
X61588333Y-154725714D01*
X61397857Y-154678095D01*
X61302619Y-154630476D01*
X61255000Y-154582857D01*
X61207380Y-154487619D01*
X61207380Y-153535238D02*
X61207380Y-153440000D01*
X61255000Y-153344761D01*
X61302619Y-153297142D01*
X61397857Y-153249523D01*
X61588333Y-153201904D01*
X61826428Y-153201904D01*
X62016904Y-153249523D01*
X62112142Y-153297142D01*
X62159761Y-153344761D01*
X62207380Y-153440000D01*
X62207380Y-153535238D01*
X62159761Y-153630476D01*
X62112142Y-153678095D01*
X62016904Y-153725714D01*
X61826428Y-153773333D01*
X61588333Y-153773333D01*
X61397857Y-153725714D01*
X61302619Y-153678095D01*
X61255000Y-153630476D01*
X61207380Y-153535238D01*
X83880952Y-122202380D02*
X83547619Y-121726190D01*
X83309523Y-122202380D02*
X83309523Y-121202380D01*
X83690476Y-121202380D01*
X83785714Y-121250000D01*
X83833333Y-121297619D01*
X83880952Y-121392857D01*
X83880952Y-121535714D01*
X83833333Y-121630952D01*
X83785714Y-121678571D01*
X83690476Y-121726190D01*
X83309523Y-121726190D01*
X84261904Y-121297619D02*
X84309523Y-121250000D01*
X84404761Y-121202380D01*
X84642857Y-121202380D01*
X84738095Y-121250000D01*
X84785714Y-121297619D01*
X84833333Y-121392857D01*
X84833333Y-121488095D01*
X84785714Y-121630952D01*
X84214285Y-122202380D01*
X84833333Y-122202380D01*
X85785714Y-122202380D02*
X85214285Y-122202380D01*
X85500000Y-122202380D02*
X85500000Y-121202380D01*
X85404761Y-121345238D01*
X85309523Y-121440476D01*
X85214285Y-121488095D01*
X86119047Y-121202380D02*
X86738095Y-121202380D01*
X86404761Y-121583333D01*
X86547619Y-121583333D01*
X86642857Y-121630952D01*
X86690476Y-121678571D01*
X86738095Y-121773809D01*
X86738095Y-122011904D01*
X86690476Y-122107142D01*
X86642857Y-122154761D01*
X86547619Y-122202380D01*
X86261904Y-122202380D01*
X86166666Y-122154761D01*
X86119047Y-122107142D01*
X83880952Y-126202380D02*
X83547619Y-125726190D01*
X83309523Y-126202380D02*
X83309523Y-125202380D01*
X83690476Y-125202380D01*
X83785714Y-125250000D01*
X83833333Y-125297619D01*
X83880952Y-125392857D01*
X83880952Y-125535714D01*
X83833333Y-125630952D01*
X83785714Y-125678571D01*
X83690476Y-125726190D01*
X83309523Y-125726190D01*
X84261904Y-125297619D02*
X84309523Y-125250000D01*
X84404761Y-125202380D01*
X84642857Y-125202380D01*
X84738095Y-125250000D01*
X84785714Y-125297619D01*
X84833333Y-125392857D01*
X84833333Y-125488095D01*
X84785714Y-125630952D01*
X84214285Y-126202380D01*
X84833333Y-126202380D01*
X85785714Y-126202380D02*
X85214285Y-126202380D01*
X85500000Y-126202380D02*
X85500000Y-125202380D01*
X85404761Y-125345238D01*
X85309523Y-125440476D01*
X85214285Y-125488095D01*
X86166666Y-125297619D02*
X86214285Y-125250000D01*
X86309523Y-125202380D01*
X86547619Y-125202380D01*
X86642857Y-125250000D01*
X86690476Y-125297619D01*
X86738095Y-125392857D01*
X86738095Y-125488095D01*
X86690476Y-125630952D01*
X86119047Y-126202380D01*
X86738095Y-126202380D01*
X78089285Y-116502380D02*
X78089285Y-117216666D01*
X78041666Y-117359523D01*
X77946428Y-117454761D01*
X77803571Y-117502380D01*
X77708333Y-117502380D01*
X78517857Y-116597619D02*
X78565476Y-116550000D01*
X78660714Y-116502380D01*
X78898809Y-116502380D01*
X78994047Y-116550000D01*
X79041666Y-116597619D01*
X79089285Y-116692857D01*
X79089285Y-116788095D01*
X79041666Y-116930952D01*
X78470238Y-117502380D01*
X79089285Y-117502380D01*
X79708333Y-116502380D02*
X79803571Y-116502380D01*
X79898809Y-116550000D01*
X79946428Y-116597619D01*
X79994047Y-116692857D01*
X80041666Y-116883333D01*
X80041666Y-117121428D01*
X79994047Y-117311904D01*
X79946428Y-117407142D01*
X79898809Y-117454761D01*
X79803571Y-117502380D01*
X79708333Y-117502380D01*
X79613095Y-117454761D01*
X79565476Y-117407142D01*
X79517857Y-117311904D01*
X79470238Y-117121428D01*
X79470238Y-116883333D01*
X79517857Y-116692857D01*
X79565476Y-116597619D01*
X79613095Y-116550000D01*
X79708333Y-116502380D01*
X80994047Y-117502380D02*
X80422619Y-117502380D01*
X80708333Y-117502380D02*
X80708333Y-116502380D01*
X80613095Y-116645238D01*
X80517857Y-116740476D01*
X80422619Y-116788095D01*
X108862952Y-116530380D02*
X108529619Y-116054190D01*
X108291523Y-116530380D02*
X108291523Y-115530380D01*
X108672476Y-115530380D01*
X108767714Y-115578000D01*
X108815333Y-115625619D01*
X108862952Y-115720857D01*
X108862952Y-115863714D01*
X108815333Y-115958952D01*
X108767714Y-116006571D01*
X108672476Y-116054190D01*
X108291523Y-116054190D01*
X109243904Y-115625619D02*
X109291523Y-115578000D01*
X109386761Y-115530380D01*
X109624857Y-115530380D01*
X109720095Y-115578000D01*
X109767714Y-115625619D01*
X109815333Y-115720857D01*
X109815333Y-115816095D01*
X109767714Y-115958952D01*
X109196285Y-116530380D01*
X109815333Y-116530380D01*
X110767714Y-116530380D02*
X110196285Y-116530380D01*
X110482000Y-116530380D02*
X110482000Y-115530380D01*
X110386761Y-115673238D01*
X110291523Y-115768476D01*
X110196285Y-115816095D01*
X111720095Y-116530380D02*
X111148666Y-116530380D01*
X111434380Y-116530380D02*
X111434380Y-115530380D01*
X111339142Y-115673238D01*
X111243904Y-115768476D01*
X111148666Y-115816095D01*
X150685714Y-87502380D02*
X150685714Y-88311904D01*
X150733333Y-88407142D01*
X150780952Y-88454761D01*
X150876190Y-88502380D01*
X151066666Y-88502380D01*
X151161904Y-88454761D01*
X151209523Y-88407142D01*
X151257142Y-88311904D01*
X151257142Y-87502380D01*
X152257142Y-88502380D02*
X151685714Y-88502380D01*
X151971428Y-88502380D02*
X151971428Y-87502380D01*
X151876190Y-87645238D01*
X151780952Y-87740476D01*
X151685714Y-87788095D01*
X152638095Y-87597619D02*
X152685714Y-87550000D01*
X152780952Y-87502380D01*
X153019047Y-87502380D01*
X153114285Y-87550000D01*
X153161904Y-87597619D01*
X153209523Y-87692857D01*
X153209523Y-87788095D01*
X153161904Y-87930952D01*
X152590476Y-88502380D01*
X153209523Y-88502380D01*
X153828571Y-87502380D02*
X153923809Y-87502380D01*
X154019047Y-87550000D01*
X154066666Y-87597619D01*
X154114285Y-87692857D01*
X154161904Y-87883333D01*
X154161904Y-88121428D01*
X154114285Y-88311904D01*
X154066666Y-88407142D01*
X154019047Y-88454761D01*
X153923809Y-88502380D01*
X153828571Y-88502380D01*
X153733333Y-88454761D01*
X153685714Y-88407142D01*
X153638095Y-88311904D01*
X153590476Y-88121428D01*
X153590476Y-87883333D01*
X153638095Y-87692857D01*
X153685714Y-87597619D01*
X153733333Y-87550000D01*
X153828571Y-87502380D01*
X230274952Y-59032380D02*
X229941619Y-58556190D01*
X229703523Y-59032380D02*
X229703523Y-58032380D01*
X230084476Y-58032380D01*
X230179714Y-58080000D01*
X230227333Y-58127619D01*
X230274952Y-58222857D01*
X230274952Y-58365714D01*
X230227333Y-58460952D01*
X230179714Y-58508571D01*
X230084476Y-58556190D01*
X229703523Y-58556190D01*
X231227333Y-59032380D02*
X230655904Y-59032380D01*
X230941619Y-59032380D02*
X230941619Y-58032380D01*
X230846380Y-58175238D01*
X230751142Y-58270476D01*
X230655904Y-58318095D01*
X231846380Y-58032380D02*
X231941619Y-58032380D01*
X232036857Y-58080000D01*
X232084476Y-58127619D01*
X232132095Y-58222857D01*
X232179714Y-58413333D01*
X232179714Y-58651428D01*
X232132095Y-58841904D01*
X232084476Y-58937142D01*
X232036857Y-58984761D01*
X231941619Y-59032380D01*
X231846380Y-59032380D01*
X231751142Y-58984761D01*
X231703523Y-58937142D01*
X231655904Y-58841904D01*
X231608285Y-58651428D01*
X231608285Y-58413333D01*
X231655904Y-58222857D01*
X231703523Y-58127619D01*
X231751142Y-58080000D01*
X231846380Y-58032380D01*
X232798761Y-58032380D02*
X232894000Y-58032380D01*
X232989238Y-58080000D01*
X233036857Y-58127619D01*
X233084476Y-58222857D01*
X233132095Y-58413333D01*
X233132095Y-58651428D01*
X233084476Y-58841904D01*
X233036857Y-58937142D01*
X232989238Y-58984761D01*
X232894000Y-59032380D01*
X232798761Y-59032380D01*
X232703523Y-58984761D01*
X232655904Y-58937142D01*
X232608285Y-58841904D01*
X232560666Y-58651428D01*
X232560666Y-58413333D01*
X232608285Y-58222857D01*
X232655904Y-58127619D01*
X232703523Y-58080000D01*
X232798761Y-58032380D01*
X135926595Y-118713167D02*
X135354175Y-118612152D01*
X135522534Y-119117228D02*
X134815427Y-118410122D01*
X135084801Y-118140748D01*
X135185816Y-118107076D01*
X135253160Y-118107076D01*
X135354175Y-118140748D01*
X135455190Y-118241763D01*
X135488862Y-118342778D01*
X135488862Y-118410122D01*
X135455190Y-118511137D01*
X135185816Y-118780511D01*
X135556206Y-117804030D02*
X135556206Y-117736687D01*
X135589877Y-117635671D01*
X135758236Y-117467312D01*
X135859251Y-117433641D01*
X135926595Y-117433641D01*
X136027610Y-117467312D01*
X136094954Y-117534656D01*
X136162297Y-117669343D01*
X136162297Y-118477465D01*
X136600030Y-118039732D01*
X137273465Y-117366297D02*
X136869404Y-117770358D01*
X137071435Y-117568328D02*
X136364328Y-116861221D01*
X136398000Y-117029580D01*
X136398000Y-117164267D01*
X136364328Y-117265282D01*
X137004091Y-116221458D02*
X137071435Y-116154114D01*
X137172450Y-116120442D01*
X137239793Y-116120442D01*
X137340809Y-116154114D01*
X137509167Y-116255129D01*
X137677526Y-116423488D01*
X137778541Y-116591847D01*
X137812213Y-116692862D01*
X137812213Y-116760206D01*
X137778541Y-116861221D01*
X137711198Y-116928564D01*
X137610183Y-116962236D01*
X137542839Y-116962236D01*
X137441824Y-116928564D01*
X137273465Y-116827549D01*
X137105106Y-116659190D01*
X137004091Y-116490832D01*
X136970419Y-116389816D01*
X136970419Y-116322473D01*
X137004091Y-116221458D01*
X134910595Y-117697167D02*
X134338175Y-117596152D01*
X134506534Y-118101228D02*
X133799427Y-117394122D01*
X134068801Y-117124748D01*
X134169816Y-117091076D01*
X134237160Y-117091076D01*
X134338175Y-117124748D01*
X134439190Y-117225763D01*
X134472862Y-117326778D01*
X134472862Y-117394122D01*
X134439190Y-117495137D01*
X134169816Y-117764511D01*
X134540206Y-116788030D02*
X134540206Y-116720687D01*
X134573877Y-116619671D01*
X134742236Y-116451312D01*
X134843251Y-116417641D01*
X134910595Y-116417641D01*
X135011610Y-116451312D01*
X135078954Y-116518656D01*
X135146297Y-116653343D01*
X135146297Y-117461465D01*
X135584030Y-117023732D01*
X135314656Y-115878893D02*
X135382000Y-115811549D01*
X135483015Y-115777877D01*
X135550358Y-115777877D01*
X135651374Y-115811549D01*
X135819732Y-115912564D01*
X135988091Y-116080923D01*
X136089106Y-116249282D01*
X136122778Y-116350297D01*
X136122778Y-116417641D01*
X136089106Y-116518656D01*
X136021763Y-116586000D01*
X135920748Y-116619671D01*
X135853404Y-116619671D01*
X135752389Y-116586000D01*
X135584030Y-116484984D01*
X135415671Y-116316625D01*
X135314656Y-116148267D01*
X135280984Y-116047251D01*
X135280984Y-115979908D01*
X135314656Y-115878893D01*
X136594183Y-116013580D02*
X136728870Y-115878893D01*
X136762541Y-115777877D01*
X136762541Y-115710534D01*
X136728870Y-115542175D01*
X136627854Y-115373816D01*
X136358480Y-115104442D01*
X136257465Y-115070771D01*
X136190122Y-115070771D01*
X136089106Y-115104442D01*
X135954419Y-115239129D01*
X135920748Y-115340145D01*
X135920748Y-115407488D01*
X135954419Y-115508503D01*
X136122778Y-115676862D01*
X136223793Y-115710534D01*
X136291137Y-115710534D01*
X136392152Y-115676862D01*
X136526839Y-115542175D01*
X136560511Y-115441160D01*
X136560511Y-115373816D01*
X136526839Y-115272801D01*
X86952380Y-125793285D02*
X87761904Y-125793285D01*
X87857142Y-125745666D01*
X87904761Y-125698047D01*
X87952380Y-125602809D01*
X87952380Y-125412333D01*
X87904761Y-125317095D01*
X87857142Y-125269476D01*
X87761904Y-125221857D01*
X86952380Y-125221857D01*
X87285714Y-124317095D02*
X87952380Y-124317095D01*
X86904761Y-124555190D02*
X87619047Y-124793285D01*
X87619047Y-124174238D01*
X86952380Y-123602809D02*
X86952380Y-123507571D01*
X87000000Y-123412333D01*
X87047619Y-123364714D01*
X87142857Y-123317095D01*
X87333333Y-123269476D01*
X87571428Y-123269476D01*
X87761904Y-123317095D01*
X87857142Y-123364714D01*
X87904761Y-123412333D01*
X87952380Y-123507571D01*
X87952380Y-123602809D01*
X87904761Y-123698047D01*
X87857142Y-123745666D01*
X87761904Y-123793285D01*
X87571428Y-123840904D01*
X87333333Y-123840904D01*
X87142857Y-123793285D01*
X87047619Y-123745666D01*
X87000000Y-123698047D01*
X86952380Y-123602809D01*
X86952380Y-122650428D02*
X86952380Y-122555190D01*
X87000000Y-122459952D01*
X87047619Y-122412333D01*
X87142857Y-122364714D01*
X87333333Y-122317095D01*
X87571428Y-122317095D01*
X87761904Y-122364714D01*
X87857142Y-122412333D01*
X87904761Y-122459952D01*
X87952380Y-122555190D01*
X87952380Y-122650428D01*
X87904761Y-122745666D01*
X87857142Y-122793285D01*
X87761904Y-122840904D01*
X87571428Y-122888523D01*
X87333333Y-122888523D01*
X87142857Y-122840904D01*
X87047619Y-122793285D01*
X87000000Y-122745666D01*
X86952380Y-122650428D01*
X150685714Y-49402380D02*
X150685714Y-50211904D01*
X150733333Y-50307142D01*
X150780952Y-50354761D01*
X150876190Y-50402380D01*
X151066666Y-50402380D01*
X151161904Y-50354761D01*
X151209523Y-50307142D01*
X151257142Y-50211904D01*
X151257142Y-49402380D01*
X152257142Y-50402380D02*
X151685714Y-50402380D01*
X151971428Y-50402380D02*
X151971428Y-49402380D01*
X151876190Y-49545238D01*
X151780952Y-49640476D01*
X151685714Y-49688095D01*
X153209523Y-50402380D02*
X152638095Y-50402380D01*
X152923809Y-50402380D02*
X152923809Y-49402380D01*
X152828571Y-49545238D01*
X152733333Y-49640476D01*
X152638095Y-49688095D01*
X154161904Y-50402380D02*
X153590476Y-50402380D01*
X153876190Y-50402380D02*
X153876190Y-49402380D01*
X153780952Y-49545238D01*
X153685714Y-49640476D01*
X153590476Y-49688095D01*
X150685714Y-68452380D02*
X150685714Y-69261904D01*
X150733333Y-69357142D01*
X150780952Y-69404761D01*
X150876190Y-69452380D01*
X151066666Y-69452380D01*
X151161904Y-69404761D01*
X151209523Y-69357142D01*
X151257142Y-69261904D01*
X151257142Y-68452380D01*
X152257142Y-69452380D02*
X151685714Y-69452380D01*
X151971428Y-69452380D02*
X151971428Y-68452380D01*
X151876190Y-68595238D01*
X151780952Y-68690476D01*
X151685714Y-68738095D01*
X153209523Y-69452380D02*
X152638095Y-69452380D01*
X152923809Y-69452380D02*
X152923809Y-68452380D01*
X152828571Y-68595238D01*
X152733333Y-68690476D01*
X152638095Y-68738095D01*
X153828571Y-68452380D02*
X153923809Y-68452380D01*
X154019047Y-68500000D01*
X154066666Y-68547619D01*
X154114285Y-68642857D01*
X154161904Y-68833333D01*
X154161904Y-69071428D01*
X154114285Y-69261904D01*
X154066666Y-69357142D01*
X154019047Y-69404761D01*
X153923809Y-69452380D01*
X153828571Y-69452380D01*
X153733333Y-69404761D01*
X153685714Y-69357142D01*
X153638095Y-69261904D01*
X153590476Y-69071428D01*
X153590476Y-68833333D01*
X153638095Y-68642857D01*
X153685714Y-68547619D01*
X153733333Y-68500000D01*
X153828571Y-68452380D01*
X154285714Y-127952380D02*
X154285714Y-128761904D01*
X154333333Y-128857142D01*
X154380952Y-128904761D01*
X154476190Y-128952380D01*
X154666666Y-128952380D01*
X154761904Y-128904761D01*
X154809523Y-128857142D01*
X154857142Y-128761904D01*
X154857142Y-127952380D01*
X155238095Y-127952380D02*
X155857142Y-127952380D01*
X155523809Y-128333333D01*
X155666666Y-128333333D01*
X155761904Y-128380952D01*
X155809523Y-128428571D01*
X155857142Y-128523809D01*
X155857142Y-128761904D01*
X155809523Y-128857142D01*
X155761904Y-128904761D01*
X155666666Y-128952380D01*
X155380952Y-128952380D01*
X155285714Y-128904761D01*
X155238095Y-128857142D01*
X156476190Y-127952380D02*
X156571428Y-127952380D01*
X156666666Y-128000000D01*
X156714285Y-128047619D01*
X156761904Y-128142857D01*
X156809523Y-128333333D01*
X156809523Y-128571428D01*
X156761904Y-128761904D01*
X156714285Y-128857142D01*
X156666666Y-128904761D01*
X156571428Y-128952380D01*
X156476190Y-128952380D01*
X156380952Y-128904761D01*
X156333333Y-128857142D01*
X156285714Y-128761904D01*
X156238095Y-128571428D01*
X156238095Y-128333333D01*
X156285714Y-128142857D01*
X156333333Y-128047619D01*
X156380952Y-128000000D01*
X156476190Y-127952380D01*
X157428571Y-127952380D02*
X157523809Y-127952380D01*
X157619047Y-128000000D01*
X157666666Y-128047619D01*
X157714285Y-128142857D01*
X157761904Y-128333333D01*
X157761904Y-128571428D01*
X157714285Y-128761904D01*
X157666666Y-128857142D01*
X157619047Y-128904761D01*
X157523809Y-128952380D01*
X157428571Y-128952380D01*
X157333333Y-128904761D01*
X157285714Y-128857142D01*
X157238095Y-128761904D01*
X157190476Y-128571428D01*
X157190476Y-128333333D01*
X157238095Y-128142857D01*
X157285714Y-128047619D01*
X157333333Y-128000000D01*
X157428571Y-127952380D01*
X148947142Y-126849047D02*
X148994761Y-126896666D01*
X149042380Y-127039523D01*
X149042380Y-127134761D01*
X148994761Y-127277619D01*
X148899523Y-127372857D01*
X148804285Y-127420476D01*
X148613809Y-127468095D01*
X148470952Y-127468095D01*
X148280476Y-127420476D01*
X148185238Y-127372857D01*
X148090000Y-127277619D01*
X148042380Y-127134761D01*
X148042380Y-127039523D01*
X148090000Y-126896666D01*
X148137619Y-126849047D01*
X148042380Y-126515714D02*
X148042380Y-125896666D01*
X148423333Y-126230000D01*
X148423333Y-126087142D01*
X148470952Y-125991904D01*
X148518571Y-125944285D01*
X148613809Y-125896666D01*
X148851904Y-125896666D01*
X148947142Y-125944285D01*
X148994761Y-125991904D01*
X149042380Y-126087142D01*
X149042380Y-126372857D01*
X148994761Y-126468095D01*
X148947142Y-126515714D01*
X148042380Y-125277619D02*
X148042380Y-125182380D01*
X148090000Y-125087142D01*
X148137619Y-125039523D01*
X148232857Y-124991904D01*
X148423333Y-124944285D01*
X148661428Y-124944285D01*
X148851904Y-124991904D01*
X148947142Y-125039523D01*
X148994761Y-125087142D01*
X149042380Y-125182380D01*
X149042380Y-125277619D01*
X148994761Y-125372857D01*
X148947142Y-125420476D01*
X148851904Y-125468095D01*
X148661428Y-125515714D01*
X148423333Y-125515714D01*
X148232857Y-125468095D01*
X148137619Y-125420476D01*
X148090000Y-125372857D01*
X148042380Y-125277619D01*
X149042380Y-123991904D02*
X149042380Y-124563333D01*
X149042380Y-124277619D02*
X148042380Y-124277619D01*
X148185238Y-124372857D01*
X148280476Y-124468095D01*
X148328095Y-124563333D01*
X167537142Y-125119047D02*
X167584761Y-125166666D01*
X167632380Y-125309523D01*
X167632380Y-125404761D01*
X167584761Y-125547619D01*
X167489523Y-125642857D01*
X167394285Y-125690476D01*
X167203809Y-125738095D01*
X167060952Y-125738095D01*
X166870476Y-125690476D01*
X166775238Y-125642857D01*
X166680000Y-125547619D01*
X166632380Y-125404761D01*
X166632380Y-125309523D01*
X166680000Y-125166666D01*
X166727619Y-125119047D01*
X166632380Y-124785714D02*
X166632380Y-124166666D01*
X167013333Y-124500000D01*
X167013333Y-124357142D01*
X167060952Y-124261904D01*
X167108571Y-124214285D01*
X167203809Y-124166666D01*
X167441904Y-124166666D01*
X167537142Y-124214285D01*
X167584761Y-124261904D01*
X167632380Y-124357142D01*
X167632380Y-124642857D01*
X167584761Y-124738095D01*
X167537142Y-124785714D01*
X166632380Y-123547619D02*
X166632380Y-123452380D01*
X166680000Y-123357142D01*
X166727619Y-123309523D01*
X166822857Y-123261904D01*
X167013333Y-123214285D01*
X167251428Y-123214285D01*
X167441904Y-123261904D01*
X167537142Y-123309523D01*
X167584761Y-123357142D01*
X167632380Y-123452380D01*
X167632380Y-123547619D01*
X167584761Y-123642857D01*
X167537142Y-123690476D01*
X167441904Y-123738095D01*
X167251428Y-123785714D01*
X167013333Y-123785714D01*
X166822857Y-123738095D01*
X166727619Y-123690476D01*
X166680000Y-123642857D01*
X166632380Y-123547619D01*
X166632380Y-122595238D02*
X166632380Y-122500000D01*
X166680000Y-122404761D01*
X166727619Y-122357142D01*
X166822857Y-122309523D01*
X167013333Y-122261904D01*
X167251428Y-122261904D01*
X167441904Y-122309523D01*
X167537142Y-122357142D01*
X167584761Y-122404761D01*
X167632380Y-122500000D01*
X167632380Y-122595238D01*
X167584761Y-122690476D01*
X167537142Y-122738095D01*
X167441904Y-122785714D01*
X167251428Y-122833333D01*
X167013333Y-122833333D01*
X166822857Y-122785714D01*
X166727619Y-122738095D01*
X166680000Y-122690476D01*
X166632380Y-122595238D01*
X129095714Y-142102380D02*
X129095714Y-142911904D01*
X129143333Y-143007142D01*
X129190952Y-143054761D01*
X129286190Y-143102380D01*
X129476666Y-143102380D01*
X129571904Y-143054761D01*
X129619523Y-143007142D01*
X129667142Y-142911904D01*
X129667142Y-142102380D01*
X130095714Y-142197619D02*
X130143333Y-142150000D01*
X130238571Y-142102380D01*
X130476666Y-142102380D01*
X130571904Y-142150000D01*
X130619523Y-142197619D01*
X130667142Y-142292857D01*
X130667142Y-142388095D01*
X130619523Y-142530952D01*
X130048095Y-143102380D01*
X130667142Y-143102380D01*
X131286190Y-142102380D02*
X131381428Y-142102380D01*
X131476666Y-142150000D01*
X131524285Y-142197619D01*
X131571904Y-142292857D01*
X131619523Y-142483333D01*
X131619523Y-142721428D01*
X131571904Y-142911904D01*
X131524285Y-143007142D01*
X131476666Y-143054761D01*
X131381428Y-143102380D01*
X131286190Y-143102380D01*
X131190952Y-143054761D01*
X131143333Y-143007142D01*
X131095714Y-142911904D01*
X131048095Y-142721428D01*
X131048095Y-142483333D01*
X131095714Y-142292857D01*
X131143333Y-142197619D01*
X131190952Y-142150000D01*
X131286190Y-142102380D01*
X132571904Y-143102380D02*
X132000476Y-143102380D01*
X132286190Y-143102380D02*
X132286190Y-142102380D01*
X132190952Y-142245238D01*
X132095714Y-142340476D01*
X132000476Y-142388095D01*
X138211251Y-111293824D02*
X138211251Y-111361167D01*
X138143908Y-111495854D01*
X138076564Y-111563198D01*
X137941877Y-111630541D01*
X137807190Y-111630541D01*
X137706175Y-111596870D01*
X137537816Y-111495854D01*
X137436801Y-111394839D01*
X137335786Y-111226480D01*
X137302114Y-111125465D01*
X137302114Y-110990778D01*
X137369458Y-110856091D01*
X137436801Y-110788748D01*
X137571488Y-110721404D01*
X137638832Y-110721404D01*
X137908206Y-110452030D02*
X137908206Y-110384687D01*
X137941877Y-110283671D01*
X138110236Y-110115312D01*
X138211251Y-110081641D01*
X138278595Y-110081641D01*
X138379610Y-110115312D01*
X138446954Y-110182656D01*
X138514297Y-110317343D01*
X138514297Y-111125465D01*
X138952030Y-110687732D01*
X139625465Y-110014297D02*
X139221404Y-110418358D01*
X139423435Y-110216328D02*
X138716328Y-109509221D01*
X138750000Y-109677580D01*
X138750000Y-109812267D01*
X138716328Y-109913282D01*
X139625465Y-109206175D02*
X139524450Y-109239847D01*
X139457106Y-109239847D01*
X139356091Y-109206175D01*
X139322419Y-109172503D01*
X139288748Y-109071488D01*
X139288748Y-109004145D01*
X139322419Y-108903129D01*
X139457106Y-108768442D01*
X139558122Y-108734771D01*
X139625465Y-108734771D01*
X139726480Y-108768442D01*
X139760152Y-108802114D01*
X139793824Y-108903129D01*
X139793824Y-108970473D01*
X139760152Y-109071488D01*
X139625465Y-109206175D01*
X139591793Y-109307190D01*
X139591793Y-109374534D01*
X139625465Y-109475549D01*
X139760152Y-109610236D01*
X139861167Y-109643908D01*
X139928511Y-109643908D01*
X140029526Y-109610236D01*
X140164213Y-109475549D01*
X140197885Y-109374534D01*
X140197885Y-109307190D01*
X140164213Y-109206175D01*
X140029526Y-109071488D01*
X139928511Y-109037816D01*
X139861167Y-109037816D01*
X139760152Y-109071488D01*
X109956175Y-109711251D02*
X109888832Y-109711251D01*
X109754145Y-109643908D01*
X109686801Y-109576564D01*
X109619458Y-109441877D01*
X109619458Y-109307190D01*
X109653129Y-109206175D01*
X109754145Y-109037816D01*
X109855160Y-108936801D01*
X110023519Y-108835786D01*
X110124534Y-108802114D01*
X110259221Y-108802114D01*
X110393908Y-108869458D01*
X110461251Y-108936801D01*
X110528595Y-109071488D01*
X110528595Y-109138832D01*
X110797969Y-109408206D02*
X110865312Y-109408206D01*
X110966328Y-109441877D01*
X111134687Y-109610236D01*
X111168358Y-109711251D01*
X111168358Y-109778595D01*
X111134687Y-109879610D01*
X111067343Y-109946954D01*
X110932656Y-110014297D01*
X110124534Y-110014297D01*
X110562267Y-110452030D01*
X111235702Y-111125465D02*
X110831641Y-110721404D01*
X111033671Y-110923435D02*
X111740778Y-110216328D01*
X111572419Y-110249999D01*
X111437732Y-110250000D01*
X111336717Y-110216328D01*
X112178511Y-110654061D02*
X112649915Y-111125465D01*
X111639763Y-111529526D01*
X137706175Y-137211251D02*
X137638832Y-137211251D01*
X137504145Y-137143908D01*
X137436801Y-137076564D01*
X137369458Y-136941877D01*
X137369458Y-136807190D01*
X137403129Y-136706175D01*
X137504145Y-136537816D01*
X137605160Y-136436801D01*
X137773519Y-136335786D01*
X137874534Y-136302114D01*
X138009221Y-136302114D01*
X138143908Y-136369458D01*
X138211251Y-136436801D01*
X138278595Y-136571488D01*
X138278595Y-136638832D01*
X138547969Y-136908206D02*
X138615312Y-136908206D01*
X138716328Y-136941877D01*
X138884687Y-137110236D01*
X138918358Y-137211251D01*
X138918358Y-137278595D01*
X138884687Y-137379610D01*
X138817343Y-137446954D01*
X138682656Y-137514297D01*
X137874534Y-137514297D01*
X138312267Y-137952030D01*
X138985702Y-138625465D02*
X138581641Y-138221404D01*
X138783671Y-138423435D02*
X139490778Y-137716328D01*
X139322419Y-137750000D01*
X139187732Y-137749999D01*
X139086717Y-137716328D01*
X140298900Y-138524450D02*
X140164213Y-138389763D01*
X140063198Y-138356091D01*
X139995854Y-138356091D01*
X139827496Y-138389763D01*
X139659137Y-138490778D01*
X139389763Y-138760152D01*
X139356091Y-138861167D01*
X139356091Y-138928511D01*
X139389763Y-139029526D01*
X139524450Y-139164213D01*
X139625465Y-139197885D01*
X139692809Y-139197885D01*
X139793824Y-139164213D01*
X139962183Y-138995854D01*
X139995854Y-138894839D01*
X139995854Y-138827496D01*
X139962183Y-138726480D01*
X139827496Y-138591793D01*
X139726480Y-138558122D01*
X139659137Y-138558122D01*
X139558122Y-138591793D01*
X112237251Y-134393824D02*
X112237251Y-134461167D01*
X112169908Y-134595854D01*
X112102564Y-134663198D01*
X111967877Y-134730541D01*
X111833190Y-134730541D01*
X111732175Y-134696870D01*
X111563816Y-134595854D01*
X111462801Y-134494839D01*
X111361786Y-134326480D01*
X111328114Y-134225465D01*
X111328114Y-134090778D01*
X111395458Y-133956091D01*
X111462801Y-133888748D01*
X111597488Y-133821404D01*
X111664832Y-133821404D01*
X111934206Y-133552030D02*
X111934206Y-133484687D01*
X111967877Y-133383671D01*
X112136236Y-133215312D01*
X112237251Y-133181641D01*
X112304595Y-133181641D01*
X112405610Y-133215312D01*
X112472954Y-133282656D01*
X112540297Y-133417343D01*
X112540297Y-134225465D01*
X112978030Y-133787732D01*
X113651465Y-133114297D02*
X113247404Y-133518358D01*
X113449435Y-133316328D02*
X112742328Y-132609221D01*
X112775999Y-132777580D01*
X112776000Y-132912267D01*
X112742328Y-133013282D01*
X113584122Y-131767427D02*
X113247404Y-132104145D01*
X113550450Y-132474534D01*
X113550450Y-132407190D01*
X113584122Y-132306175D01*
X113752480Y-132137816D01*
X113853496Y-132104145D01*
X113920839Y-132104145D01*
X114021854Y-132137816D01*
X114190213Y-132306175D01*
X114223885Y-132407190D01*
X114223885Y-132474534D01*
X114190213Y-132575549D01*
X114021854Y-132743908D01*
X113920839Y-132777580D01*
X113853496Y-132777580D01*
X147380952Y-112857142D02*
X147333333Y-112904761D01*
X147190476Y-112952380D01*
X147095238Y-112952380D01*
X146952380Y-112904761D01*
X146857142Y-112809523D01*
X146809523Y-112714285D01*
X146761904Y-112523809D01*
X146761904Y-112380952D01*
X146809523Y-112190476D01*
X146857142Y-112095238D01*
X146952380Y-112000000D01*
X147095238Y-111952380D01*
X147190476Y-111952380D01*
X147333333Y-112000000D01*
X147380952Y-112047619D01*
X147761904Y-112047619D02*
X147809523Y-112000000D01*
X147904761Y-111952380D01*
X148142857Y-111952380D01*
X148238095Y-112000000D01*
X148285714Y-112047619D01*
X148333333Y-112142857D01*
X148333333Y-112238095D01*
X148285714Y-112380952D01*
X147714285Y-112952380D01*
X148333333Y-112952380D01*
X149285714Y-112952380D02*
X148714285Y-112952380D01*
X149000000Y-112952380D02*
X149000000Y-111952380D01*
X148904761Y-112095238D01*
X148809523Y-112190476D01*
X148714285Y-112238095D01*
X150142857Y-112285714D02*
X150142857Y-112952380D01*
X149904761Y-111904761D02*
X149666666Y-112619047D01*
X150285714Y-112619047D01*
X147380952Y-115357142D02*
X147333333Y-115404761D01*
X147190476Y-115452380D01*
X147095238Y-115452380D01*
X146952380Y-115404761D01*
X146857142Y-115309523D01*
X146809523Y-115214285D01*
X146761904Y-115023809D01*
X146761904Y-114880952D01*
X146809523Y-114690476D01*
X146857142Y-114595238D01*
X146952380Y-114500000D01*
X147095238Y-114452380D01*
X147190476Y-114452380D01*
X147333333Y-114500000D01*
X147380952Y-114547619D01*
X147761904Y-114547619D02*
X147809523Y-114500000D01*
X147904761Y-114452380D01*
X148142857Y-114452380D01*
X148238095Y-114500000D01*
X148285714Y-114547619D01*
X148333333Y-114642857D01*
X148333333Y-114738095D01*
X148285714Y-114880952D01*
X147714285Y-115452380D01*
X148333333Y-115452380D01*
X149285714Y-115452380D02*
X148714285Y-115452380D01*
X149000000Y-115452380D02*
X149000000Y-114452380D01*
X148904761Y-114595238D01*
X148809523Y-114690476D01*
X148714285Y-114738095D01*
X149619047Y-114452380D02*
X150238095Y-114452380D01*
X149904761Y-114833333D01*
X150047619Y-114833333D01*
X150142857Y-114880952D01*
X150190476Y-114928571D01*
X150238095Y-115023809D01*
X150238095Y-115261904D01*
X150190476Y-115357142D01*
X150142857Y-115404761D01*
X150047619Y-115452380D01*
X149761904Y-115452380D01*
X149666666Y-115404761D01*
X149619047Y-115357142D01*
X147380952Y-117857142D02*
X147333333Y-117904761D01*
X147190476Y-117952380D01*
X147095238Y-117952380D01*
X146952380Y-117904761D01*
X146857142Y-117809523D01*
X146809523Y-117714285D01*
X146761904Y-117523809D01*
X146761904Y-117380952D01*
X146809523Y-117190476D01*
X146857142Y-117095238D01*
X146952380Y-117000000D01*
X147095238Y-116952380D01*
X147190476Y-116952380D01*
X147333333Y-117000000D01*
X147380952Y-117047619D01*
X147761904Y-117047619D02*
X147809523Y-117000000D01*
X147904761Y-116952380D01*
X148142857Y-116952380D01*
X148238095Y-117000000D01*
X148285714Y-117047619D01*
X148333333Y-117142857D01*
X148333333Y-117238095D01*
X148285714Y-117380952D01*
X147714285Y-117952380D01*
X148333333Y-117952380D01*
X149285714Y-117952380D02*
X148714285Y-117952380D01*
X149000000Y-117952380D02*
X149000000Y-116952380D01*
X148904761Y-117095238D01*
X148809523Y-117190476D01*
X148714285Y-117238095D01*
X149666666Y-117047619D02*
X149714285Y-117000000D01*
X149809523Y-116952380D01*
X150047619Y-116952380D01*
X150142857Y-117000000D01*
X150190476Y-117047619D01*
X150238095Y-117142857D01*
X150238095Y-117238095D01*
X150190476Y-117380952D01*
X149619047Y-117952380D01*
X150238095Y-117952380D01*
X157630952Y-133857142D02*
X157583333Y-133904761D01*
X157440476Y-133952380D01*
X157345238Y-133952380D01*
X157202380Y-133904761D01*
X157107142Y-133809523D01*
X157059523Y-133714285D01*
X157011904Y-133523809D01*
X157011904Y-133380952D01*
X157059523Y-133190476D01*
X157107142Y-133095238D01*
X157202380Y-133000000D01*
X157345238Y-132952380D01*
X157440476Y-132952380D01*
X157583333Y-133000000D01*
X157630952Y-133047619D01*
X158011904Y-133047619D02*
X158059523Y-133000000D01*
X158154761Y-132952380D01*
X158392857Y-132952380D01*
X158488095Y-133000000D01*
X158535714Y-133047619D01*
X158583333Y-133142857D01*
X158583333Y-133238095D01*
X158535714Y-133380952D01*
X157964285Y-133952380D01*
X158583333Y-133952380D01*
X159535714Y-133952380D02*
X158964285Y-133952380D01*
X159250000Y-133952380D02*
X159250000Y-132952380D01*
X159154761Y-133095238D01*
X159059523Y-133190476D01*
X158964285Y-133238095D01*
X160488095Y-133952380D02*
X159916666Y-133952380D01*
X160202380Y-133952380D02*
X160202380Y-132952380D01*
X160107142Y-133095238D01*
X160011904Y-133190476D01*
X159916666Y-133238095D01*
X157630952Y-131357142D02*
X157583333Y-131404761D01*
X157440476Y-131452380D01*
X157345238Y-131452380D01*
X157202380Y-131404761D01*
X157107142Y-131309523D01*
X157059523Y-131214285D01*
X157011904Y-131023809D01*
X157011904Y-130880952D01*
X157059523Y-130690476D01*
X157107142Y-130595238D01*
X157202380Y-130500000D01*
X157345238Y-130452380D01*
X157440476Y-130452380D01*
X157583333Y-130500000D01*
X157630952Y-130547619D01*
X158011904Y-130547619D02*
X158059523Y-130500000D01*
X158154761Y-130452380D01*
X158392857Y-130452380D01*
X158488095Y-130500000D01*
X158535714Y-130547619D01*
X158583333Y-130642857D01*
X158583333Y-130738095D01*
X158535714Y-130880952D01*
X157964285Y-131452380D01*
X158583333Y-131452380D01*
X159535714Y-131452380D02*
X158964285Y-131452380D01*
X159250000Y-131452380D02*
X159250000Y-130452380D01*
X159154761Y-130595238D01*
X159059523Y-130690476D01*
X158964285Y-130738095D01*
X160154761Y-130452380D02*
X160250000Y-130452380D01*
X160345238Y-130500000D01*
X160392857Y-130547619D01*
X160440476Y-130642857D01*
X160488095Y-130833333D01*
X160488095Y-131071428D01*
X160440476Y-131261904D01*
X160392857Y-131357142D01*
X160345238Y-131404761D01*
X160250000Y-131452380D01*
X160154761Y-131452380D01*
X160059523Y-131404761D01*
X160011904Y-131357142D01*
X159964285Y-131261904D01*
X159916666Y-131071428D01*
X159916666Y-130833333D01*
X159964285Y-130642857D01*
X160011904Y-130547619D01*
X160059523Y-130500000D01*
X160154761Y-130452380D01*
X140607142Y-118369047D02*
X140654761Y-118416666D01*
X140702380Y-118559523D01*
X140702380Y-118654761D01*
X140654761Y-118797619D01*
X140559523Y-118892857D01*
X140464285Y-118940476D01*
X140273809Y-118988095D01*
X140130952Y-118988095D01*
X139940476Y-118940476D01*
X139845238Y-118892857D01*
X139750000Y-118797619D01*
X139702380Y-118654761D01*
X139702380Y-118559523D01*
X139750000Y-118416666D01*
X139797619Y-118369047D01*
X139797619Y-117988095D02*
X139750000Y-117940476D01*
X139702380Y-117845238D01*
X139702380Y-117607142D01*
X139750000Y-117511904D01*
X139797619Y-117464285D01*
X139892857Y-117416666D01*
X139988095Y-117416666D01*
X140130952Y-117464285D01*
X140702380Y-118035714D01*
X140702380Y-117416666D01*
X139702380Y-116797619D02*
X139702380Y-116702380D01*
X139750000Y-116607142D01*
X139797619Y-116559523D01*
X139892857Y-116511904D01*
X140083333Y-116464285D01*
X140321428Y-116464285D01*
X140511904Y-116511904D01*
X140607142Y-116559523D01*
X140654761Y-116607142D01*
X140702380Y-116702380D01*
X140702380Y-116797619D01*
X140654761Y-116892857D01*
X140607142Y-116940476D01*
X140511904Y-116988095D01*
X140321428Y-117035714D01*
X140083333Y-117035714D01*
X139892857Y-116988095D01*
X139797619Y-116940476D01*
X139750000Y-116892857D01*
X139702380Y-116797619D01*
X140035714Y-115607142D02*
X140702380Y-115607142D01*
X139654761Y-115845238D02*
X140369047Y-116083333D01*
X140369047Y-115464285D01*
X145107142Y-118369047D02*
X145154761Y-118416666D01*
X145202380Y-118559523D01*
X145202380Y-118654761D01*
X145154761Y-118797619D01*
X145059523Y-118892857D01*
X144964285Y-118940476D01*
X144773809Y-118988095D01*
X144630952Y-118988095D01*
X144440476Y-118940476D01*
X144345238Y-118892857D01*
X144250000Y-118797619D01*
X144202380Y-118654761D01*
X144202380Y-118559523D01*
X144250000Y-118416666D01*
X144297619Y-118369047D01*
X144297619Y-117988095D02*
X144250000Y-117940476D01*
X144202380Y-117845238D01*
X144202380Y-117607142D01*
X144250000Y-117511904D01*
X144297619Y-117464285D01*
X144392857Y-117416666D01*
X144488095Y-117416666D01*
X144630952Y-117464285D01*
X145202380Y-118035714D01*
X145202380Y-117416666D01*
X144202380Y-116797619D02*
X144202380Y-116702380D01*
X144250000Y-116607142D01*
X144297619Y-116559523D01*
X144392857Y-116511904D01*
X144583333Y-116464285D01*
X144821428Y-116464285D01*
X145011904Y-116511904D01*
X145107142Y-116559523D01*
X145154761Y-116607142D01*
X145202380Y-116702380D01*
X145202380Y-116797619D01*
X145154761Y-116892857D01*
X145107142Y-116940476D01*
X145011904Y-116988095D01*
X144821428Y-117035714D01*
X144583333Y-117035714D01*
X144392857Y-116988095D01*
X144297619Y-116940476D01*
X144250000Y-116892857D01*
X144202380Y-116797619D01*
X144202380Y-116130952D02*
X144202380Y-115511904D01*
X144583333Y-115845238D01*
X144583333Y-115702380D01*
X144630952Y-115607142D01*
X144678571Y-115559523D01*
X144773809Y-115511904D01*
X145011904Y-115511904D01*
X145107142Y-115559523D01*
X145154761Y-115607142D01*
X145202380Y-115702380D01*
X145202380Y-115988095D01*
X145154761Y-116083333D01*
X145107142Y-116130952D01*
X138787142Y-126849047D02*
X138834761Y-126896666D01*
X138882380Y-127039523D01*
X138882380Y-127134761D01*
X138834761Y-127277619D01*
X138739523Y-127372857D01*
X138644285Y-127420476D01*
X138453809Y-127468095D01*
X138310952Y-127468095D01*
X138120476Y-127420476D01*
X138025238Y-127372857D01*
X137930000Y-127277619D01*
X137882380Y-127134761D01*
X137882380Y-127039523D01*
X137930000Y-126896666D01*
X137977619Y-126849047D01*
X137977619Y-126468095D02*
X137930000Y-126420476D01*
X137882380Y-126325238D01*
X137882380Y-126087142D01*
X137930000Y-125991904D01*
X137977619Y-125944285D01*
X138072857Y-125896666D01*
X138168095Y-125896666D01*
X138310952Y-125944285D01*
X138882380Y-126515714D01*
X138882380Y-125896666D01*
X137882380Y-125277619D02*
X137882380Y-125182380D01*
X137930000Y-125087142D01*
X137977619Y-125039523D01*
X138072857Y-124991904D01*
X138263333Y-124944285D01*
X138501428Y-124944285D01*
X138691904Y-124991904D01*
X138787142Y-125039523D01*
X138834761Y-125087142D01*
X138882380Y-125182380D01*
X138882380Y-125277619D01*
X138834761Y-125372857D01*
X138787142Y-125420476D01*
X138691904Y-125468095D01*
X138501428Y-125515714D01*
X138263333Y-125515714D01*
X138072857Y-125468095D01*
X137977619Y-125420476D01*
X137930000Y-125372857D01*
X137882380Y-125277619D01*
X137977619Y-124563333D02*
X137930000Y-124515714D01*
X137882380Y-124420476D01*
X137882380Y-124182380D01*
X137930000Y-124087142D01*
X137977619Y-124039523D01*
X138072857Y-123991904D01*
X138168095Y-123991904D01*
X138310952Y-124039523D01*
X138882380Y-124610952D01*
X138882380Y-123991904D01*
X142857142Y-118369047D02*
X142904761Y-118416666D01*
X142952380Y-118559523D01*
X142952380Y-118654761D01*
X142904761Y-118797619D01*
X142809523Y-118892857D01*
X142714285Y-118940476D01*
X142523809Y-118988095D01*
X142380952Y-118988095D01*
X142190476Y-118940476D01*
X142095238Y-118892857D01*
X142000000Y-118797619D01*
X141952380Y-118654761D01*
X141952380Y-118559523D01*
X142000000Y-118416666D01*
X142047619Y-118369047D01*
X142047619Y-117988095D02*
X142000000Y-117940476D01*
X141952380Y-117845238D01*
X141952380Y-117607142D01*
X142000000Y-117511904D01*
X142047619Y-117464285D01*
X142142857Y-117416666D01*
X142238095Y-117416666D01*
X142380952Y-117464285D01*
X142952380Y-118035714D01*
X142952380Y-117416666D01*
X141952380Y-116797619D02*
X141952380Y-116702380D01*
X142000000Y-116607142D01*
X142047619Y-116559523D01*
X142142857Y-116511904D01*
X142333333Y-116464285D01*
X142571428Y-116464285D01*
X142761904Y-116511904D01*
X142857142Y-116559523D01*
X142904761Y-116607142D01*
X142952380Y-116702380D01*
X142952380Y-116797619D01*
X142904761Y-116892857D01*
X142857142Y-116940476D01*
X142761904Y-116988095D01*
X142571428Y-117035714D01*
X142333333Y-117035714D01*
X142142857Y-116988095D01*
X142047619Y-116940476D01*
X142000000Y-116892857D01*
X141952380Y-116797619D01*
X142952380Y-115511904D02*
X142952380Y-116083333D01*
X142952380Y-115797619D02*
X141952380Y-115797619D01*
X142095238Y-115892857D01*
X142190476Y-115988095D01*
X142238095Y-116083333D01*
X147677142Y-126849047D02*
X147724761Y-126896666D01*
X147772380Y-127039523D01*
X147772380Y-127134761D01*
X147724761Y-127277619D01*
X147629523Y-127372857D01*
X147534285Y-127420476D01*
X147343809Y-127468095D01*
X147200952Y-127468095D01*
X147010476Y-127420476D01*
X146915238Y-127372857D01*
X146820000Y-127277619D01*
X146772380Y-127134761D01*
X146772380Y-127039523D01*
X146820000Y-126896666D01*
X146867619Y-126849047D01*
X146867619Y-126468095D02*
X146820000Y-126420476D01*
X146772380Y-126325238D01*
X146772380Y-126087142D01*
X146820000Y-125991904D01*
X146867619Y-125944285D01*
X146962857Y-125896666D01*
X147058095Y-125896666D01*
X147200952Y-125944285D01*
X147772380Y-126515714D01*
X147772380Y-125896666D01*
X146772380Y-125277619D02*
X146772380Y-125182380D01*
X146820000Y-125087142D01*
X146867619Y-125039523D01*
X146962857Y-124991904D01*
X147153333Y-124944285D01*
X147391428Y-124944285D01*
X147581904Y-124991904D01*
X147677142Y-125039523D01*
X147724761Y-125087142D01*
X147772380Y-125182380D01*
X147772380Y-125277619D01*
X147724761Y-125372857D01*
X147677142Y-125420476D01*
X147581904Y-125468095D01*
X147391428Y-125515714D01*
X147153333Y-125515714D01*
X146962857Y-125468095D01*
X146867619Y-125420476D01*
X146820000Y-125372857D01*
X146772380Y-125277619D01*
X146772380Y-124325238D02*
X146772380Y-124230000D01*
X146820000Y-124134761D01*
X146867619Y-124087142D01*
X146962857Y-124039523D01*
X147153333Y-123991904D01*
X147391428Y-123991904D01*
X147581904Y-124039523D01*
X147677142Y-124087142D01*
X147724761Y-124134761D01*
X147772380Y-124230000D01*
X147772380Y-124325238D01*
X147724761Y-124420476D01*
X147677142Y-124468095D01*
X147581904Y-124515714D01*
X147391428Y-124563333D01*
X147153333Y-124563333D01*
X146962857Y-124515714D01*
X146867619Y-124468095D01*
X146820000Y-124420476D01*
X146772380Y-124325238D01*
X135112285Y-93134380D02*
X135112285Y-93848666D01*
X135064666Y-93991523D01*
X134969428Y-94086761D01*
X134826571Y-94134380D01*
X134731333Y-94134380D01*
X135540857Y-93229619D02*
X135588476Y-93182000D01*
X135683714Y-93134380D01*
X135921809Y-93134380D01*
X136017047Y-93182000D01*
X136064666Y-93229619D01*
X136112285Y-93324857D01*
X136112285Y-93420095D01*
X136064666Y-93562952D01*
X135493238Y-94134380D01*
X136112285Y-94134380D01*
X136731333Y-93134380D02*
X136826571Y-93134380D01*
X136921809Y-93182000D01*
X136969428Y-93229619D01*
X137017047Y-93324857D01*
X137064666Y-93515333D01*
X137064666Y-93753428D01*
X137017047Y-93943904D01*
X136969428Y-94039142D01*
X136921809Y-94086761D01*
X136826571Y-94134380D01*
X136731333Y-94134380D01*
X136636095Y-94086761D01*
X136588476Y-94039142D01*
X136540857Y-93943904D01*
X136493238Y-93753428D01*
X136493238Y-93515333D01*
X136540857Y-93324857D01*
X136588476Y-93229619D01*
X136636095Y-93182000D01*
X136731333Y-93134380D01*
X137683714Y-93134380D02*
X137778952Y-93134380D01*
X137874190Y-93182000D01*
X137921809Y-93229619D01*
X137969428Y-93324857D01*
X138017047Y-93515333D01*
X138017047Y-93753428D01*
X137969428Y-93943904D01*
X137921809Y-94039142D01*
X137874190Y-94086761D01*
X137778952Y-94134380D01*
X137683714Y-94134380D01*
X137588476Y-94086761D01*
X137540857Y-94039142D01*
X137493238Y-93943904D01*
X137445619Y-93753428D01*
X137445619Y-93515333D01*
X137493238Y-93324857D01*
X137540857Y-93229619D01*
X137588476Y-93182000D01*
X137683714Y-93134380D01*
X126182380Y-150979047D02*
X125706190Y-151312380D01*
X126182380Y-151550476D02*
X125182380Y-151550476D01*
X125182380Y-151169523D01*
X125230000Y-151074285D01*
X125277619Y-151026666D01*
X125372857Y-150979047D01*
X125515714Y-150979047D01*
X125610952Y-151026666D01*
X125658571Y-151074285D01*
X125706190Y-151169523D01*
X125706190Y-151550476D01*
X125277619Y-150598095D02*
X125230000Y-150550476D01*
X125182380Y-150455238D01*
X125182380Y-150217142D01*
X125230000Y-150121904D01*
X125277619Y-150074285D01*
X125372857Y-150026666D01*
X125468095Y-150026666D01*
X125610952Y-150074285D01*
X126182380Y-150645714D01*
X126182380Y-150026666D01*
X125182380Y-149407619D02*
X125182380Y-149312380D01*
X125230000Y-149217142D01*
X125277619Y-149169523D01*
X125372857Y-149121904D01*
X125563333Y-149074285D01*
X125801428Y-149074285D01*
X125991904Y-149121904D01*
X126087142Y-149169523D01*
X126134761Y-149217142D01*
X126182380Y-149312380D01*
X126182380Y-149407619D01*
X126134761Y-149502857D01*
X126087142Y-149550476D01*
X125991904Y-149598095D01*
X125801428Y-149645714D01*
X125563333Y-149645714D01*
X125372857Y-149598095D01*
X125277619Y-149550476D01*
X125230000Y-149502857D01*
X125182380Y-149407619D01*
X125182380Y-148217142D02*
X125182380Y-148407619D01*
X125230000Y-148502857D01*
X125277619Y-148550476D01*
X125420476Y-148645714D01*
X125610952Y-148693333D01*
X125991904Y-148693333D01*
X126087142Y-148645714D01*
X126134761Y-148598095D01*
X126182380Y-148502857D01*
X126182380Y-148312380D01*
X126134761Y-148217142D01*
X126087142Y-148169523D01*
X125991904Y-148121904D01*
X125753809Y-148121904D01*
X125658571Y-148169523D01*
X125610952Y-148217142D01*
X125563333Y-148312380D01*
X125563333Y-148502857D01*
X125610952Y-148598095D01*
X125658571Y-148645714D01*
X125753809Y-148693333D01*
X135952380Y-152429047D02*
X135476190Y-152762380D01*
X135952380Y-153000476D02*
X134952380Y-153000476D01*
X134952380Y-152619523D01*
X135000000Y-152524285D01*
X135047619Y-152476666D01*
X135142857Y-152429047D01*
X135285714Y-152429047D01*
X135380952Y-152476666D01*
X135428571Y-152524285D01*
X135476190Y-152619523D01*
X135476190Y-153000476D01*
X135047619Y-152048095D02*
X135000000Y-152000476D01*
X134952380Y-151905238D01*
X134952380Y-151667142D01*
X135000000Y-151571904D01*
X135047619Y-151524285D01*
X135142857Y-151476666D01*
X135238095Y-151476666D01*
X135380952Y-151524285D01*
X135952380Y-152095714D01*
X135952380Y-151476666D01*
X134952380Y-150857619D02*
X134952380Y-150762380D01*
X135000000Y-150667142D01*
X135047619Y-150619523D01*
X135142857Y-150571904D01*
X135333333Y-150524285D01*
X135571428Y-150524285D01*
X135761904Y-150571904D01*
X135857142Y-150619523D01*
X135904761Y-150667142D01*
X135952380Y-150762380D01*
X135952380Y-150857619D01*
X135904761Y-150952857D01*
X135857142Y-151000476D01*
X135761904Y-151048095D01*
X135571428Y-151095714D01*
X135333333Y-151095714D01*
X135142857Y-151048095D01*
X135047619Y-151000476D01*
X135000000Y-150952857D01*
X134952380Y-150857619D01*
X134952380Y-149619523D02*
X134952380Y-150095714D01*
X135428571Y-150143333D01*
X135380952Y-150095714D01*
X135333333Y-150000476D01*
X135333333Y-149762380D01*
X135380952Y-149667142D01*
X135428571Y-149619523D01*
X135523809Y-149571904D01*
X135761904Y-149571904D01*
X135857142Y-149619523D01*
X135904761Y-149667142D01*
X135952380Y-149762380D01*
X135952380Y-150000476D01*
X135904761Y-150095714D01*
X135857142Y-150143333D01*
X129630952Y-151452380D02*
X129297619Y-150976190D01*
X129059523Y-151452380D02*
X129059523Y-150452380D01*
X129440476Y-150452380D01*
X129535714Y-150500000D01*
X129583333Y-150547619D01*
X129630952Y-150642857D01*
X129630952Y-150785714D01*
X129583333Y-150880952D01*
X129535714Y-150928571D01*
X129440476Y-150976190D01*
X129059523Y-150976190D01*
X130011904Y-150547619D02*
X130059523Y-150500000D01*
X130154761Y-150452380D01*
X130392857Y-150452380D01*
X130488095Y-150500000D01*
X130535714Y-150547619D01*
X130583333Y-150642857D01*
X130583333Y-150738095D01*
X130535714Y-150880952D01*
X129964285Y-151452380D01*
X130583333Y-151452380D01*
X131202380Y-150452380D02*
X131297619Y-150452380D01*
X131392857Y-150500000D01*
X131440476Y-150547619D01*
X131488095Y-150642857D01*
X131535714Y-150833333D01*
X131535714Y-151071428D01*
X131488095Y-151261904D01*
X131440476Y-151357142D01*
X131392857Y-151404761D01*
X131297619Y-151452380D01*
X131202380Y-151452380D01*
X131107142Y-151404761D01*
X131059523Y-151357142D01*
X131011904Y-151261904D01*
X130964285Y-151071428D01*
X130964285Y-150833333D01*
X131011904Y-150642857D01*
X131059523Y-150547619D01*
X131107142Y-150500000D01*
X131202380Y-150452380D01*
X132392857Y-150785714D02*
X132392857Y-151452380D01*
X132154761Y-150404761D02*
X131916666Y-151119047D01*
X132535714Y-151119047D01*
X130472672Y-137667090D02*
X129900252Y-137566075D01*
X130068611Y-138071151D02*
X129361504Y-137364045D01*
X129630878Y-137094671D01*
X129731893Y-137060999D01*
X129799237Y-137060999D01*
X129900252Y-137094671D01*
X130001267Y-137195686D01*
X130034939Y-137296701D01*
X130034939Y-137364045D01*
X130001267Y-137465060D01*
X129731893Y-137734434D01*
X130102283Y-136757953D02*
X130102283Y-136690610D01*
X130135954Y-136589594D01*
X130304313Y-136421235D01*
X130405328Y-136387564D01*
X130472672Y-136387564D01*
X130573687Y-136421235D01*
X130641031Y-136488579D01*
X130708374Y-136623266D01*
X130708374Y-137431388D01*
X131146107Y-136993655D01*
X130876733Y-135848816D02*
X130944077Y-135781472D01*
X131045092Y-135747800D01*
X131112435Y-135747800D01*
X131213451Y-135781472D01*
X131381809Y-135882487D01*
X131550168Y-136050846D01*
X131651183Y-136219205D01*
X131684855Y-136320220D01*
X131684855Y-136387564D01*
X131651183Y-136488579D01*
X131583840Y-136555923D01*
X131482825Y-136589594D01*
X131415481Y-136589594D01*
X131314466Y-136555923D01*
X131146107Y-136454907D01*
X130977748Y-136286548D01*
X130876733Y-136118190D01*
X130843061Y-136017174D01*
X130843061Y-135949831D01*
X130876733Y-135848816D01*
X131348138Y-135377411D02*
X131785870Y-134939678D01*
X131819542Y-135444755D01*
X131920557Y-135343739D01*
X132021573Y-135310068D01*
X132088916Y-135310068D01*
X132189931Y-135343739D01*
X132358290Y-135512098D01*
X132391962Y-135613113D01*
X132391962Y-135680457D01*
X132358290Y-135781472D01*
X132156260Y-135983503D01*
X132055244Y-136017174D01*
X131987901Y-136017174D01*
X131972672Y-139167090D02*
X131400252Y-139066075D01*
X131568611Y-139571151D02*
X130861504Y-138864045D01*
X131130878Y-138594671D01*
X131231893Y-138560999D01*
X131299237Y-138560999D01*
X131400252Y-138594671D01*
X131501267Y-138695686D01*
X131534939Y-138796701D01*
X131534939Y-138864045D01*
X131501267Y-138965060D01*
X131231893Y-139234434D01*
X131602283Y-138257953D02*
X131602283Y-138190610D01*
X131635954Y-138089594D01*
X131804313Y-137921235D01*
X131905328Y-137887564D01*
X131972672Y-137887564D01*
X132073687Y-137921235D01*
X132141031Y-137988579D01*
X132208374Y-138123266D01*
X132208374Y-138931388D01*
X132646107Y-138493655D01*
X132376733Y-137348816D02*
X132444077Y-137281472D01*
X132545092Y-137247800D01*
X132612435Y-137247800D01*
X132713451Y-137281472D01*
X132881809Y-137382487D01*
X133050168Y-137550846D01*
X133151183Y-137719205D01*
X133184855Y-137820220D01*
X133184855Y-137887564D01*
X133151183Y-137988579D01*
X133083840Y-138055923D01*
X132982825Y-138089594D01*
X132915481Y-138089594D01*
X132814466Y-138055923D01*
X132646107Y-137954907D01*
X132477748Y-137786548D01*
X132376733Y-137618190D01*
X132343061Y-137517174D01*
X132343061Y-137449831D01*
X132376733Y-137348816D01*
X132949153Y-136911083D02*
X132949153Y-136843739D01*
X132982825Y-136742724D01*
X133151183Y-136574365D01*
X133252199Y-136540694D01*
X133319542Y-136540694D01*
X133420557Y-136574365D01*
X133487901Y-136641709D01*
X133555244Y-136776396D01*
X133555244Y-137584518D01*
X133992977Y-137146785D01*
X260162380Y-119545714D02*
X260876666Y-119545714D01*
X261019523Y-119593333D01*
X261114761Y-119688571D01*
X261162380Y-119831428D01*
X261162380Y-119926666D01*
X260162380Y-119164761D02*
X260162380Y-118545714D01*
X260543333Y-118879047D01*
X260543333Y-118736190D01*
X260590952Y-118640952D01*
X260638571Y-118593333D01*
X260733809Y-118545714D01*
X260971904Y-118545714D01*
X261067142Y-118593333D01*
X261114761Y-118640952D01*
X261162380Y-118736190D01*
X261162380Y-119021904D01*
X261114761Y-119117142D01*
X261067142Y-119164761D01*
X260162380Y-117926666D02*
X260162380Y-117831428D01*
X260210000Y-117736190D01*
X260257619Y-117688571D01*
X260352857Y-117640952D01*
X260543333Y-117593333D01*
X260781428Y-117593333D01*
X260971904Y-117640952D01*
X261067142Y-117688571D01*
X261114761Y-117736190D01*
X261162380Y-117831428D01*
X261162380Y-117926666D01*
X261114761Y-118021904D01*
X261067142Y-118069523D01*
X260971904Y-118117142D01*
X260781428Y-118164761D01*
X260543333Y-118164761D01*
X260352857Y-118117142D01*
X260257619Y-118069523D01*
X260210000Y-118021904D01*
X260162380Y-117926666D01*
X260162380Y-116974285D02*
X260162380Y-116879047D01*
X260210000Y-116783809D01*
X260257619Y-116736190D01*
X260352857Y-116688571D01*
X260543333Y-116640952D01*
X260781428Y-116640952D01*
X260971904Y-116688571D01*
X261067142Y-116736190D01*
X261114761Y-116783809D01*
X261162380Y-116879047D01*
X261162380Y-116974285D01*
X261114761Y-117069523D01*
X261067142Y-117117142D01*
X260971904Y-117164761D01*
X260781428Y-117212380D01*
X260543333Y-117212380D01*
X260352857Y-117164761D01*
X260257619Y-117117142D01*
X260210000Y-117069523D01*
X260162380Y-116974285D01*
X268478095Y-191332380D02*
X268478095Y-190332380D01*
X268478095Y-190808571D02*
X269049523Y-190808571D01*
X269049523Y-191332380D02*
X269049523Y-190332380D01*
X269954285Y-190332380D02*
X269763809Y-190332380D01*
X269668571Y-190380000D01*
X269620952Y-190427619D01*
X269525714Y-190570476D01*
X269478095Y-190760952D01*
X269478095Y-191141904D01*
X269525714Y-191237142D01*
X269573333Y-191284761D01*
X269668571Y-191332380D01*
X269859047Y-191332380D01*
X269954285Y-191284761D01*
X270001904Y-191237142D01*
X270049523Y-191141904D01*
X270049523Y-190903809D01*
X270001904Y-190808571D01*
X269954285Y-190760952D01*
X269859047Y-190713333D01*
X269668571Y-190713333D01*
X269573333Y-190760952D01*
X269525714Y-190808571D01*
X269478095Y-190903809D01*
X268478095Y-33852380D02*
X268478095Y-32852380D01*
X268478095Y-33328571D02*
X269049523Y-33328571D01*
X269049523Y-33852380D02*
X269049523Y-32852380D01*
X270001904Y-32852380D02*
X269525714Y-32852380D01*
X269478095Y-33328571D01*
X269525714Y-33280952D01*
X269620952Y-33233333D01*
X269859047Y-33233333D01*
X269954285Y-33280952D01*
X270001904Y-33328571D01*
X270049523Y-33423809D01*
X270049523Y-33661904D01*
X270001904Y-33757142D01*
X269954285Y-33804761D01*
X269859047Y-33852380D01*
X269620952Y-33852380D01*
X269525714Y-33804761D01*
X269478095Y-33757142D01*
X196088095Y-191332380D02*
X196088095Y-190332380D01*
X196088095Y-190808571D02*
X196659523Y-190808571D01*
X196659523Y-191332380D02*
X196659523Y-190332380D01*
X197564285Y-190665714D02*
X197564285Y-191332380D01*
X197326190Y-190284761D02*
X197088095Y-190999047D01*
X197707142Y-190999047D01*
X196088095Y-33852380D02*
X196088095Y-32852380D01*
X196088095Y-33328571D02*
X196659523Y-33328571D01*
X196659523Y-33852380D02*
X196659523Y-32852380D01*
X197040476Y-32852380D02*
X197659523Y-32852380D01*
X197326190Y-33233333D01*
X197469047Y-33233333D01*
X197564285Y-33280952D01*
X197611904Y-33328571D01*
X197659523Y-33423809D01*
X197659523Y-33661904D01*
X197611904Y-33757142D01*
X197564285Y-33804761D01*
X197469047Y-33852380D01*
X197183333Y-33852380D01*
X197088095Y-33804761D01*
X197040476Y-33757142D01*
X41148095Y-191332380D02*
X41148095Y-190332380D01*
X41148095Y-190808571D02*
X41719523Y-190808571D01*
X41719523Y-191332380D02*
X41719523Y-190332380D01*
X42148095Y-190427619D02*
X42195714Y-190380000D01*
X42290952Y-190332380D01*
X42529047Y-190332380D01*
X42624285Y-190380000D01*
X42671904Y-190427619D01*
X42719523Y-190522857D01*
X42719523Y-190618095D01*
X42671904Y-190760952D01*
X42100476Y-191332380D01*
X42719523Y-191332380D01*
X64008095Y-33852380D02*
X64008095Y-32852380D01*
X64008095Y-33328571D02*
X64579523Y-33328571D01*
X64579523Y-33852380D02*
X64579523Y-32852380D01*
X65579523Y-33852380D02*
X65008095Y-33852380D01*
X65293809Y-33852380D02*
X65293809Y-32852380D01*
X65198571Y-32995238D01*
X65103333Y-33090476D01*
X65008095Y-33138095D01*
X201382380Y-77914285D02*
X202191904Y-77914285D01*
X202287142Y-77866666D01*
X202334761Y-77819047D01*
X202382380Y-77723809D01*
X202382380Y-77533333D01*
X202334761Y-77438095D01*
X202287142Y-77390476D01*
X202191904Y-77342857D01*
X201382380Y-77342857D01*
X202382380Y-76342857D02*
X202382380Y-76914285D01*
X202382380Y-76628571D02*
X201382380Y-76628571D01*
X201525238Y-76723809D01*
X201620476Y-76819047D01*
X201668095Y-76914285D01*
X201382380Y-75723809D02*
X201382380Y-75628571D01*
X201430000Y-75533333D01*
X201477619Y-75485714D01*
X201572857Y-75438095D01*
X201763333Y-75390476D01*
X202001428Y-75390476D01*
X202191904Y-75438095D01*
X202287142Y-75485714D01*
X202334761Y-75533333D01*
X202382380Y-75628571D01*
X202382380Y-75723809D01*
X202334761Y-75819047D01*
X202287142Y-75866666D01*
X202191904Y-75914285D01*
X202001428Y-75961904D01*
X201763333Y-75961904D01*
X201572857Y-75914285D01*
X201477619Y-75866666D01*
X201430000Y-75819047D01*
X201382380Y-75723809D01*
X201382380Y-74771428D02*
X201382380Y-74676190D01*
X201430000Y-74580952D01*
X201477619Y-74533333D01*
X201572857Y-74485714D01*
X201763333Y-74438095D01*
X202001428Y-74438095D01*
X202191904Y-74485714D01*
X202287142Y-74533333D01*
X202334761Y-74580952D01*
X202382380Y-74676190D01*
X202382380Y-74771428D01*
X202334761Y-74866666D01*
X202287142Y-74914285D01*
X202191904Y-74961904D01*
X202001428Y-75009523D01*
X201763333Y-75009523D01*
X201572857Y-74961904D01*
X201477619Y-74914285D01*
X201430000Y-74866666D01*
X201382380Y-74771428D01*
M02*
